%TF.GenerationSoftware,KiCad,Pcbnew,(6.0.7)*%
%TF.CreationDate,2023-04-14T14:37:01-06:00*%
%TF.ProjectId,mc68302-cpu-card,6d633638-3330-4322-9d63-70752d636172,rev?*%
%TF.SameCoordinates,Original*%
%TF.FileFunction,Copper,L2,Inr*%
%TF.FilePolarity,Positive*%
%FSLAX46Y46*%
G04 Gerber Fmt 4.6, Leading zero omitted, Abs format (unit mm)*
G04 Created by KiCad (PCBNEW (6.0.7)) date 2023-04-14 14:37:01*
%MOMM*%
%LPD*%
G01*
G04 APERTURE LIST*
%TA.AperFunction,ComponentPad*%
%ADD10C,1.498600*%
%TD*%
%TA.AperFunction,ComponentPad*%
%ADD11C,2.997200*%
%TD*%
%TA.AperFunction,ComponentPad*%
%ADD12R,1.600000X1.600000*%
%TD*%
%TA.AperFunction,ComponentPad*%
%ADD13O,1.600000X1.600000*%
%TD*%
%TA.AperFunction,ComponentPad*%
%ADD14R,1.422400X1.422400*%
%TD*%
%TA.AperFunction,ComponentPad*%
%ADD15C,1.422400*%
%TD*%
G04 APERTURE END LIST*
D10*
%TO.N,unconnected-(BUS1-Pad1)*%
%TO.C,BUS1*%
X89789000Y-88861900D03*
%TO.N,unconnected-(BUS1-Pad2)*%
X92329000Y-88861900D03*
%TO.N,unconnected-(BUS1-Pad3)*%
X94869000Y-88861900D03*
%TO.N,unconnected-(BUS1-Pad4)*%
X97409000Y-88861900D03*
%TO.N,unconnected-(BUS1-Pad5)*%
X99949000Y-88861900D03*
%TO.N,unconnected-(BUS1-Pad6)*%
X102489000Y-88861900D03*
%TO.N,unconnected-(BUS1-Pad7)*%
X105029000Y-88861900D03*
%TO.N,unconnected-(BUS1-Pad8)*%
X107569000Y-88861900D03*
%TO.N,unconnected-(BUS1-Pad9)*%
X110109000Y-88861900D03*
%TO.N,unconnected-(BUS1-Pad10)*%
X112649000Y-88861900D03*
%TO.N,unconnected-(BUS1-Pad11)*%
X115189000Y-88861900D03*
%TO.N,unconnected-(BUS1-Pad12)*%
X117729000Y-88861900D03*
%TO.N,unconnected-(BUS1-Pad13)*%
X120269000Y-88861900D03*
%TO.N,unconnected-(BUS1-Pad14)*%
X122809000Y-88861900D03*
%TO.N,unconnected-(BUS1-Pad15)*%
X125349000Y-88861900D03*
%TO.N,unconnected-(BUS1-Pad16)*%
X127889000Y-88861900D03*
%TO.N,unconnected-(BUS1-Pad17)*%
X130429000Y-88861900D03*
%TO.N,unconnected-(BUS1-Pad18)*%
X132969000Y-88861900D03*
%TO.N,unconnected-(BUS1-Pad19)*%
X135509000Y-88861900D03*
%TO.N,unconnected-(BUS1-Pad20)*%
X138049000Y-88861900D03*
%TO.N,unconnected-(BUS1-Pad21)*%
X140589000Y-88861900D03*
%TO.N,unconnected-(BUS1-Pad22)*%
X143129000Y-88861900D03*
%TO.N,unconnected-(BUS1-Pad23)*%
X145669000Y-88861900D03*
%TO.N,unconnected-(BUS1-Pad24)*%
X148209000Y-88861900D03*
%TO.N,unconnected-(BUS1-Pad25)*%
X150749000Y-88861900D03*
%TO.N,unconnected-(BUS1-Pad26)*%
X153289000Y-88861900D03*
%TO.N,unconnected-(BUS1-Pad27)*%
X155829000Y-88861900D03*
%TO.N,unconnected-(BUS1-Pad28)*%
X158369000Y-88861900D03*
%TO.N,unconnected-(BUS1-Pad29)*%
X160909000Y-88861900D03*
%TO.N,unconnected-(BUS1-Pad30)*%
X163449000Y-88861900D03*
%TO.N,unconnected-(BUS1-Pad31)*%
X165989000Y-88861900D03*
%TO.N,unconnected-(BUS1-Pad32)*%
X168529000Y-88861900D03*
%TO.N,unconnected-(BUS1-Pad33)*%
X89789000Y-91401900D03*
%TO.N,unconnected-(BUS1-Pad34)*%
X92329000Y-91401900D03*
%TO.N,unconnected-(BUS1-Pad35)*%
X94869000Y-91401900D03*
%TO.N,unconnected-(BUS1-Pad36)*%
X97409000Y-91401900D03*
%TO.N,unconnected-(BUS1-Pad37)*%
X99949000Y-91401900D03*
%TO.N,unconnected-(BUS1-Pad38)*%
X102489000Y-91401900D03*
%TO.N,unconnected-(BUS1-Pad39)*%
X105029000Y-91401900D03*
%TO.N,unconnected-(BUS1-Pad40)*%
X107569000Y-91401900D03*
%TO.N,unconnected-(BUS1-Pad41)*%
X110109000Y-91401900D03*
%TO.N,unconnected-(BUS1-Pad42)*%
X112649000Y-91401900D03*
%TO.N,unconnected-(BUS1-Pad43)*%
X115189000Y-91401900D03*
%TO.N,unconnected-(BUS1-Pad44)*%
X117729000Y-91401900D03*
%TO.N,unconnected-(BUS1-Pad45)*%
X120269000Y-91401900D03*
%TO.N,unconnected-(BUS1-Pad46)*%
X122809000Y-91401900D03*
%TO.N,unconnected-(BUS1-Pad47)*%
X125349000Y-91401900D03*
%TO.N,unconnected-(BUS1-Pad48)*%
X127889000Y-91401900D03*
%TO.N,unconnected-(BUS1-Pad49)*%
X130429000Y-91401900D03*
%TO.N,unconnected-(BUS1-Pad50)*%
X132969000Y-91401900D03*
%TO.N,unconnected-(BUS1-Pad51)*%
X135509000Y-91401900D03*
%TO.N,unconnected-(BUS1-Pad52)*%
X138049000Y-91401900D03*
%TO.N,unconnected-(BUS1-Pad53)*%
X140589000Y-91401900D03*
%TO.N,unconnected-(BUS1-Pad54)*%
X143129000Y-91401900D03*
%TO.N,unconnected-(BUS1-Pad55)*%
X145669000Y-91401900D03*
%TO.N,unconnected-(BUS1-Pad56)*%
X148209000Y-91401900D03*
%TO.N,unconnected-(BUS1-Pad57)*%
X150749000Y-91401900D03*
%TO.N,unconnected-(BUS1-Pad58)*%
X153289000Y-91401900D03*
%TO.N,unconnected-(BUS1-Pad59)*%
X155829000Y-91401900D03*
%TO.N,unconnected-(BUS1-Pad60)*%
X158369000Y-91401900D03*
%TO.N,unconnected-(BUS1-Pad61)*%
X160909000Y-91401900D03*
%TO.N,unconnected-(BUS1-Pad62)*%
X163449000Y-91401900D03*
%TO.N,unconnected-(BUS1-Pad63)*%
X165989000Y-91401900D03*
%TO.N,unconnected-(BUS1-Pad64)*%
X168529000Y-91401900D03*
%TO.N,unconnected-(BUS1-Pad65)*%
X89789000Y-93941900D03*
%TO.N,unconnected-(BUS1-Pad66)*%
X92329000Y-93941900D03*
%TO.N,unconnected-(BUS1-Pad67)*%
X94869000Y-93941900D03*
%TO.N,unconnected-(BUS1-Pad68)*%
X97409000Y-93941900D03*
%TO.N,unconnected-(BUS1-Pad69)*%
X99949000Y-93941900D03*
%TO.N,unconnected-(BUS1-Pad70)*%
X102489000Y-93941900D03*
%TO.N,unconnected-(BUS1-Pad71)*%
X105029000Y-93941900D03*
%TO.N,unconnected-(BUS1-Pad72)*%
X107569000Y-93941900D03*
%TO.N,unconnected-(BUS1-Pad73)*%
X110109000Y-93941900D03*
%TO.N,unconnected-(BUS1-Pad74)*%
X112649000Y-93941900D03*
%TO.N,unconnected-(BUS1-Pad75)*%
X115189000Y-93941900D03*
%TO.N,unconnected-(BUS1-Pad76)*%
X117729000Y-93941900D03*
%TO.N,unconnected-(BUS1-Pad77)*%
X120269000Y-93941900D03*
%TO.N,unconnected-(BUS1-Pad78)*%
X122809000Y-93941900D03*
%TO.N,unconnected-(BUS1-Pad79)*%
X125349000Y-93941900D03*
%TO.N,unconnected-(BUS1-Pad80)*%
X127889000Y-93941900D03*
%TO.N,unconnected-(BUS1-Pad81)*%
X130429000Y-93941900D03*
%TO.N,unconnected-(BUS1-Pad82)*%
X132969000Y-93941900D03*
%TO.N,unconnected-(BUS1-Pad83)*%
X135509000Y-93941900D03*
%TO.N,unconnected-(BUS1-Pad84)*%
X138049000Y-93941900D03*
%TO.N,unconnected-(BUS1-Pad85)*%
X140589000Y-93941900D03*
%TO.N,unconnected-(BUS1-Pad86)*%
X143129000Y-93941900D03*
%TO.N,unconnected-(BUS1-Pad87)*%
X145669000Y-93941900D03*
%TO.N,unconnected-(BUS1-Pad88)*%
X148209000Y-93941900D03*
%TO.N,unconnected-(BUS1-Pad89)*%
X150749000Y-93941900D03*
%TO.N,unconnected-(BUS1-Pad90)*%
X153289000Y-93941900D03*
%TO.N,unconnected-(BUS1-Pad91)*%
X155829000Y-93941900D03*
%TO.N,unconnected-(BUS1-Pad92)*%
X158369000Y-93941900D03*
%TO.N,unconnected-(BUS1-Pad93)*%
X160909000Y-93941900D03*
%TO.N,unconnected-(BUS1-Pad94)*%
X163449000Y-93941900D03*
%TO.N,unconnected-(BUS1-Pad95)*%
X165989000Y-93941900D03*
%TO.N,unconnected-(BUS1-Pad96)*%
X168529000Y-93941900D03*
D11*
%TO.N,N/C*%
X84709000Y-96481900D03*
X173609000Y-96481900D03*
%TD*%
D12*
%TO.N,unconnected-(U8-Pad1)*%
%TO.C,U8*%
X121920000Y-62992000D03*
D13*
%TO.N,/A17*%
X119380000Y-62992000D03*
%TO.N,/A15*%
X116840000Y-62992000D03*
%TO.N,/A13*%
X114300000Y-62992000D03*
%TO.N,/A8*%
X111760000Y-62992000D03*
%TO.N,/A7*%
X109220000Y-62992000D03*
%TO.N,/A6*%
X106680000Y-62992000D03*
%TO.N,/A5*%
X104140000Y-62992000D03*
%TO.N,/A4*%
X101600000Y-62992000D03*
%TO.N,/A3*%
X99060000Y-62992000D03*
%TO.N,/A2*%
X96520000Y-62992000D03*
%TO.N,/A1*%
X93980000Y-62992000D03*
%TO.N,/D0*%
X91440000Y-62992000D03*
%TO.N,/D1*%
X88900000Y-62992000D03*
%TO.N,/D2*%
X86360000Y-62992000D03*
%TO.N,GND*%
X83820000Y-62992000D03*
%TO.N,/D3*%
X83820000Y-78232000D03*
%TO.N,/D4*%
X86360000Y-78232000D03*
%TO.N,/D5*%
X88900000Y-78232000D03*
%TO.N,/D6*%
X91440000Y-78232000D03*
%TO.N,/D7*%
X93980000Y-78232000D03*
%TO.N,/~{CS1}*%
X96520000Y-78232000D03*
%TO.N,/A11*%
X99060000Y-78232000D03*
%TO.N,/~{SRAM_LDS_RD}*%
X101600000Y-78232000D03*
%TO.N,/A12*%
X104140000Y-78232000D03*
%TO.N,/A10*%
X106680000Y-78232000D03*
%TO.N,/A9*%
X109220000Y-78232000D03*
%TO.N,/A14*%
X111760000Y-78232000D03*
%TO.N,/~{SRAM_LDS_WR}*%
X114300000Y-78232000D03*
%TO.N,Net-(R15-Pad2)*%
X116840000Y-78232000D03*
%TO.N,/A16*%
X119380000Y-78232000D03*
%TO.N,VCC*%
X121920000Y-78232000D03*
%TD*%
%TO.N,VCC*%
%TO.C,U9*%
X121920000Y-54610000D03*
%TO.N,/A16*%
X119380000Y-54610000D03*
%TO.N,Net-(R17-Pad2)*%
X116840000Y-54610000D03*
%TO.N,/~{SRAM_UDS_WR}*%
X114300000Y-54610000D03*
%TO.N,/A14*%
X111760000Y-54610000D03*
%TO.N,/A9*%
X109220000Y-54610000D03*
%TO.N,/A10*%
X106680000Y-54610000D03*
%TO.N,/A12*%
X104140000Y-54610000D03*
%TO.N,/~{SRAM_UDS_RD}*%
X101600000Y-54610000D03*
%TO.N,/A11*%
X99060000Y-54610000D03*
%TO.N,/~{CS1}*%
X96520000Y-54610000D03*
%TO.N,/D15*%
X93980000Y-54610000D03*
%TO.N,/D14*%
X91440000Y-54610000D03*
%TO.N,/D13*%
X88900000Y-54610000D03*
%TO.N,/D12*%
X86360000Y-54610000D03*
%TO.N,/D11*%
X83820000Y-54610000D03*
%TO.N,GND*%
X83820000Y-39370000D03*
%TO.N,/D10*%
X86360000Y-39370000D03*
%TO.N,/D9*%
X88900000Y-39370000D03*
%TO.N,/D8*%
X91440000Y-39370000D03*
%TO.N,/A1*%
X93980000Y-39370000D03*
%TO.N,/A2*%
X96520000Y-39370000D03*
%TO.N,/A3*%
X99060000Y-39370000D03*
%TO.N,/A4*%
X101600000Y-39370000D03*
%TO.N,/A5*%
X104140000Y-39370000D03*
%TO.N,/A6*%
X106680000Y-39370000D03*
%TO.N,/A7*%
X109220000Y-39370000D03*
%TO.N,/A8*%
X111760000Y-39370000D03*
%TO.N,/A13*%
X114300000Y-39370000D03*
%TO.N,/A15*%
X116840000Y-39370000D03*
%TO.N,/A17*%
X119380000Y-39370000D03*
D12*
%TO.N,unconnected-(U9-Pad1)*%
X121920000Y-39370000D03*
%TD*%
D14*
%TO.N,unconnected-(U5-Pad1)*%
%TO.C,U5*%
X143533200Y-34511800D03*
D15*
%TO.N,unconnected-(U5-Pad2)*%
X140993200Y-37051800D03*
%TO.N,/A13*%
X143533200Y-37051800D03*
%TO.N,/A8*%
X140993200Y-39591800D03*
%TO.N,/A7*%
X143533200Y-42131800D03*
%TO.N,/A6*%
X143533200Y-39591800D03*
%TO.N,/A5*%
X146073200Y-42131800D03*
%TO.N,/A4*%
X146073200Y-39591800D03*
%TO.N,/A3*%
X148613200Y-42131800D03*
%TO.N,/A2*%
X148613200Y-39591800D03*
%TO.N,/A1*%
X151153200Y-42131800D03*
%TO.N,unconnected-(U5-Pad12)*%
X151153200Y-39591800D03*
%TO.N,/D8*%
X153693200Y-42131800D03*
%TO.N,/D9*%
X156233200Y-39591800D03*
%TO.N,/D10*%
X153693200Y-39591800D03*
%TO.N,GND*%
X156233200Y-37051800D03*
%TO.N,unconnected-(U5-Pad17)*%
X153693200Y-37051800D03*
%TO.N,/D11*%
X156233200Y-34511800D03*
%TO.N,/D12*%
X153693200Y-34511800D03*
%TO.N,/D13*%
X156233200Y-31971800D03*
%TO.N,/D14*%
X153693200Y-29431800D03*
%TO.N,/D15*%
X153693200Y-31971800D03*
%TO.N,/~{CS0}*%
X151153200Y-29431800D03*
%TO.N,/A11*%
X151153200Y-31971800D03*
%TO.N,/~{UDS}*%
X148613200Y-29431800D03*
%TO.N,unconnected-(U5-Pad26)*%
X148613200Y-31971800D03*
%TO.N,/A12*%
X146073200Y-29431800D03*
%TO.N,/A10*%
X146073200Y-31971800D03*
%TO.N,/A9*%
X143533200Y-29431800D03*
%TO.N,unconnected-(U5-Pad30)*%
X140993200Y-31971800D03*
%TO.N,Net-(U5-Pad31)*%
X143533200Y-31971800D03*
%TO.N,VCC*%
X140993200Y-34511800D03*
%TD*%
D14*
%TO.N,unconnected-(U4-Pad1)*%
%TO.C,U4*%
X143533200Y-14401800D03*
D15*
%TO.N,unconnected-(U4-Pad2)*%
X140993200Y-16941800D03*
%TO.N,/A13*%
X143533200Y-16941800D03*
%TO.N,/A8*%
X140993200Y-19481800D03*
%TO.N,/A7*%
X143533200Y-22021800D03*
%TO.N,/A6*%
X143533200Y-19481800D03*
%TO.N,/A5*%
X146073200Y-22021800D03*
%TO.N,/A4*%
X146073200Y-19481800D03*
%TO.N,/A3*%
X148613200Y-22021800D03*
%TO.N,/A2*%
X148613200Y-19481800D03*
%TO.N,/A1*%
X151153200Y-22021800D03*
%TO.N,unconnected-(U4-Pad12)*%
X151153200Y-19481800D03*
%TO.N,/D0*%
X153693200Y-22021800D03*
%TO.N,/D1*%
X156233200Y-19481800D03*
%TO.N,/D2*%
X153693200Y-19481800D03*
%TO.N,GND*%
X156233200Y-16941800D03*
%TO.N,unconnected-(U4-Pad17)*%
X153693200Y-16941800D03*
%TO.N,/D3*%
X156233200Y-14401800D03*
%TO.N,/D4*%
X153693200Y-14401800D03*
%TO.N,/D5*%
X156233200Y-11861800D03*
%TO.N,/D6*%
X153693200Y-9321800D03*
%TO.N,/D7*%
X153693200Y-11861800D03*
%TO.N,/~{CS0}*%
X151153200Y-9321800D03*
%TO.N,/A11*%
X151153200Y-11861800D03*
%TO.N,/~{LDS}*%
X148613200Y-9321800D03*
%TO.N,unconnected-(U4-Pad26)*%
X148613200Y-11861800D03*
%TO.N,/A12*%
X146073200Y-9321800D03*
%TO.N,/A10*%
X146073200Y-11861800D03*
%TO.N,/A9*%
X143533200Y-9321800D03*
%TO.N,unconnected-(U4-Pad30)*%
X140993200Y-11861800D03*
%TO.N,Net-(U4-Pad31)*%
X143533200Y-11861800D03*
%TO.N,VCC*%
X140993200Y-14401800D03*
%TD*%
M02*
