%TF.GenerationSoftware,KiCad,Pcbnew,(6.0.7)*%
%TF.CreationDate,2023-04-14T14:37:01-06:00*%
%TF.ProjectId,mc68302-cpu-card,6d633638-3330-4322-9d63-70752d636172,rev?*%
%TF.SameCoordinates,Original*%
%TF.FileFunction,Paste,Top*%
%TF.FilePolarity,Positive*%
%FSLAX46Y46*%
G04 Gerber Fmt 4.6, Leading zero omitted, Abs format (unit mm)*
G04 Created by KiCad (PCBNEW (6.0.7)) date 2023-04-14 14:37:01*
%MOMM*%
%LPD*%
G01*
G04 APERTURE LIST*
G04 Aperture macros list*
%AMRoundRect*
0 Rectangle with rounded corners*
0 $1 Rounding radius*
0 $2 $3 $4 $5 $6 $7 $8 $9 X,Y pos of 4 corners*
0 Add a 4 corners polygon primitive as box body*
4,1,4,$2,$3,$4,$5,$6,$7,$8,$9,$2,$3,0*
0 Add four circle primitives for the rounded corners*
1,1,$1+$1,$2,$3*
1,1,$1+$1,$4,$5*
1,1,$1+$1,$6,$7*
1,1,$1+$1,$8,$9*
0 Add four rect primitives between the rounded corners*
20,1,$1+$1,$2,$3,$4,$5,0*
20,1,$1+$1,$4,$5,$6,$7,0*
20,1,$1+$1,$6,$7,$8,$9,0*
20,1,$1+$1,$8,$9,$2,$3,0*%
G04 Aperture macros list end*
%ADD10R,2.500000X2.300000*%
%ADD11RoundRect,0.150000X-0.825000X-0.150000X0.825000X-0.150000X0.825000X0.150000X-0.825000X0.150000X0*%
%ADD12R,2.400000X2.000000*%
%ADD13RoundRect,0.150000X0.825000X0.150000X-0.825000X0.150000X-0.825000X-0.150000X0.825000X-0.150000X0*%
%ADD14RoundRect,0.250000X0.450000X-0.262500X0.450000X0.262500X-0.450000X0.262500X-0.450000X-0.262500X0*%
%ADD15RoundRect,0.250000X0.262500X0.450000X-0.262500X0.450000X-0.262500X-0.450000X0.262500X-0.450000X0*%
%ADD16RoundRect,0.250000X-0.262500X-0.450000X0.262500X-0.450000X0.262500X0.450000X-0.262500X0.450000X0*%
%ADD17RoundRect,0.250000X-0.450000X0.262500X-0.450000X-0.262500X0.450000X-0.262500X0.450000X0.262500X0*%
%ADD18RoundRect,0.250000X0.475000X-0.250000X0.475000X0.250000X-0.475000X0.250000X-0.475000X-0.250000X0*%
%ADD19RoundRect,0.250000X-0.475000X0.250000X-0.475000X-0.250000X0.475000X-0.250000X0.475000X0.250000X0*%
%ADD20RoundRect,0.250000X0.250000X0.475000X-0.250000X0.475000X-0.250000X-0.475000X0.250000X-0.475000X0*%
%ADD21RoundRect,0.250000X-0.250000X-0.475000X0.250000X-0.475000X0.250000X0.475000X-0.250000X0.475000X0*%
%ADD22O,0.250000X1.500000*%
%ADD23O,1.500000X0.250000*%
G04 APERTURE END LIST*
D10*
%TO.C,D1*%
X85607000Y-23799800D03*
X89907000Y-23799800D03*
%TD*%
D11*
%TO.C,U6*%
X126811000Y-71379000D03*
X126811000Y-72649000D03*
X126811000Y-73919000D03*
X126811000Y-75189000D03*
X126811000Y-76459000D03*
X126811000Y-77729000D03*
X126811000Y-78999000D03*
X131761000Y-78999000D03*
X131761000Y-77729000D03*
X131761000Y-76459000D03*
X131761000Y-75189000D03*
X131761000Y-73919000D03*
X131761000Y-72649000D03*
X131761000Y-71379000D03*
%TD*%
D12*
%TO.C,Y1*%
X88112600Y-29519000D03*
X88112600Y-33219000D03*
%TD*%
D11*
%TO.C,U7*%
X126811000Y-60076000D03*
X126811000Y-61346000D03*
X126811000Y-62616000D03*
X126811000Y-63886000D03*
X126811000Y-65156000D03*
X126811000Y-66426000D03*
X126811000Y-67696000D03*
X131761000Y-67696000D03*
X131761000Y-66426000D03*
X131761000Y-65156000D03*
X131761000Y-63886000D03*
X131761000Y-62616000D03*
X131761000Y-61346000D03*
X131761000Y-60076000D03*
%TD*%
D13*
%TO.C,U3*%
X88835000Y-18542000D03*
X88835000Y-17272000D03*
X88835000Y-16002000D03*
X88835000Y-14732000D03*
X83885000Y-14732000D03*
X83885000Y-16002000D03*
X83885000Y-17272000D03*
X83885000Y-18542000D03*
%TD*%
%TO.C,U2*%
X83885000Y-10287000D03*
X83885000Y-9017000D03*
X83885000Y-7747000D03*
X83885000Y-6477000D03*
X83885000Y-5207000D03*
X83885000Y-3937000D03*
X83885000Y-2667000D03*
X88835000Y-2667000D03*
X88835000Y-3937000D03*
X88835000Y-5207000D03*
X88835000Y-6477000D03*
X88835000Y-7747000D03*
X88835000Y-9017000D03*
X88835000Y-10287000D03*
%TD*%
D14*
%TO.C,R18*%
X136652000Y-33805500D03*
X136652000Y-31980500D03*
%TD*%
%TO.C,R17*%
X116840000Y-58956500D03*
X116840000Y-57131500D03*
%TD*%
%TO.C,R16*%
X136652000Y-13637900D03*
X136652000Y-11812900D03*
%TD*%
%TO.C,R15*%
X116840000Y-82578500D03*
X116840000Y-80753500D03*
%TD*%
D15*
%TO.C,R14*%
X81684500Y-16764000D03*
X79859500Y-16764000D03*
%TD*%
%TO.C,R13*%
X92733500Y-14960600D03*
X90908500Y-14960600D03*
%TD*%
%TO.C,R12*%
X92733500Y-17018000D03*
X90908500Y-17018000D03*
%TD*%
D16*
%TO.C,R11*%
X94007300Y-21209000D03*
X95832300Y-21209000D03*
%TD*%
D14*
%TO.C,R10*%
X97764600Y-25575900D03*
X97764600Y-23750900D03*
%TD*%
D17*
%TO.C,R9*%
X97815400Y-7799700D03*
X97815400Y-9624700D03*
%TD*%
D16*
%TO.C,R8*%
X94007300Y-25171400D03*
X95832300Y-25171400D03*
%TD*%
D17*
%TO.C,R7*%
X95275400Y-6936100D03*
X95275400Y-8761100D03*
%TD*%
D14*
%TO.C,R6*%
X95681800Y-19327500D03*
X95681800Y-17502500D03*
%TD*%
D16*
%TO.C,R5*%
X94007300Y-23190200D03*
X95832300Y-23190200D03*
%TD*%
D17*
%TO.C,R4*%
X95783400Y-12879700D03*
X95783400Y-14704700D03*
%TD*%
D14*
%TO.C,R3*%
X91109800Y-32129100D03*
X91109800Y-30304100D03*
%TD*%
D17*
%TO.C,R2*%
X97815400Y-17502500D03*
X97815400Y-19327500D03*
%TD*%
D14*
%TO.C,R1*%
X92887800Y-8761100D03*
X92887800Y-6936100D03*
%TD*%
D18*
%TO.C,C21*%
X121920000Y-58994000D03*
X121920000Y-57094000D03*
%TD*%
%TO.C,C20*%
X121920000Y-82616000D03*
X121920000Y-80716000D03*
%TD*%
%TO.C,C19*%
X161340800Y-23835400D03*
X161340800Y-21935400D03*
%TD*%
%TO.C,C18*%
X161950400Y-44765000D03*
X161950400Y-42865000D03*
%TD*%
D19*
%TO.C,C17*%
X134112000Y-59456200D03*
X134112000Y-61356200D03*
%TD*%
D18*
%TO.C,C16*%
X134112000Y-72786200D03*
X134112000Y-70886200D03*
%TD*%
D20*
%TO.C,C15*%
X85506600Y-20447000D03*
X83606600Y-20447000D03*
%TD*%
D21*
%TO.C,C14*%
X79822000Y-18796000D03*
X81722000Y-18796000D03*
%TD*%
%TO.C,C13*%
X90871000Y-19050000D03*
X92771000Y-19050000D03*
%TD*%
D20*
%TO.C,C12*%
X81722000Y-14732000D03*
X79822000Y-14732000D03*
%TD*%
%TO.C,C11*%
X85303400Y-29489400D03*
X83403400Y-29489400D03*
%TD*%
%TO.C,C10*%
X85303400Y-33248600D03*
X83403400Y-33248600D03*
%TD*%
D18*
%TO.C,C9*%
X97612200Y-30998200D03*
X97612200Y-29098200D03*
%TD*%
D19*
%TO.C,C8*%
X97815400Y-12842200D03*
X97815400Y-14742200D03*
%TD*%
%TO.C,C7*%
X102844600Y-5395000D03*
X102844600Y-3495000D03*
%TD*%
%TO.C,C6*%
X110363000Y-3495000D03*
X110363000Y-5395000D03*
%TD*%
%TO.C,C5*%
X117068600Y-3495000D03*
X117068600Y-5395000D03*
%TD*%
D20*
%TO.C,C4*%
X129783800Y-18008600D03*
X131683800Y-18008600D03*
%TD*%
%TO.C,C3*%
X131734600Y-25069800D03*
X129834600Y-25069800D03*
%TD*%
D18*
%TO.C,C2*%
X129921000Y-33843000D03*
X129921000Y-31943000D03*
%TD*%
D21*
%TO.C,C1*%
X83881000Y-12192000D03*
X81981000Y-12192000D03*
%TD*%
D22*
%TO.C,U1*%
X113868200Y-35181500D03*
X114508200Y-35181500D03*
X115148200Y-35181500D03*
X115788200Y-35181500D03*
X116428200Y-35181500D03*
X117068200Y-35181500D03*
X117708200Y-35181500D03*
X118348200Y-35181500D03*
X118988200Y-35181500D03*
X119628200Y-35181500D03*
X120268200Y-35181500D03*
X120908200Y-35181500D03*
X121548200Y-35181500D03*
X122188200Y-35181500D03*
X122828200Y-35181500D03*
X123468200Y-35181500D03*
X124108200Y-35181500D03*
D23*
X127840700Y-31449000D03*
X127840700Y-30809000D03*
X127840700Y-30169000D03*
X127840700Y-29529000D03*
X127840700Y-28889000D03*
X127840700Y-28249000D03*
X127840700Y-27609000D03*
X127840700Y-26969000D03*
X127840700Y-26329000D03*
X127840700Y-25689000D03*
X127840700Y-25049000D03*
X127840700Y-24409000D03*
X127840700Y-23769000D03*
X127840700Y-23129000D03*
X127840700Y-22489000D03*
X127840700Y-21849000D03*
X127840700Y-21209000D03*
X127840700Y-20569000D03*
X127840700Y-19929000D03*
X127840700Y-19289000D03*
X127840700Y-18649000D03*
X127840700Y-18009000D03*
X127840700Y-17369000D03*
X127840700Y-16729000D03*
X127840700Y-16089000D03*
X127840700Y-15449000D03*
X127840700Y-14809000D03*
X127840700Y-14169000D03*
X127840700Y-13529000D03*
X127840700Y-12889000D03*
X127840700Y-12249000D03*
X127840700Y-11609000D03*
X127840700Y-10969000D03*
D22*
X124108200Y-7236500D03*
X123468200Y-7236500D03*
X122828200Y-7236500D03*
X122188200Y-7236500D03*
X121548200Y-7236500D03*
X120908200Y-7236500D03*
X120268200Y-7236500D03*
X119628200Y-7236500D03*
X118988200Y-7236500D03*
X118348200Y-7236500D03*
X117708200Y-7236500D03*
X117068200Y-7236500D03*
X116428200Y-7236500D03*
X115788200Y-7236500D03*
X115148200Y-7236500D03*
X114508200Y-7236500D03*
X113868200Y-7236500D03*
X113228200Y-7236500D03*
X112588200Y-7236500D03*
X111948200Y-7236500D03*
X111308200Y-7236500D03*
X110668200Y-7236500D03*
X110028200Y-7236500D03*
X109388200Y-7236500D03*
X108748200Y-7236500D03*
X108108200Y-7236500D03*
X107468200Y-7236500D03*
X106828200Y-7236500D03*
X106188200Y-7236500D03*
X105548200Y-7236500D03*
X104908200Y-7236500D03*
X104268200Y-7236500D03*
X103628200Y-7236500D03*
D23*
X99895700Y-10969000D03*
X99895700Y-11609000D03*
X99895700Y-12249000D03*
X99895700Y-12889000D03*
X99895700Y-13529000D03*
X99895700Y-14169000D03*
X99895700Y-14809000D03*
X99895700Y-15449000D03*
X99895700Y-16089000D03*
X99895700Y-16729000D03*
X99895700Y-17369000D03*
X99895700Y-18009000D03*
X99895700Y-18649000D03*
X99895700Y-19289000D03*
X99895700Y-19929000D03*
X99895700Y-20569000D03*
X99895700Y-21209000D03*
X99895700Y-21849000D03*
X99895700Y-22489000D03*
X99895700Y-23129000D03*
X99895700Y-23769000D03*
X99895700Y-24409000D03*
X99895700Y-25049000D03*
X99895700Y-25689000D03*
X99895700Y-26329000D03*
X99895700Y-26969000D03*
X99895700Y-27609000D03*
X99895700Y-28249000D03*
X99895700Y-28889000D03*
X99895700Y-29529000D03*
X99895700Y-30169000D03*
X99895700Y-30809000D03*
X99895700Y-31449000D03*
D22*
X103628200Y-35181500D03*
X104268200Y-35181500D03*
X104908200Y-35181500D03*
X105548200Y-35181500D03*
X106188200Y-35181500D03*
X106828200Y-35181500D03*
X107468200Y-35181500D03*
X108108200Y-35181500D03*
X108748200Y-35181500D03*
X109388200Y-35181500D03*
X110028200Y-35181500D03*
X110668200Y-35181500D03*
X111308200Y-35181500D03*
X111948200Y-35181500D03*
X112588200Y-35181500D03*
X113228200Y-35181500D03*
%TD*%
M02*
