%TF.GenerationSoftware,KiCad,Pcbnew,(6.0.7)*%
%TF.CreationDate,2023-04-14T14:37:02-06:00*%
%TF.ProjectId,mc68302-cpu-card,6d633638-3330-4322-9d63-70752d636172,rev?*%
%TF.SameCoordinates,Original*%
%TF.FileFunction,Soldermask,Bot*%
%TF.FilePolarity,Negative*%
%FSLAX46Y46*%
G04 Gerber Fmt 4.6, Leading zero omitted, Abs format (unit mm)*
G04 Created by KiCad (PCBNEW (6.0.7)) date 2023-04-14 14:37:02*
%MOMM*%
%LPD*%
G01*
G04 APERTURE LIST*
%ADD10C,1.498600*%
%ADD11C,2.997200*%
%ADD12R,1.600000X1.600000*%
%ADD13O,1.600000X1.600000*%
%ADD14R,1.422400X1.422400*%
%ADD15C,1.422400*%
G04 APERTURE END LIST*
D10*
%TO.C,BUS1*%
X89789000Y-88861900D03*
X92329000Y-88861900D03*
X94869000Y-88861900D03*
X97409000Y-88861900D03*
X99949000Y-88861900D03*
X102489000Y-88861900D03*
X105029000Y-88861900D03*
X107569000Y-88861900D03*
X110109000Y-88861900D03*
X112649000Y-88861900D03*
X115189000Y-88861900D03*
X117729000Y-88861900D03*
X120269000Y-88861900D03*
X122809000Y-88861900D03*
X125349000Y-88861900D03*
X127889000Y-88861900D03*
X130429000Y-88861900D03*
X132969000Y-88861900D03*
X135509000Y-88861900D03*
X138049000Y-88861900D03*
X140589000Y-88861900D03*
X143129000Y-88861900D03*
X145669000Y-88861900D03*
X148209000Y-88861900D03*
X150749000Y-88861900D03*
X153289000Y-88861900D03*
X155829000Y-88861900D03*
X158369000Y-88861900D03*
X160909000Y-88861900D03*
X163449000Y-88861900D03*
X165989000Y-88861900D03*
X168529000Y-88861900D03*
X89789000Y-91401900D03*
X92329000Y-91401900D03*
X94869000Y-91401900D03*
X97409000Y-91401900D03*
X99949000Y-91401900D03*
X102489000Y-91401900D03*
X105029000Y-91401900D03*
X107569000Y-91401900D03*
X110109000Y-91401900D03*
X112649000Y-91401900D03*
X115189000Y-91401900D03*
X117729000Y-91401900D03*
X120269000Y-91401900D03*
X122809000Y-91401900D03*
X125349000Y-91401900D03*
X127889000Y-91401900D03*
X130429000Y-91401900D03*
X132969000Y-91401900D03*
X135509000Y-91401900D03*
X138049000Y-91401900D03*
X140589000Y-91401900D03*
X143129000Y-91401900D03*
X145669000Y-91401900D03*
X148209000Y-91401900D03*
X150749000Y-91401900D03*
X153289000Y-91401900D03*
X155829000Y-91401900D03*
X158369000Y-91401900D03*
X160909000Y-91401900D03*
X163449000Y-91401900D03*
X165989000Y-91401900D03*
X168529000Y-91401900D03*
X89789000Y-93941900D03*
X92329000Y-93941900D03*
X94869000Y-93941900D03*
X97409000Y-93941900D03*
X99949000Y-93941900D03*
X102489000Y-93941900D03*
X105029000Y-93941900D03*
X107569000Y-93941900D03*
X110109000Y-93941900D03*
X112649000Y-93941900D03*
X115189000Y-93941900D03*
X117729000Y-93941900D03*
X120269000Y-93941900D03*
X122809000Y-93941900D03*
X125349000Y-93941900D03*
X127889000Y-93941900D03*
X130429000Y-93941900D03*
X132969000Y-93941900D03*
X135509000Y-93941900D03*
X138049000Y-93941900D03*
X140589000Y-93941900D03*
X143129000Y-93941900D03*
X145669000Y-93941900D03*
X148209000Y-93941900D03*
X150749000Y-93941900D03*
X153289000Y-93941900D03*
X155829000Y-93941900D03*
X158369000Y-93941900D03*
X160909000Y-93941900D03*
X163449000Y-93941900D03*
X165989000Y-93941900D03*
X168529000Y-93941900D03*
D11*
X84709000Y-96481900D03*
X173609000Y-96481900D03*
%TD*%
D12*
%TO.C,U8*%
X121920000Y-62992000D03*
D13*
X119380000Y-62992000D03*
X116840000Y-62992000D03*
X114300000Y-62992000D03*
X111760000Y-62992000D03*
X109220000Y-62992000D03*
X106680000Y-62992000D03*
X104140000Y-62992000D03*
X101600000Y-62992000D03*
X99060000Y-62992000D03*
X96520000Y-62992000D03*
X93980000Y-62992000D03*
X91440000Y-62992000D03*
X88900000Y-62992000D03*
X86360000Y-62992000D03*
X83820000Y-62992000D03*
X83820000Y-78232000D03*
X86360000Y-78232000D03*
X88900000Y-78232000D03*
X91440000Y-78232000D03*
X93980000Y-78232000D03*
X96520000Y-78232000D03*
X99060000Y-78232000D03*
X101600000Y-78232000D03*
X104140000Y-78232000D03*
X106680000Y-78232000D03*
X109220000Y-78232000D03*
X111760000Y-78232000D03*
X114300000Y-78232000D03*
X116840000Y-78232000D03*
X119380000Y-78232000D03*
X121920000Y-78232000D03*
%TD*%
%TO.C,U9*%
X121920000Y-54610000D03*
X119380000Y-54610000D03*
X116840000Y-54610000D03*
X114300000Y-54610000D03*
X111760000Y-54610000D03*
X109220000Y-54610000D03*
X106680000Y-54610000D03*
X104140000Y-54610000D03*
X101600000Y-54610000D03*
X99060000Y-54610000D03*
X96520000Y-54610000D03*
X93980000Y-54610000D03*
X91440000Y-54610000D03*
X88900000Y-54610000D03*
X86360000Y-54610000D03*
X83820000Y-54610000D03*
X83820000Y-39370000D03*
X86360000Y-39370000D03*
X88900000Y-39370000D03*
X91440000Y-39370000D03*
X93980000Y-39370000D03*
X96520000Y-39370000D03*
X99060000Y-39370000D03*
X101600000Y-39370000D03*
X104140000Y-39370000D03*
X106680000Y-39370000D03*
X109220000Y-39370000D03*
X111760000Y-39370000D03*
X114300000Y-39370000D03*
X116840000Y-39370000D03*
X119380000Y-39370000D03*
D12*
X121920000Y-39370000D03*
%TD*%
D14*
%TO.C,U5*%
X143533200Y-34511800D03*
D15*
X140993200Y-37051800D03*
X143533200Y-37051800D03*
X140993200Y-39591800D03*
X143533200Y-42131800D03*
X143533200Y-39591800D03*
X146073200Y-42131800D03*
X146073200Y-39591800D03*
X148613200Y-42131800D03*
X148613200Y-39591800D03*
X151153200Y-42131800D03*
X151153200Y-39591800D03*
X153693200Y-42131800D03*
X156233200Y-39591800D03*
X153693200Y-39591800D03*
X156233200Y-37051800D03*
X153693200Y-37051800D03*
X156233200Y-34511800D03*
X153693200Y-34511800D03*
X156233200Y-31971800D03*
X153693200Y-29431800D03*
X153693200Y-31971800D03*
X151153200Y-29431800D03*
X151153200Y-31971800D03*
X148613200Y-29431800D03*
X148613200Y-31971800D03*
X146073200Y-29431800D03*
X146073200Y-31971800D03*
X143533200Y-29431800D03*
X140993200Y-31971800D03*
X143533200Y-31971800D03*
X140993200Y-34511800D03*
%TD*%
D14*
%TO.C,U4*%
X143533200Y-14401800D03*
D15*
X140993200Y-16941800D03*
X143533200Y-16941800D03*
X140993200Y-19481800D03*
X143533200Y-22021800D03*
X143533200Y-19481800D03*
X146073200Y-22021800D03*
X146073200Y-19481800D03*
X148613200Y-22021800D03*
X148613200Y-19481800D03*
X151153200Y-22021800D03*
X151153200Y-19481800D03*
X153693200Y-22021800D03*
X156233200Y-19481800D03*
X153693200Y-19481800D03*
X156233200Y-16941800D03*
X153693200Y-16941800D03*
X156233200Y-14401800D03*
X153693200Y-14401800D03*
X156233200Y-11861800D03*
X153693200Y-9321800D03*
X153693200Y-11861800D03*
X151153200Y-9321800D03*
X151153200Y-11861800D03*
X148613200Y-9321800D03*
X148613200Y-11861800D03*
X146073200Y-9321800D03*
X146073200Y-11861800D03*
X143533200Y-9321800D03*
X140993200Y-11861800D03*
X143533200Y-11861800D03*
X140993200Y-14401800D03*
%TD*%
M02*
