%TF.GenerationSoftware,KiCad,Pcbnew,(6.0.7)*%
%TF.CreationDate,2023-04-14T14:37:01-06:00*%
%TF.ProjectId,mc68302-cpu-card,6d633638-3330-4322-9d63-70752d636172,rev?*%
%TF.SameCoordinates,Original*%
%TF.FileFunction,Copper,L4,Bot*%
%TF.FilePolarity,Positive*%
%FSLAX46Y46*%
G04 Gerber Fmt 4.6, Leading zero omitted, Abs format (unit mm)*
G04 Created by KiCad (PCBNEW (6.0.7)) date 2023-04-14 14:37:01*
%MOMM*%
%LPD*%
G01*
G04 APERTURE LIST*
%TA.AperFunction,ComponentPad*%
%ADD10C,1.498600*%
%TD*%
%TA.AperFunction,ComponentPad*%
%ADD11C,2.997200*%
%TD*%
%TA.AperFunction,ComponentPad*%
%ADD12R,1.600000X1.600000*%
%TD*%
%TA.AperFunction,ComponentPad*%
%ADD13O,1.600000X1.600000*%
%TD*%
%TA.AperFunction,ComponentPad*%
%ADD14R,1.422400X1.422400*%
%TD*%
%TA.AperFunction,ComponentPad*%
%ADD15C,1.422400*%
%TD*%
G04 APERTURE END LIST*
D10*
%TO.P,BUS1,1,1*%
%TO.N,unconnected-(BUS1-Pad1)*%
X89789000Y-88861900D03*
%TO.P,BUS1,2,2*%
%TO.N,unconnected-(BUS1-Pad2)*%
X92329000Y-88861900D03*
%TO.P,BUS1,3,3*%
%TO.N,unconnected-(BUS1-Pad3)*%
X94869000Y-88861900D03*
%TO.P,BUS1,4,4*%
%TO.N,unconnected-(BUS1-Pad4)*%
X97409000Y-88861900D03*
%TO.P,BUS1,5,5*%
%TO.N,unconnected-(BUS1-Pad5)*%
X99949000Y-88861900D03*
%TO.P,BUS1,6,6*%
%TO.N,unconnected-(BUS1-Pad6)*%
X102489000Y-88861900D03*
%TO.P,BUS1,7,7*%
%TO.N,unconnected-(BUS1-Pad7)*%
X105029000Y-88861900D03*
%TO.P,BUS1,8,8*%
%TO.N,unconnected-(BUS1-Pad8)*%
X107569000Y-88861900D03*
%TO.P,BUS1,9,9*%
%TO.N,unconnected-(BUS1-Pad9)*%
X110109000Y-88861900D03*
%TO.P,BUS1,10,10*%
%TO.N,unconnected-(BUS1-Pad10)*%
X112649000Y-88861900D03*
%TO.P,BUS1,11,11*%
%TO.N,unconnected-(BUS1-Pad11)*%
X115189000Y-88861900D03*
%TO.P,BUS1,12,12*%
%TO.N,unconnected-(BUS1-Pad12)*%
X117729000Y-88861900D03*
%TO.P,BUS1,13,13*%
%TO.N,unconnected-(BUS1-Pad13)*%
X120269000Y-88861900D03*
%TO.P,BUS1,14,14*%
%TO.N,unconnected-(BUS1-Pad14)*%
X122809000Y-88861900D03*
%TO.P,BUS1,15,15*%
%TO.N,unconnected-(BUS1-Pad15)*%
X125349000Y-88861900D03*
%TO.P,BUS1,16,16*%
%TO.N,unconnected-(BUS1-Pad16)*%
X127889000Y-88861900D03*
%TO.P,BUS1,17,17*%
%TO.N,unconnected-(BUS1-Pad17)*%
X130429000Y-88861900D03*
%TO.P,BUS1,18,18*%
%TO.N,unconnected-(BUS1-Pad18)*%
X132969000Y-88861900D03*
%TO.P,BUS1,19,19*%
%TO.N,unconnected-(BUS1-Pad19)*%
X135509000Y-88861900D03*
%TO.P,BUS1,20,20*%
%TO.N,unconnected-(BUS1-Pad20)*%
X138049000Y-88861900D03*
%TO.P,BUS1,21,21*%
%TO.N,unconnected-(BUS1-Pad21)*%
X140589000Y-88861900D03*
%TO.P,BUS1,22,22*%
%TO.N,unconnected-(BUS1-Pad22)*%
X143129000Y-88861900D03*
%TO.P,BUS1,23,23*%
%TO.N,unconnected-(BUS1-Pad23)*%
X145669000Y-88861900D03*
%TO.P,BUS1,24,24*%
%TO.N,unconnected-(BUS1-Pad24)*%
X148209000Y-88861900D03*
%TO.P,BUS1,25,25*%
%TO.N,unconnected-(BUS1-Pad25)*%
X150749000Y-88861900D03*
%TO.P,BUS1,26,26*%
%TO.N,unconnected-(BUS1-Pad26)*%
X153289000Y-88861900D03*
%TO.P,BUS1,27,27*%
%TO.N,unconnected-(BUS1-Pad27)*%
X155829000Y-88861900D03*
%TO.P,BUS1,28,28*%
%TO.N,unconnected-(BUS1-Pad28)*%
X158369000Y-88861900D03*
%TO.P,BUS1,29,29*%
%TO.N,unconnected-(BUS1-Pad29)*%
X160909000Y-88861900D03*
%TO.P,BUS1,30,30*%
%TO.N,unconnected-(BUS1-Pad30)*%
X163449000Y-88861900D03*
%TO.P,BUS1,31,31*%
%TO.N,unconnected-(BUS1-Pad31)*%
X165989000Y-88861900D03*
%TO.P,BUS1,32,32*%
%TO.N,unconnected-(BUS1-Pad32)*%
X168529000Y-88861900D03*
%TO.P,BUS1,33,33*%
%TO.N,unconnected-(BUS1-Pad33)*%
X89789000Y-91401900D03*
%TO.P,BUS1,34,34*%
%TO.N,unconnected-(BUS1-Pad34)*%
X92329000Y-91401900D03*
%TO.P,BUS1,35,35*%
%TO.N,unconnected-(BUS1-Pad35)*%
X94869000Y-91401900D03*
%TO.P,BUS1,36,36*%
%TO.N,unconnected-(BUS1-Pad36)*%
X97409000Y-91401900D03*
%TO.P,BUS1,37,37*%
%TO.N,unconnected-(BUS1-Pad37)*%
X99949000Y-91401900D03*
%TO.P,BUS1,38,38*%
%TO.N,unconnected-(BUS1-Pad38)*%
X102489000Y-91401900D03*
%TO.P,BUS1,39,39*%
%TO.N,unconnected-(BUS1-Pad39)*%
X105029000Y-91401900D03*
%TO.P,BUS1,40,40*%
%TO.N,unconnected-(BUS1-Pad40)*%
X107569000Y-91401900D03*
%TO.P,BUS1,41,41*%
%TO.N,unconnected-(BUS1-Pad41)*%
X110109000Y-91401900D03*
%TO.P,BUS1,42,42*%
%TO.N,unconnected-(BUS1-Pad42)*%
X112649000Y-91401900D03*
%TO.P,BUS1,43,43*%
%TO.N,unconnected-(BUS1-Pad43)*%
X115189000Y-91401900D03*
%TO.P,BUS1,44,44*%
%TO.N,unconnected-(BUS1-Pad44)*%
X117729000Y-91401900D03*
%TO.P,BUS1,45,45*%
%TO.N,unconnected-(BUS1-Pad45)*%
X120269000Y-91401900D03*
%TO.P,BUS1,46,46*%
%TO.N,unconnected-(BUS1-Pad46)*%
X122809000Y-91401900D03*
%TO.P,BUS1,47,47*%
%TO.N,unconnected-(BUS1-Pad47)*%
X125349000Y-91401900D03*
%TO.P,BUS1,48,48*%
%TO.N,unconnected-(BUS1-Pad48)*%
X127889000Y-91401900D03*
%TO.P,BUS1,49,49*%
%TO.N,unconnected-(BUS1-Pad49)*%
X130429000Y-91401900D03*
%TO.P,BUS1,50,50*%
%TO.N,unconnected-(BUS1-Pad50)*%
X132969000Y-91401900D03*
%TO.P,BUS1,51,51*%
%TO.N,unconnected-(BUS1-Pad51)*%
X135509000Y-91401900D03*
%TO.P,BUS1,52,52*%
%TO.N,unconnected-(BUS1-Pad52)*%
X138049000Y-91401900D03*
%TO.P,BUS1,53,53*%
%TO.N,unconnected-(BUS1-Pad53)*%
X140589000Y-91401900D03*
%TO.P,BUS1,54,54*%
%TO.N,unconnected-(BUS1-Pad54)*%
X143129000Y-91401900D03*
%TO.P,BUS1,55,55*%
%TO.N,unconnected-(BUS1-Pad55)*%
X145669000Y-91401900D03*
%TO.P,BUS1,56,56*%
%TO.N,unconnected-(BUS1-Pad56)*%
X148209000Y-91401900D03*
%TO.P,BUS1,57,57*%
%TO.N,unconnected-(BUS1-Pad57)*%
X150749000Y-91401900D03*
%TO.P,BUS1,58,58*%
%TO.N,unconnected-(BUS1-Pad58)*%
X153289000Y-91401900D03*
%TO.P,BUS1,59,59*%
%TO.N,unconnected-(BUS1-Pad59)*%
X155829000Y-91401900D03*
%TO.P,BUS1,60,60*%
%TO.N,unconnected-(BUS1-Pad60)*%
X158369000Y-91401900D03*
%TO.P,BUS1,61,61*%
%TO.N,unconnected-(BUS1-Pad61)*%
X160909000Y-91401900D03*
%TO.P,BUS1,62,62*%
%TO.N,unconnected-(BUS1-Pad62)*%
X163449000Y-91401900D03*
%TO.P,BUS1,63,63*%
%TO.N,unconnected-(BUS1-Pad63)*%
X165989000Y-91401900D03*
%TO.P,BUS1,64,64*%
%TO.N,unconnected-(BUS1-Pad64)*%
X168529000Y-91401900D03*
%TO.P,BUS1,65,65*%
%TO.N,unconnected-(BUS1-Pad65)*%
X89789000Y-93941900D03*
%TO.P,BUS1,66,66*%
%TO.N,unconnected-(BUS1-Pad66)*%
X92329000Y-93941900D03*
%TO.P,BUS1,67,67*%
%TO.N,unconnected-(BUS1-Pad67)*%
X94869000Y-93941900D03*
%TO.P,BUS1,68,68*%
%TO.N,unconnected-(BUS1-Pad68)*%
X97409000Y-93941900D03*
%TO.P,BUS1,69,69*%
%TO.N,unconnected-(BUS1-Pad69)*%
X99949000Y-93941900D03*
%TO.P,BUS1,70,70*%
%TO.N,unconnected-(BUS1-Pad70)*%
X102489000Y-93941900D03*
%TO.P,BUS1,71,71*%
%TO.N,unconnected-(BUS1-Pad71)*%
X105029000Y-93941900D03*
%TO.P,BUS1,72,72*%
%TO.N,unconnected-(BUS1-Pad72)*%
X107569000Y-93941900D03*
%TO.P,BUS1,73,73*%
%TO.N,unconnected-(BUS1-Pad73)*%
X110109000Y-93941900D03*
%TO.P,BUS1,74,74*%
%TO.N,unconnected-(BUS1-Pad74)*%
X112649000Y-93941900D03*
%TO.P,BUS1,75,75*%
%TO.N,unconnected-(BUS1-Pad75)*%
X115189000Y-93941900D03*
%TO.P,BUS1,76,76*%
%TO.N,unconnected-(BUS1-Pad76)*%
X117729000Y-93941900D03*
%TO.P,BUS1,77,77*%
%TO.N,unconnected-(BUS1-Pad77)*%
X120269000Y-93941900D03*
%TO.P,BUS1,78,78*%
%TO.N,unconnected-(BUS1-Pad78)*%
X122809000Y-93941900D03*
%TO.P,BUS1,79,79*%
%TO.N,unconnected-(BUS1-Pad79)*%
X125349000Y-93941900D03*
%TO.P,BUS1,80,80*%
%TO.N,unconnected-(BUS1-Pad80)*%
X127889000Y-93941900D03*
%TO.P,BUS1,81,81*%
%TO.N,unconnected-(BUS1-Pad81)*%
X130429000Y-93941900D03*
%TO.P,BUS1,82,82*%
%TO.N,unconnected-(BUS1-Pad82)*%
X132969000Y-93941900D03*
%TO.P,BUS1,83,83*%
%TO.N,unconnected-(BUS1-Pad83)*%
X135509000Y-93941900D03*
%TO.P,BUS1,84,84*%
%TO.N,unconnected-(BUS1-Pad84)*%
X138049000Y-93941900D03*
%TO.P,BUS1,85,85*%
%TO.N,unconnected-(BUS1-Pad85)*%
X140589000Y-93941900D03*
%TO.P,BUS1,86,86*%
%TO.N,unconnected-(BUS1-Pad86)*%
X143129000Y-93941900D03*
%TO.P,BUS1,87,87*%
%TO.N,unconnected-(BUS1-Pad87)*%
X145669000Y-93941900D03*
%TO.P,BUS1,88,88*%
%TO.N,unconnected-(BUS1-Pad88)*%
X148209000Y-93941900D03*
%TO.P,BUS1,89,89*%
%TO.N,unconnected-(BUS1-Pad89)*%
X150749000Y-93941900D03*
%TO.P,BUS1,90,90*%
%TO.N,unconnected-(BUS1-Pad90)*%
X153289000Y-93941900D03*
%TO.P,BUS1,91,91*%
%TO.N,unconnected-(BUS1-Pad91)*%
X155829000Y-93941900D03*
%TO.P,BUS1,92,92*%
%TO.N,unconnected-(BUS1-Pad92)*%
X158369000Y-93941900D03*
%TO.P,BUS1,93,93*%
%TO.N,unconnected-(BUS1-Pad93)*%
X160909000Y-93941900D03*
%TO.P,BUS1,94,94*%
%TO.N,unconnected-(BUS1-Pad94)*%
X163449000Y-93941900D03*
%TO.P,BUS1,95,95*%
%TO.N,unconnected-(BUS1-Pad95)*%
X165989000Y-93941900D03*
%TO.P,BUS1,96,96*%
%TO.N,unconnected-(BUS1-Pad96)*%
X168529000Y-93941900D03*
D11*
%TO.P,BUS1,97*%
%TO.N,N/C*%
X84709000Y-96481900D03*
%TO.P,BUS1,98*%
X173609000Y-96481900D03*
%TD*%
D12*
%TO.P,U8,1,NC*%
%TO.N,unconnected-(U8-Pad1)*%
X121920000Y-62992000D03*
D13*
%TO.P,U8,2,A16*%
%TO.N,/A17*%
X119380000Y-62992000D03*
%TO.P,U8,3,A14*%
%TO.N,/A15*%
X116840000Y-62992000D03*
%TO.P,U8,4,A12*%
%TO.N,/A13*%
X114300000Y-62992000D03*
%TO.P,U8,5,A7*%
%TO.N,/A8*%
X111760000Y-62992000D03*
%TO.P,U8,6,A6*%
%TO.N,/A7*%
X109220000Y-62992000D03*
%TO.P,U8,7,A5*%
%TO.N,/A6*%
X106680000Y-62992000D03*
%TO.P,U8,8,A4*%
%TO.N,/A5*%
X104140000Y-62992000D03*
%TO.P,U8,9,A3*%
%TO.N,/A4*%
X101600000Y-62992000D03*
%TO.P,U8,10,A2*%
%TO.N,/A3*%
X99060000Y-62992000D03*
%TO.P,U8,11,A1*%
%TO.N,/A2*%
X96520000Y-62992000D03*
%TO.P,U8,12,A0*%
%TO.N,/A1*%
X93980000Y-62992000D03*
%TO.P,U8,13,DQ0*%
%TO.N,/D0*%
X91440000Y-62992000D03*
%TO.P,U8,14,DQ1*%
%TO.N,/D1*%
X88900000Y-62992000D03*
%TO.P,U8,15,DQ2*%
%TO.N,/D2*%
X86360000Y-62992000D03*
%TO.P,U8,16,VSS*%
%TO.N,GND*%
X83820000Y-62992000D03*
%TO.P,U8,17,DQ3*%
%TO.N,/D3*%
X83820000Y-78232000D03*
%TO.P,U8,18,DQ4*%
%TO.N,/D4*%
X86360000Y-78232000D03*
%TO.P,U8,19,DQ5*%
%TO.N,/D5*%
X88900000Y-78232000D03*
%TO.P,U8,20,DQ6*%
%TO.N,/D6*%
X91440000Y-78232000D03*
%TO.P,U8,21,DQ7*%
%TO.N,/D7*%
X93980000Y-78232000D03*
%TO.P,U8,22,\u002ACE*%
%TO.N,/~{CS1}*%
X96520000Y-78232000D03*
%TO.P,U8,23,A10*%
%TO.N,/A11*%
X99060000Y-78232000D03*
%TO.P,U8,24,\u002AOE*%
%TO.N,/~{SRAM_LDS_RD}*%
X101600000Y-78232000D03*
%TO.P,U8,25,A11*%
%TO.N,/A12*%
X104140000Y-78232000D03*
%TO.P,U8,26,A9*%
%TO.N,/A10*%
X106680000Y-78232000D03*
%TO.P,U8,27,A8*%
%TO.N,/A9*%
X109220000Y-78232000D03*
%TO.P,U8,28,A13*%
%TO.N,/A14*%
X111760000Y-78232000D03*
%TO.P,U8,29,\u002AWE*%
%TO.N,/~{SRAM_LDS_WR}*%
X114300000Y-78232000D03*
%TO.P,U8,30,CE2*%
%TO.N,Net-(R15-Pad2)*%
X116840000Y-78232000D03*
%TO.P,U8,31,A15*%
%TO.N,/A16*%
X119380000Y-78232000D03*
%TO.P,U8,32,VCC*%
%TO.N,VCC*%
X121920000Y-78232000D03*
%TD*%
%TO.P,U9,32,VCC*%
%TO.N,VCC*%
X121920000Y-54610000D03*
%TO.P,U9,31,A15*%
%TO.N,/A16*%
X119380000Y-54610000D03*
%TO.P,U9,30,CE2*%
%TO.N,Net-(R17-Pad2)*%
X116840000Y-54610000D03*
%TO.P,U9,29,\u002AWE*%
%TO.N,/~{SRAM_UDS_WR}*%
X114300000Y-54610000D03*
%TO.P,U9,28,A13*%
%TO.N,/A14*%
X111760000Y-54610000D03*
%TO.P,U9,27,A8*%
%TO.N,/A9*%
X109220000Y-54610000D03*
%TO.P,U9,26,A9*%
%TO.N,/A10*%
X106680000Y-54610000D03*
%TO.P,U9,25,A11*%
%TO.N,/A12*%
X104140000Y-54610000D03*
%TO.P,U9,24,\u002AOE*%
%TO.N,/~{SRAM_UDS_RD}*%
X101600000Y-54610000D03*
%TO.P,U9,23,A10*%
%TO.N,/A11*%
X99060000Y-54610000D03*
%TO.P,U9,22,\u002ACE*%
%TO.N,/~{CS1}*%
X96520000Y-54610000D03*
%TO.P,U9,21,DQ7*%
%TO.N,/D15*%
X93980000Y-54610000D03*
%TO.P,U9,20,DQ6*%
%TO.N,/D14*%
X91440000Y-54610000D03*
%TO.P,U9,19,DQ5*%
%TO.N,/D13*%
X88900000Y-54610000D03*
%TO.P,U9,18,DQ4*%
%TO.N,/D12*%
X86360000Y-54610000D03*
%TO.P,U9,17,DQ3*%
%TO.N,/D11*%
X83820000Y-54610000D03*
%TO.P,U9,16,VSS*%
%TO.N,GND*%
X83820000Y-39370000D03*
%TO.P,U9,15,DQ2*%
%TO.N,/D10*%
X86360000Y-39370000D03*
%TO.P,U9,14,DQ1*%
%TO.N,/D9*%
X88900000Y-39370000D03*
%TO.P,U9,13,DQ0*%
%TO.N,/D8*%
X91440000Y-39370000D03*
%TO.P,U9,12,A0*%
%TO.N,/A1*%
X93980000Y-39370000D03*
%TO.P,U9,11,A1*%
%TO.N,/A2*%
X96520000Y-39370000D03*
%TO.P,U9,10,A2*%
%TO.N,/A3*%
X99060000Y-39370000D03*
%TO.P,U9,9,A3*%
%TO.N,/A4*%
X101600000Y-39370000D03*
%TO.P,U9,8,A4*%
%TO.N,/A5*%
X104140000Y-39370000D03*
%TO.P,U9,7,A5*%
%TO.N,/A6*%
X106680000Y-39370000D03*
%TO.P,U9,6,A6*%
%TO.N,/A7*%
X109220000Y-39370000D03*
%TO.P,U9,5,A7*%
%TO.N,/A8*%
X111760000Y-39370000D03*
%TO.P,U9,4,A12*%
%TO.N,/A13*%
X114300000Y-39370000D03*
%TO.P,U9,3,A14*%
%TO.N,/A15*%
X116840000Y-39370000D03*
%TO.P,U9,2,A16*%
%TO.N,/A17*%
X119380000Y-39370000D03*
D12*
%TO.P,U9,1,NC*%
%TO.N,unconnected-(U9-Pad1)*%
X121920000Y-39370000D03*
%TD*%
D14*
%TO.P,U5,1,DC*%
%TO.N,unconnected-(U5-Pad1)*%
X143533200Y-34511800D03*
D15*
%TO.P,U5,2,NC*%
%TO.N,unconnected-(U5-Pad2)*%
X140993200Y-37051800D03*
%TO.P,U5,3,A12*%
%TO.N,/A13*%
X143533200Y-37051800D03*
%TO.P,U5,4,A7*%
%TO.N,/A8*%
X140993200Y-39591800D03*
%TO.P,U5,5,A6*%
%TO.N,/A7*%
X143533200Y-42131800D03*
%TO.P,U5,6,A5*%
%TO.N,/A6*%
X143533200Y-39591800D03*
%TO.P,U5,7,A4*%
%TO.N,/A5*%
X146073200Y-42131800D03*
%TO.P,U5,8,A3*%
%TO.N,/A4*%
X146073200Y-39591800D03*
%TO.P,U5,9,A2*%
%TO.N,/A3*%
X148613200Y-42131800D03*
%TO.P,U5,10,A1*%
%TO.N,/A2*%
X148613200Y-39591800D03*
%TO.P,U5,11,A0*%
%TO.N,/A1*%
X151153200Y-42131800D03*
%TO.P,U5,12,NC*%
%TO.N,unconnected-(U5-Pad12)*%
X151153200Y-39591800D03*
%TO.P,U5,13,I/O0*%
%TO.N,/D8*%
X153693200Y-42131800D03*
%TO.P,U5,14,I/O1*%
%TO.N,/D9*%
X156233200Y-39591800D03*
%TO.P,U5,15,I/O2*%
%TO.N,/D10*%
X153693200Y-39591800D03*
%TO.P,U5,16,GND*%
%TO.N,GND*%
X156233200Y-37051800D03*
%TO.P,U5,17,DC*%
%TO.N,unconnected-(U5-Pad17)*%
X153693200Y-37051800D03*
%TO.P,U5,18,I/O3*%
%TO.N,/D11*%
X156233200Y-34511800D03*
%TO.P,U5,19,I/O4*%
%TO.N,/D12*%
X153693200Y-34511800D03*
%TO.P,U5,20,I/O5*%
%TO.N,/D13*%
X156233200Y-31971800D03*
%TO.P,U5,21,I/O6*%
%TO.N,/D14*%
X153693200Y-29431800D03*
%TO.P,U5,22,I/O7*%
%TO.N,/D15*%
X153693200Y-31971800D03*
%TO.P,U5,23,\u002ACE*%
%TO.N,/~{CS0}*%
X151153200Y-29431800D03*
%TO.P,U5,24,A10*%
%TO.N,/A11*%
X151153200Y-31971800D03*
%TO.P,U5,25,\u002AOE*%
%TO.N,/~{UDS}*%
X148613200Y-29431800D03*
%TO.P,U5,26,NC*%
%TO.N,unconnected-(U5-Pad26)*%
X148613200Y-31971800D03*
%TO.P,U5,27,A11*%
%TO.N,/A12*%
X146073200Y-29431800D03*
%TO.P,U5,28,A9*%
%TO.N,/A10*%
X146073200Y-31971800D03*
%TO.P,U5,29,A8*%
%TO.N,/A9*%
X143533200Y-29431800D03*
%TO.P,U5,30,NC*%
%TO.N,unconnected-(U5-Pad30)*%
X140993200Y-31971800D03*
%TO.P,U5,31,\u002AWE*%
%TO.N,Net-(U5-Pad31)*%
X143533200Y-31971800D03*
%TO.P,U5,32,VCC*%
%TO.N,VCC*%
X140993200Y-34511800D03*
%TD*%
D14*
%TO.P,U4,1,DC*%
%TO.N,unconnected-(U4-Pad1)*%
X143533200Y-14401800D03*
D15*
%TO.P,U4,2,NC*%
%TO.N,unconnected-(U4-Pad2)*%
X140993200Y-16941800D03*
%TO.P,U4,3,A12*%
%TO.N,/A13*%
X143533200Y-16941800D03*
%TO.P,U4,4,A7*%
%TO.N,/A8*%
X140993200Y-19481800D03*
%TO.P,U4,5,A6*%
%TO.N,/A7*%
X143533200Y-22021800D03*
%TO.P,U4,6,A5*%
%TO.N,/A6*%
X143533200Y-19481800D03*
%TO.P,U4,7,A4*%
%TO.N,/A5*%
X146073200Y-22021800D03*
%TO.P,U4,8,A3*%
%TO.N,/A4*%
X146073200Y-19481800D03*
%TO.P,U4,9,A2*%
%TO.N,/A3*%
X148613200Y-22021800D03*
%TO.P,U4,10,A1*%
%TO.N,/A2*%
X148613200Y-19481800D03*
%TO.P,U4,11,A0*%
%TO.N,/A1*%
X151153200Y-22021800D03*
%TO.P,U4,12,NC*%
%TO.N,unconnected-(U4-Pad12)*%
X151153200Y-19481800D03*
%TO.P,U4,13,I/O0*%
%TO.N,/D0*%
X153693200Y-22021800D03*
%TO.P,U4,14,I/O1*%
%TO.N,/D1*%
X156233200Y-19481800D03*
%TO.P,U4,15,I/O2*%
%TO.N,/D2*%
X153693200Y-19481800D03*
%TO.P,U4,16,GND*%
%TO.N,GND*%
X156233200Y-16941800D03*
%TO.P,U4,17,DC*%
%TO.N,unconnected-(U4-Pad17)*%
X153693200Y-16941800D03*
%TO.P,U4,18,I/O3*%
%TO.N,/D3*%
X156233200Y-14401800D03*
%TO.P,U4,19,I/O4*%
%TO.N,/D4*%
X153693200Y-14401800D03*
%TO.P,U4,20,I/O5*%
%TO.N,/D5*%
X156233200Y-11861800D03*
%TO.P,U4,21,I/O6*%
%TO.N,/D6*%
X153693200Y-9321800D03*
%TO.P,U4,22,I/O7*%
%TO.N,/D7*%
X153693200Y-11861800D03*
%TO.P,U4,23,\u002ACE*%
%TO.N,/~{CS0}*%
X151153200Y-9321800D03*
%TO.P,U4,24,A10*%
%TO.N,/A11*%
X151153200Y-11861800D03*
%TO.P,U4,25,\u002AOE*%
%TO.N,/~{LDS}*%
X148613200Y-9321800D03*
%TO.P,U4,26,NC*%
%TO.N,unconnected-(U4-Pad26)*%
X148613200Y-11861800D03*
%TO.P,U4,27,A11*%
%TO.N,/A12*%
X146073200Y-9321800D03*
%TO.P,U4,28,A9*%
%TO.N,/A10*%
X146073200Y-11861800D03*
%TO.P,U4,29,A8*%
%TO.N,/A9*%
X143533200Y-9321800D03*
%TO.P,U4,30,NC*%
%TO.N,unconnected-(U4-Pad30)*%
X140993200Y-11861800D03*
%TO.P,U4,31,\u002AWE*%
%TO.N,Net-(U4-Pad31)*%
X143533200Y-11861800D03*
%TO.P,U4,32,VCC*%
%TO.N,VCC*%
X140993200Y-14401800D03*
%TD*%
M02*
