%TF.GenerationSoftware,KiCad,Pcbnew,(6.0.7)*%
%TF.CreationDate,2023-04-17T16:20:31-06:00*%
%TF.ProjectId,Malebolge,4d616c65-626f-46c6-9765-2e6b69636164,rev?*%
%TF.SameCoordinates,Original*%
%TF.FileFunction,Copper,L4,Bot*%
%TF.FilePolarity,Positive*%
%FSLAX46Y46*%
G04 Gerber Fmt 4.6, Leading zero omitted, Abs format (unit mm)*
G04 Created by KiCad (PCBNEW (6.0.7)) date 2023-04-17 16:20:31*
%MOMM*%
%LPD*%
G01*
G04 APERTURE LIST*
G04 Aperture macros list*
%AMRoundRect*
0 Rectangle with rounded corners*
0 $1 Rounding radius*
0 $2 $3 $4 $5 $6 $7 $8 $9 X,Y pos of 4 corners*
0 Add a 4 corners polygon primitive as box body*
4,1,4,$2,$3,$4,$5,$6,$7,$8,$9,$2,$3,0*
0 Add four circle primitives for the rounded corners*
1,1,$1+$1,$2,$3*
1,1,$1+$1,$4,$5*
1,1,$1+$1,$6,$7*
1,1,$1+$1,$8,$9*
0 Add four rect primitives between the rounded corners*
20,1,$1+$1,$2,$3,$4,$5,0*
20,1,$1+$1,$4,$5,$6,$7,0*
20,1,$1+$1,$6,$7,$8,$9,0*
20,1,$1+$1,$8,$9,$2,$3,0*%
G04 Aperture macros list end*
%TA.AperFunction,ComponentPad*%
%ADD10R,1.905000X2.000000*%
%TD*%
%TA.AperFunction,ComponentPad*%
%ADD11O,1.905000X2.000000*%
%TD*%
%TA.AperFunction,ComponentPad*%
%ADD12R,1.700000X1.700000*%
%TD*%
%TA.AperFunction,ComponentPad*%
%ADD13O,1.700000X1.700000*%
%TD*%
%TA.AperFunction,ComponentPad*%
%ADD14RoundRect,0.250001X-1.099999X-1.399999X1.099999X-1.399999X1.099999X1.399999X-1.099999X1.399999X0*%
%TD*%
%TA.AperFunction,ComponentPad*%
%ADD15O,2.700000X3.300000*%
%TD*%
%TA.AperFunction,ComponentPad*%
%ADD16C,1.778000*%
%TD*%
%TA.AperFunction,ComponentPad*%
%ADD17C,3.175000*%
%TD*%
%TA.AperFunction,ViaPad*%
%ADD18C,0.800000*%
%TD*%
%TA.AperFunction,Conductor*%
%ADD19C,0.300000*%
%TD*%
%TA.AperFunction,Conductor*%
%ADD20C,0.200000*%
%TD*%
%TA.AperFunction,Conductor*%
%ADD21C,1.000000*%
%TD*%
%TA.AperFunction,Conductor*%
%ADD22C,0.400000*%
%TD*%
G04 APERTURE END LIST*
D10*
%TO.P,U1,1,GND*%
%TO.N,GND*%
X90678000Y-14224000D03*
D11*
%TO.P,U1,2,VI*%
%TO.N,+12V*%
X93218000Y-14224000D03*
%TO.P,U1,3,VO*%
%TO.N,-5V*%
X95758000Y-14224000D03*
%TD*%
D12*
%TO.P,J2,1,Pin_1*%
%TO.N,GND*%
X104160000Y-17247000D03*
D13*
%TO.P,J2,2,Pin_2*%
%TO.N,Net-(J1-Pad16)*%
X106700000Y-17247000D03*
%TD*%
D14*
%TO.P,J1,1,+3.3V*%
%TO.N,unconnected-(J1-Pad1)*%
X117616000Y-14022000D03*
D15*
%TO.P,J1,2,+3.3V*%
X121816000Y-14022000D03*
%TO.P,J1,3,GND*%
%TO.N,GND*%
X126016000Y-14022000D03*
%TO.P,J1,4,+5V*%
%TO.N,VCC*%
X130216000Y-14022000D03*
%TO.P,J1,5,GND*%
%TO.N,GND*%
X134416000Y-14022000D03*
%TO.P,J1,6,+5V*%
%TO.N,VCC*%
X138616000Y-14022000D03*
%TO.P,J1,7,GND*%
%TO.N,GND*%
X142816000Y-14022000D03*
%TO.P,J1,8,PWR_OK*%
%TO.N,Net-(J1-Pad8)*%
X147016000Y-14022000D03*
%TO.P,J1,9,+5VSB*%
%TO.N,/+5VSB*%
X151216000Y-14022000D03*
%TO.P,J1,10,+12V*%
%TO.N,+12V*%
X155416000Y-14022000D03*
%TO.P,J1,11,+12V*%
X159616000Y-14022000D03*
%TO.P,J1,12,+3.3V*%
%TO.N,unconnected-(J1-Pad1)*%
X163816000Y-14022000D03*
%TO.P,J1,13,+3.3V*%
X117616000Y-19522000D03*
%TO.P,J1,14,-12V*%
%TO.N,-12V*%
X121816000Y-19522000D03*
%TO.P,J1,15,GND*%
%TO.N,GND*%
X126016000Y-19522000D03*
%TO.P,J1,16,PS_ON#*%
%TO.N,Net-(J1-Pad16)*%
X130216000Y-19522000D03*
%TO.P,J1,17,GND*%
%TO.N,GND*%
X134416000Y-19522000D03*
%TO.P,J1,18,GND*%
X138616000Y-19522000D03*
%TO.P,J1,19,GND*%
X142816000Y-19522000D03*
%TO.P,J1,20,NC*%
%TO.N,unconnected-(J1-Pad20)*%
X147016000Y-19522000D03*
%TO.P,J1,21,+5V*%
%TO.N,VCC*%
X151216000Y-19522000D03*
%TO.P,J1,22,+5V*%
X155416000Y-19522000D03*
%TO.P,J1,23,+5V*%
X159616000Y-19522000D03*
%TO.P,J1,24,GND*%
%TO.N,GND*%
X163816000Y-19522000D03*
%TD*%
D16*
%TO.P,BUS7,A1,A1*%
%TO.N,-12V*%
X100330000Y-151130000D03*
%TO.P,BUS7,A2,A2*%
%TO.N,/~{CS1}*%
X97790000Y-151130000D03*
%TO.P,BUS7,A3,A3*%
%TO.N,GND*%
X95250000Y-151130000D03*
%TO.P,BUS7,A4,A4*%
%TO.N,/DB15*%
X92710000Y-151130000D03*
%TO.P,BUS7,A5,A5*%
%TO.N,/DB14*%
X90170000Y-151130000D03*
%TO.P,BUS7,A6,A6*%
%TO.N,/DB13*%
X87630000Y-151130000D03*
%TO.P,BUS7,A7,A7*%
%TO.N,/DB12*%
X85090000Y-151130000D03*
%TO.P,BUS7,A8,A8*%
%TO.N,/DB11*%
X82550000Y-151130000D03*
%TO.P,BUS7,A9,A9*%
%TO.N,/DB10*%
X80010000Y-151130000D03*
%TO.P,BUS7,A10,A10*%
%TO.N,/DB9*%
X77470000Y-151130000D03*
%TO.P,BUS7,A11,A11*%
%TO.N,/DB8*%
X74930000Y-151130000D03*
%TO.P,BUS7,A12,A12*%
%TO.N,/DB7*%
X72390000Y-151130000D03*
%TO.P,BUS7,A13,A13*%
%TO.N,/DB6*%
X69850000Y-151130000D03*
%TO.P,BUS7,A14,A14*%
%TO.N,/DB5*%
X67310000Y-151130000D03*
%TO.P,BUS7,A15,A15*%
%TO.N,/DB4*%
X64770000Y-151130000D03*
%TO.P,BUS7,A16,A16*%
%TO.N,/DB3*%
X62230000Y-151130000D03*
%TO.P,BUS7,A17,A17*%
%TO.N,/DB2*%
X59690000Y-151130000D03*
%TO.P,BUS7,A18,A18*%
%TO.N,/DB1*%
X57150000Y-151130000D03*
%TO.P,BUS7,A19,A19*%
%TO.N,/DB0*%
X54610000Y-151130000D03*
%TO.P,BUS7,A20,A20*%
%TO.N,VCC*%
X52070000Y-151130000D03*
%TO.P,BUS7,A21,A21*%
%TO.N,/~{RESET}*%
X49530000Y-151130000D03*
%TO.P,BUS7,A22,A22*%
%TO.N,unconnected-(BUS7-PadA22)*%
X46990000Y-151130000D03*
%TO.P,BUS7,A23,A23*%
%TO.N,/B~{AS}*%
X44450000Y-151130000D03*
%TO.P,BUS7,A24,A24*%
%TO.N,/B~{UDS}*%
X41910000Y-151130000D03*
%TO.P,BUS7,A25,A25*%
%TO.N,/B~{LDS}*%
X39370000Y-151130000D03*
%TO.P,BUS7,A26,A26*%
%TO.N,/BR{slash}~{W}*%
X36830000Y-151130000D03*
%TO.P,BUS7,A27,A27*%
%TO.N,/~{DTACK}*%
X34290000Y-151130000D03*
%TO.P,BUS7,A28,A28*%
%TO.N,/~{BG}*%
X31750000Y-151130000D03*
%TO.P,BUS7,A29,A29*%
%TO.N,/~{BGACK}*%
X29210000Y-151130000D03*
%TO.P,BUS7,A30,A30*%
%TO.N,/~{BR}*%
X26670000Y-151130000D03*
%TO.P,BUS7,A31,A31*%
%TO.N,unconnected-(BUS7-PadA31)*%
X24130000Y-151130000D03*
%TO.P,BUS7,A32,A32*%
%TO.N,/B~{AVEC}*%
X21590000Y-151130000D03*
%TO.P,BUS7,B1,B1*%
%TO.N,-5V*%
X100330000Y-153670000D03*
%TO.P,BUS7,B2,B2*%
%TO.N,+12V*%
X97790000Y-153670000D03*
%TO.P,BUS7,B3,B3*%
%TO.N,-12V*%
X95250000Y-153670000D03*
%TO.P,BUS7,B4,B4*%
%TO.N,GND*%
X92710000Y-153670000D03*
%TO.P,BUS7,B5,B5*%
%TO.N,/~{DACK}*%
X90170000Y-153670000D03*
%TO.P,BUS7,B6,B6*%
%TO.N,/~{DONE}*%
X87630000Y-153670000D03*
%TO.P,BUS7,B7,B7*%
%TO.N,/~{WDOG}*%
X85090000Y-153670000D03*
%TO.P,BUS7,B8,B8*%
%TO.N,/~{TOUT2}*%
X82550000Y-153670000D03*
%TO.P,BUS7,B9,B9*%
%TO.N,/TIN2*%
X80010000Y-153670000D03*
%TO.P,BUS7,B10,B10*%
%TO.N,/~{TOUT1}*%
X77470000Y-153670000D03*
%TO.P,BUS7,B11,B11*%
%TO.N,/TIN1*%
X74930000Y-153670000D03*
%TO.P,BUS7,B12,B12*%
%TO.N,/~{BERR}*%
X72390000Y-153670000D03*
%TO.P,BUS7,B13,B13*%
%TO.N,/~{IPL2}*%
X69850000Y-153670000D03*
%TO.P,BUS7,B14,B14*%
%TO.N,/~{IPL1}*%
X67310000Y-153670000D03*
%TO.P,BUS7,B15,B15*%
%TO.N,/~{IPL0}*%
X64770000Y-153670000D03*
%TO.P,BUS7,B16,B16*%
%TO.N,VCC*%
X62230000Y-153670000D03*
%TO.P,BUS7,B17,B17*%
X59690000Y-153670000D03*
%TO.P,BUS7,B18,B18*%
X57150000Y-153670000D03*
%TO.P,BUS7,B19,B19*%
X54610000Y-153670000D03*
%TO.P,BUS7,B20,B20*%
X52070000Y-153670000D03*
%TO.P,BUS7,B21,B21*%
%TO.N,/~{HALT}*%
X49530000Y-153670000D03*
%TO.P,BUS7,B22,B22*%
%TO.N,/~{CS2}*%
X46990000Y-153670000D03*
%TO.P,BUS7,B23,B23*%
%TO.N,/~{CS3}*%
X44450000Y-153670000D03*
%TO.P,BUS7,B24,B24*%
%TO.N,GND*%
X41910000Y-153670000D03*
%TO.P,BUS7,B25,B25*%
X39370000Y-153670000D03*
%TO.P,BUS7,B26,B26*%
X36830000Y-153670000D03*
%TO.P,BUS7,B27,B27*%
X34290000Y-153670000D03*
%TO.P,BUS7,B28,B28*%
X31750000Y-153670000D03*
%TO.P,BUS7,B29,B29*%
X29210000Y-153670000D03*
%TO.P,BUS7,B30,B30*%
X26670000Y-153670000D03*
%TO.P,BUS7,B31,B31*%
X24130000Y-153670000D03*
%TO.P,BUS7,B32,B32*%
X21590000Y-153670000D03*
%TO.P,BUS7,C1,C1*%
%TO.N,+12V*%
X100330000Y-156210000D03*
%TO.P,BUS7,C2,C2*%
X97790000Y-156210000D03*
%TO.P,BUS7,C3,C3*%
%TO.N,GND*%
X95250000Y-156210000D03*
%TO.P,BUS7,C4,C4*%
%TO.N,/CLKO*%
X92710000Y-156210000D03*
%TO.P,BUS7,C5,C5*%
X90170000Y-156210000D03*
%TO.P,BUS7,C6,C6*%
%TO.N,unconnected-(BUS7-PadC6)*%
X87630000Y-156210000D03*
%TO.P,BUS7,C7,C7*%
%TO.N,/BA23*%
X85090000Y-156210000D03*
%TO.P,BUS7,C8,C8*%
%TO.N,/BA22*%
X82550000Y-156210000D03*
%TO.P,BUS7,C9,C9*%
%TO.N,/BA21*%
X80010000Y-156210000D03*
%TO.P,BUS7,C10,C10*%
%TO.N,/BA20*%
X77470000Y-156210000D03*
%TO.P,BUS7,C11,C11*%
%TO.N,/BA19*%
X74930000Y-156210000D03*
%TO.P,BUS7,C12,C12*%
%TO.N,/BA18*%
X72390000Y-156210000D03*
%TO.P,BUS7,C13,C13*%
%TO.N,/BA17*%
X69850000Y-156210000D03*
%TO.P,BUS7,C14,C14*%
%TO.N,/BA16*%
X67310000Y-156210000D03*
%TO.P,BUS7,C15,C15*%
%TO.N,/BA15*%
X64770000Y-156210000D03*
%TO.P,BUS7,C16,C16*%
%TO.N,/BA14*%
X62230000Y-156210000D03*
%TO.P,BUS7,C17,C17*%
%TO.N,/BA13*%
X59690000Y-156210000D03*
%TO.P,BUS7,C18,C18*%
%TO.N,/BA12*%
X57150000Y-156210000D03*
%TO.P,BUS7,C19,C19*%
%TO.N,/BA11*%
X54610000Y-156210000D03*
%TO.P,BUS7,C20,C20*%
%TO.N,/BA10*%
X52070000Y-156210000D03*
%TO.P,BUS7,C21,C21*%
%TO.N,/BA9*%
X49530000Y-156210000D03*
%TO.P,BUS7,C22,C22*%
%TO.N,/BA8*%
X46990000Y-156210000D03*
%TO.P,BUS7,C23,C23*%
%TO.N,/BA7*%
X44450000Y-156210000D03*
%TO.P,BUS7,C24,C24*%
%TO.N,/BA6*%
X41910000Y-156210000D03*
%TO.P,BUS7,C25,C25*%
%TO.N,/BA5*%
X39370000Y-156210000D03*
%TO.P,BUS7,C26,C26*%
%TO.N,/BA4*%
X36830000Y-156210000D03*
%TO.P,BUS7,C27,C27*%
%TO.N,/BA3*%
X34290000Y-156210000D03*
%TO.P,BUS7,C28,C28*%
%TO.N,/BA2*%
X31750000Y-156210000D03*
%TO.P,BUS7,C29,C29*%
%TO.N,/BA1*%
X29210000Y-156210000D03*
%TO.P,BUS7,C30,C30*%
%TO.N,/BFC0*%
X26670000Y-156210000D03*
%TO.P,BUS7,C31,C31*%
%TO.N,/BFC1*%
X24130000Y-156210000D03*
%TO.P,BUS7,C32,C32*%
%TO.N,/BFC2*%
X21590000Y-156210000D03*
D17*
%TO.P,BUS7,M,M*%
%TO.N,GND*%
X15913100Y-153670000D03*
X106006900Y-153670000D03*
%TD*%
D16*
%TO.P,BUS6,A1,A1*%
%TO.N,-12V*%
X100330000Y-130810000D03*
%TO.P,BUS6,A2,A2*%
%TO.N,/~{CS1}*%
X97790000Y-130810000D03*
%TO.P,BUS6,A3,A3*%
%TO.N,GND*%
X95250000Y-130810000D03*
%TO.P,BUS6,A4,A4*%
%TO.N,/DB15*%
X92710000Y-130810000D03*
%TO.P,BUS6,A5,A5*%
%TO.N,/DB14*%
X90170000Y-130810000D03*
%TO.P,BUS6,A6,A6*%
%TO.N,/DB13*%
X87630000Y-130810000D03*
%TO.P,BUS6,A7,A7*%
%TO.N,/DB12*%
X85090000Y-130810000D03*
%TO.P,BUS6,A8,A8*%
%TO.N,/DB11*%
X82550000Y-130810000D03*
%TO.P,BUS6,A9,A9*%
%TO.N,/DB10*%
X80010000Y-130810000D03*
%TO.P,BUS6,A10,A10*%
%TO.N,/DB9*%
X77470000Y-130810000D03*
%TO.P,BUS6,A11,A11*%
%TO.N,/DB8*%
X74930000Y-130810000D03*
%TO.P,BUS6,A12,A12*%
%TO.N,/DB7*%
X72390000Y-130810000D03*
%TO.P,BUS6,A13,A13*%
%TO.N,/DB6*%
X69850000Y-130810000D03*
%TO.P,BUS6,A14,A14*%
%TO.N,/DB5*%
X67310000Y-130810000D03*
%TO.P,BUS6,A15,A15*%
%TO.N,/DB4*%
X64770000Y-130810000D03*
%TO.P,BUS6,A16,A16*%
%TO.N,/DB3*%
X62230000Y-130810000D03*
%TO.P,BUS6,A17,A17*%
%TO.N,/DB2*%
X59690000Y-130810000D03*
%TO.P,BUS6,A18,A18*%
%TO.N,/DB1*%
X57150000Y-130810000D03*
%TO.P,BUS6,A19,A19*%
%TO.N,/DB0*%
X54610000Y-130810000D03*
%TO.P,BUS6,A20,A20*%
%TO.N,VCC*%
X52070000Y-130810000D03*
%TO.P,BUS6,A21,A21*%
%TO.N,/~{RESET}*%
X49530000Y-130810000D03*
%TO.P,BUS6,A22,A22*%
%TO.N,unconnected-(BUS6-PadA22)*%
X46990000Y-130810000D03*
%TO.P,BUS6,A23,A23*%
%TO.N,/B~{AS}*%
X44450000Y-130810000D03*
%TO.P,BUS6,A24,A24*%
%TO.N,/B~{UDS}*%
X41910000Y-130810000D03*
%TO.P,BUS6,A25,A25*%
%TO.N,/B~{LDS}*%
X39370000Y-130810000D03*
%TO.P,BUS6,A26,A26*%
%TO.N,/BR{slash}~{W}*%
X36830000Y-130810000D03*
%TO.P,BUS6,A27,A27*%
%TO.N,/~{DTACK}*%
X34290000Y-130810000D03*
%TO.P,BUS6,A28,A28*%
%TO.N,/~{BG}*%
X31750000Y-130810000D03*
%TO.P,BUS6,A29,A29*%
%TO.N,/~{BGACK}*%
X29210000Y-130810000D03*
%TO.P,BUS6,A30,A30*%
%TO.N,/~{BR}*%
X26670000Y-130810000D03*
%TO.P,BUS6,A31,A31*%
%TO.N,unconnected-(BUS6-PadA31)*%
X24130000Y-130810000D03*
%TO.P,BUS6,A32,A32*%
%TO.N,/B~{AVEC}*%
X21590000Y-130810000D03*
%TO.P,BUS6,B1,B1*%
%TO.N,-5V*%
X100330000Y-133350000D03*
%TO.P,BUS6,B2,B2*%
%TO.N,+12V*%
X97790000Y-133350000D03*
%TO.P,BUS6,B3,B3*%
%TO.N,-12V*%
X95250000Y-133350000D03*
%TO.P,BUS6,B4,B4*%
%TO.N,GND*%
X92710000Y-133350000D03*
%TO.P,BUS6,B5,B5*%
%TO.N,/~{DACK}*%
X90170000Y-133350000D03*
%TO.P,BUS6,B6,B6*%
%TO.N,/~{DONE}*%
X87630000Y-133350000D03*
%TO.P,BUS6,B7,B7*%
%TO.N,/~{WDOG}*%
X85090000Y-133350000D03*
%TO.P,BUS6,B8,B8*%
%TO.N,/~{TOUT2}*%
X82550000Y-133350000D03*
%TO.P,BUS6,B9,B9*%
%TO.N,/TIN2*%
X80010000Y-133350000D03*
%TO.P,BUS6,B10,B10*%
%TO.N,/~{TOUT1}*%
X77470000Y-133350000D03*
%TO.P,BUS6,B11,B11*%
%TO.N,/TIN1*%
X74930000Y-133350000D03*
%TO.P,BUS6,B12,B12*%
%TO.N,/~{BERR}*%
X72390000Y-133350000D03*
%TO.P,BUS6,B13,B13*%
%TO.N,/~{IPL2}*%
X69850000Y-133350000D03*
%TO.P,BUS6,B14,B14*%
%TO.N,/~{IPL1}*%
X67310000Y-133350000D03*
%TO.P,BUS6,B15,B15*%
%TO.N,/~{IPL0}*%
X64770000Y-133350000D03*
%TO.P,BUS6,B16,B16*%
%TO.N,VCC*%
X62230000Y-133350000D03*
%TO.P,BUS6,B17,B17*%
X59690000Y-133350000D03*
%TO.P,BUS6,B18,B18*%
X57150000Y-133350000D03*
%TO.P,BUS6,B19,B19*%
X54610000Y-133350000D03*
%TO.P,BUS6,B20,B20*%
X52070000Y-133350000D03*
%TO.P,BUS6,B21,B21*%
%TO.N,/~{HALT}*%
X49530000Y-133350000D03*
%TO.P,BUS6,B22,B22*%
%TO.N,/~{CS2}*%
X46990000Y-133350000D03*
%TO.P,BUS6,B23,B23*%
%TO.N,/~{CS3}*%
X44450000Y-133350000D03*
%TO.P,BUS6,B24,B24*%
%TO.N,GND*%
X41910000Y-133350000D03*
%TO.P,BUS6,B25,B25*%
X39370000Y-133350000D03*
%TO.P,BUS6,B26,B26*%
X36830000Y-133350000D03*
%TO.P,BUS6,B27,B27*%
X34290000Y-133350000D03*
%TO.P,BUS6,B28,B28*%
X31750000Y-133350000D03*
%TO.P,BUS6,B29,B29*%
X29210000Y-133350000D03*
%TO.P,BUS6,B30,B30*%
X26670000Y-133350000D03*
%TO.P,BUS6,B31,B31*%
X24130000Y-133350000D03*
%TO.P,BUS6,B32,B32*%
X21590000Y-133350000D03*
%TO.P,BUS6,C1,C1*%
%TO.N,+12V*%
X100330000Y-135890000D03*
%TO.P,BUS6,C2,C2*%
X97790000Y-135890000D03*
%TO.P,BUS6,C3,C3*%
%TO.N,GND*%
X95250000Y-135890000D03*
%TO.P,BUS6,C4,C4*%
%TO.N,/CLKO*%
X92710000Y-135890000D03*
%TO.P,BUS6,C5,C5*%
X90170000Y-135890000D03*
%TO.P,BUS6,C6,C6*%
%TO.N,unconnected-(BUS6-PadC6)*%
X87630000Y-135890000D03*
%TO.P,BUS6,C7,C7*%
%TO.N,/BA23*%
X85090000Y-135890000D03*
%TO.P,BUS6,C8,C8*%
%TO.N,/BA22*%
X82550000Y-135890000D03*
%TO.P,BUS6,C9,C9*%
%TO.N,/BA21*%
X80010000Y-135890000D03*
%TO.P,BUS6,C10,C10*%
%TO.N,/BA20*%
X77470000Y-135890000D03*
%TO.P,BUS6,C11,C11*%
%TO.N,/BA19*%
X74930000Y-135890000D03*
%TO.P,BUS6,C12,C12*%
%TO.N,/BA18*%
X72390000Y-135890000D03*
%TO.P,BUS6,C13,C13*%
%TO.N,/BA17*%
X69850000Y-135890000D03*
%TO.P,BUS6,C14,C14*%
%TO.N,/BA16*%
X67310000Y-135890000D03*
%TO.P,BUS6,C15,C15*%
%TO.N,/BA15*%
X64770000Y-135890000D03*
%TO.P,BUS6,C16,C16*%
%TO.N,/BA14*%
X62230000Y-135890000D03*
%TO.P,BUS6,C17,C17*%
%TO.N,/BA13*%
X59690000Y-135890000D03*
%TO.P,BUS6,C18,C18*%
%TO.N,/BA12*%
X57150000Y-135890000D03*
%TO.P,BUS6,C19,C19*%
%TO.N,/BA11*%
X54610000Y-135890000D03*
%TO.P,BUS6,C20,C20*%
%TO.N,/BA10*%
X52070000Y-135890000D03*
%TO.P,BUS6,C21,C21*%
%TO.N,/BA9*%
X49530000Y-135890000D03*
%TO.P,BUS6,C22,C22*%
%TO.N,/BA8*%
X46990000Y-135890000D03*
%TO.P,BUS6,C23,C23*%
%TO.N,/BA7*%
X44450000Y-135890000D03*
%TO.P,BUS6,C24,C24*%
%TO.N,/BA6*%
X41910000Y-135890000D03*
%TO.P,BUS6,C25,C25*%
%TO.N,/BA5*%
X39370000Y-135890000D03*
%TO.P,BUS6,C26,C26*%
%TO.N,/BA4*%
X36830000Y-135890000D03*
%TO.P,BUS6,C27,C27*%
%TO.N,/BA3*%
X34290000Y-135890000D03*
%TO.P,BUS6,C28,C28*%
%TO.N,/BA2*%
X31750000Y-135890000D03*
%TO.P,BUS6,C29,C29*%
%TO.N,/BA1*%
X29210000Y-135890000D03*
%TO.P,BUS6,C30,C30*%
%TO.N,/BFC0*%
X26670000Y-135890000D03*
%TO.P,BUS6,C31,C31*%
%TO.N,/BFC1*%
X24130000Y-135890000D03*
%TO.P,BUS6,C32,C32*%
%TO.N,/BFC2*%
X21590000Y-135890000D03*
D17*
%TO.P,BUS6,M,M*%
%TO.N,GND*%
X15913100Y-133350000D03*
X106006900Y-133350000D03*
%TD*%
D16*
%TO.P,BUS5,A1,A1*%
%TO.N,-12V*%
X100330000Y-110490000D03*
%TO.P,BUS5,A2,A2*%
%TO.N,/~{CS1}*%
X97790000Y-110490000D03*
%TO.P,BUS5,A3,A3*%
%TO.N,GND*%
X95250000Y-110490000D03*
%TO.P,BUS5,A4,A4*%
%TO.N,/DB15*%
X92710000Y-110490000D03*
%TO.P,BUS5,A5,A5*%
%TO.N,/DB14*%
X90170000Y-110490000D03*
%TO.P,BUS5,A6,A6*%
%TO.N,/DB13*%
X87630000Y-110490000D03*
%TO.P,BUS5,A7,A7*%
%TO.N,/DB12*%
X85090000Y-110490000D03*
%TO.P,BUS5,A8,A8*%
%TO.N,/DB11*%
X82550000Y-110490000D03*
%TO.P,BUS5,A9,A9*%
%TO.N,/DB10*%
X80010000Y-110490000D03*
%TO.P,BUS5,A10,A10*%
%TO.N,/DB9*%
X77470000Y-110490000D03*
%TO.P,BUS5,A11,A11*%
%TO.N,/DB8*%
X74930000Y-110490000D03*
%TO.P,BUS5,A12,A12*%
%TO.N,/DB7*%
X72390000Y-110490000D03*
%TO.P,BUS5,A13,A13*%
%TO.N,/DB6*%
X69850000Y-110490000D03*
%TO.P,BUS5,A14,A14*%
%TO.N,/DB5*%
X67310000Y-110490000D03*
%TO.P,BUS5,A15,A15*%
%TO.N,/DB4*%
X64770000Y-110490000D03*
%TO.P,BUS5,A16,A16*%
%TO.N,/DB3*%
X62230000Y-110490000D03*
%TO.P,BUS5,A17,A17*%
%TO.N,/DB2*%
X59690000Y-110490000D03*
%TO.P,BUS5,A18,A18*%
%TO.N,/DB1*%
X57150000Y-110490000D03*
%TO.P,BUS5,A19,A19*%
%TO.N,/DB0*%
X54610000Y-110490000D03*
%TO.P,BUS5,A20,A20*%
%TO.N,VCC*%
X52070000Y-110490000D03*
%TO.P,BUS5,A21,A21*%
%TO.N,/~{RESET}*%
X49530000Y-110490000D03*
%TO.P,BUS5,A22,A22*%
%TO.N,unconnected-(BUS5-PadA22)*%
X46990000Y-110490000D03*
%TO.P,BUS5,A23,A23*%
%TO.N,/B~{AS}*%
X44450000Y-110490000D03*
%TO.P,BUS5,A24,A24*%
%TO.N,/B~{UDS}*%
X41910000Y-110490000D03*
%TO.P,BUS5,A25,A25*%
%TO.N,/B~{LDS}*%
X39370000Y-110490000D03*
%TO.P,BUS5,A26,A26*%
%TO.N,/BR{slash}~{W}*%
X36830000Y-110490000D03*
%TO.P,BUS5,A27,A27*%
%TO.N,/~{DTACK}*%
X34290000Y-110490000D03*
%TO.P,BUS5,A28,A28*%
%TO.N,/~{BG}*%
X31750000Y-110490000D03*
%TO.P,BUS5,A29,A29*%
%TO.N,/~{BGACK}*%
X29210000Y-110490000D03*
%TO.P,BUS5,A30,A30*%
%TO.N,/~{BR}*%
X26670000Y-110490000D03*
%TO.P,BUS5,A31,A31*%
%TO.N,unconnected-(BUS5-PadA31)*%
X24130000Y-110490000D03*
%TO.P,BUS5,A32,A32*%
%TO.N,/B~{AVEC}*%
X21590000Y-110490000D03*
%TO.P,BUS5,B1,B1*%
%TO.N,-5V*%
X100330000Y-113030000D03*
%TO.P,BUS5,B2,B2*%
%TO.N,+12V*%
X97790000Y-113030000D03*
%TO.P,BUS5,B3,B3*%
%TO.N,-12V*%
X95250000Y-113030000D03*
%TO.P,BUS5,B4,B4*%
%TO.N,GND*%
X92710000Y-113030000D03*
%TO.P,BUS5,B5,B5*%
%TO.N,/~{DACK}*%
X90170000Y-113030000D03*
%TO.P,BUS5,B6,B6*%
%TO.N,/~{DONE}*%
X87630000Y-113030000D03*
%TO.P,BUS5,B7,B7*%
%TO.N,/~{WDOG}*%
X85090000Y-113030000D03*
%TO.P,BUS5,B8,B8*%
%TO.N,/~{TOUT2}*%
X82550000Y-113030000D03*
%TO.P,BUS5,B9,B9*%
%TO.N,/TIN2*%
X80010000Y-113030000D03*
%TO.P,BUS5,B10,B10*%
%TO.N,/~{TOUT1}*%
X77470000Y-113030000D03*
%TO.P,BUS5,B11,B11*%
%TO.N,/TIN1*%
X74930000Y-113030000D03*
%TO.P,BUS5,B12,B12*%
%TO.N,/~{BERR}*%
X72390000Y-113030000D03*
%TO.P,BUS5,B13,B13*%
%TO.N,/~{IPL2}*%
X69850000Y-113030000D03*
%TO.P,BUS5,B14,B14*%
%TO.N,/~{IPL1}*%
X67310000Y-113030000D03*
%TO.P,BUS5,B15,B15*%
%TO.N,/~{IPL0}*%
X64770000Y-113030000D03*
%TO.P,BUS5,B16,B16*%
%TO.N,VCC*%
X62230000Y-113030000D03*
%TO.P,BUS5,B17,B17*%
X59690000Y-113030000D03*
%TO.P,BUS5,B18,B18*%
X57150000Y-113030000D03*
%TO.P,BUS5,B19,B19*%
X54610000Y-113030000D03*
%TO.P,BUS5,B20,B20*%
X52070000Y-113030000D03*
%TO.P,BUS5,B21,B21*%
%TO.N,/~{HALT}*%
X49530000Y-113030000D03*
%TO.P,BUS5,B22,B22*%
%TO.N,/~{CS2}*%
X46990000Y-113030000D03*
%TO.P,BUS5,B23,B23*%
%TO.N,/~{CS3}*%
X44450000Y-113030000D03*
%TO.P,BUS5,B24,B24*%
%TO.N,GND*%
X41910000Y-113030000D03*
%TO.P,BUS5,B25,B25*%
X39370000Y-113030000D03*
%TO.P,BUS5,B26,B26*%
X36830000Y-113030000D03*
%TO.P,BUS5,B27,B27*%
X34290000Y-113030000D03*
%TO.P,BUS5,B28,B28*%
X31750000Y-113030000D03*
%TO.P,BUS5,B29,B29*%
X29210000Y-113030000D03*
%TO.P,BUS5,B30,B30*%
X26670000Y-113030000D03*
%TO.P,BUS5,B31,B31*%
X24130000Y-113030000D03*
%TO.P,BUS5,B32,B32*%
X21590000Y-113030000D03*
%TO.P,BUS5,C1,C1*%
%TO.N,+12V*%
X100330000Y-115570000D03*
%TO.P,BUS5,C2,C2*%
X97790000Y-115570000D03*
%TO.P,BUS5,C3,C3*%
%TO.N,GND*%
X95250000Y-115570000D03*
%TO.P,BUS5,C4,C4*%
%TO.N,/CLKO*%
X92710000Y-115570000D03*
%TO.P,BUS5,C5,C5*%
X90170000Y-115570000D03*
%TO.P,BUS5,C6,C6*%
%TO.N,unconnected-(BUS5-PadC6)*%
X87630000Y-115570000D03*
%TO.P,BUS5,C7,C7*%
%TO.N,/BA23*%
X85090000Y-115570000D03*
%TO.P,BUS5,C8,C8*%
%TO.N,/BA22*%
X82550000Y-115570000D03*
%TO.P,BUS5,C9,C9*%
%TO.N,/BA21*%
X80010000Y-115570000D03*
%TO.P,BUS5,C10,C10*%
%TO.N,/BA20*%
X77470000Y-115570000D03*
%TO.P,BUS5,C11,C11*%
%TO.N,/BA19*%
X74930000Y-115570000D03*
%TO.P,BUS5,C12,C12*%
%TO.N,/BA18*%
X72390000Y-115570000D03*
%TO.P,BUS5,C13,C13*%
%TO.N,/BA17*%
X69850000Y-115570000D03*
%TO.P,BUS5,C14,C14*%
%TO.N,/BA16*%
X67310000Y-115570000D03*
%TO.P,BUS5,C15,C15*%
%TO.N,/BA15*%
X64770000Y-115570000D03*
%TO.P,BUS5,C16,C16*%
%TO.N,/BA14*%
X62230000Y-115570000D03*
%TO.P,BUS5,C17,C17*%
%TO.N,/BA13*%
X59690000Y-115570000D03*
%TO.P,BUS5,C18,C18*%
%TO.N,/BA12*%
X57150000Y-115570000D03*
%TO.P,BUS5,C19,C19*%
%TO.N,/BA11*%
X54610000Y-115570000D03*
%TO.P,BUS5,C20,C20*%
%TO.N,/BA10*%
X52070000Y-115570000D03*
%TO.P,BUS5,C21,C21*%
%TO.N,/BA9*%
X49530000Y-115570000D03*
%TO.P,BUS5,C22,C22*%
%TO.N,/BA8*%
X46990000Y-115570000D03*
%TO.P,BUS5,C23,C23*%
%TO.N,/BA7*%
X44450000Y-115570000D03*
%TO.P,BUS5,C24,C24*%
%TO.N,/BA6*%
X41910000Y-115570000D03*
%TO.P,BUS5,C25,C25*%
%TO.N,/BA5*%
X39370000Y-115570000D03*
%TO.P,BUS5,C26,C26*%
%TO.N,/BA4*%
X36830000Y-115570000D03*
%TO.P,BUS5,C27,C27*%
%TO.N,/BA3*%
X34290000Y-115570000D03*
%TO.P,BUS5,C28,C28*%
%TO.N,/BA2*%
X31750000Y-115570000D03*
%TO.P,BUS5,C29,C29*%
%TO.N,/BA1*%
X29210000Y-115570000D03*
%TO.P,BUS5,C30,C30*%
%TO.N,/BFC0*%
X26670000Y-115570000D03*
%TO.P,BUS5,C31,C31*%
%TO.N,/BFC1*%
X24130000Y-115570000D03*
%TO.P,BUS5,C32,C32*%
%TO.N,/BFC2*%
X21590000Y-115570000D03*
D17*
%TO.P,BUS5,M,M*%
%TO.N,GND*%
X15913100Y-113030000D03*
X106006900Y-113030000D03*
%TD*%
D16*
%TO.P,BUS4,A1,A1*%
%TO.N,-12V*%
X100330000Y-90170000D03*
%TO.P,BUS4,A2,A2*%
%TO.N,/~{CS1}*%
X97790000Y-90170000D03*
%TO.P,BUS4,A3,A3*%
%TO.N,GND*%
X95250000Y-90170000D03*
%TO.P,BUS4,A4,A4*%
%TO.N,/DB15*%
X92710000Y-90170000D03*
%TO.P,BUS4,A5,A5*%
%TO.N,/DB14*%
X90170000Y-90170000D03*
%TO.P,BUS4,A6,A6*%
%TO.N,/DB13*%
X87630000Y-90170000D03*
%TO.P,BUS4,A7,A7*%
%TO.N,/DB12*%
X85090000Y-90170000D03*
%TO.P,BUS4,A8,A8*%
%TO.N,/DB11*%
X82550000Y-90170000D03*
%TO.P,BUS4,A9,A9*%
%TO.N,/DB10*%
X80010000Y-90170000D03*
%TO.P,BUS4,A10,A10*%
%TO.N,/DB9*%
X77470000Y-90170000D03*
%TO.P,BUS4,A11,A11*%
%TO.N,/DB8*%
X74930000Y-90170000D03*
%TO.P,BUS4,A12,A12*%
%TO.N,/DB7*%
X72390000Y-90170000D03*
%TO.P,BUS4,A13,A13*%
%TO.N,/DB6*%
X69850000Y-90170000D03*
%TO.P,BUS4,A14,A14*%
%TO.N,/DB5*%
X67310000Y-90170000D03*
%TO.P,BUS4,A15,A15*%
%TO.N,/DB4*%
X64770000Y-90170000D03*
%TO.P,BUS4,A16,A16*%
%TO.N,/DB3*%
X62230000Y-90170000D03*
%TO.P,BUS4,A17,A17*%
%TO.N,/DB2*%
X59690000Y-90170000D03*
%TO.P,BUS4,A18,A18*%
%TO.N,/DB1*%
X57150000Y-90170000D03*
%TO.P,BUS4,A19,A19*%
%TO.N,/DB0*%
X54610000Y-90170000D03*
%TO.P,BUS4,A20,A20*%
%TO.N,VCC*%
X52070000Y-90170000D03*
%TO.P,BUS4,A21,A21*%
%TO.N,/~{RESET}*%
X49530000Y-90170000D03*
%TO.P,BUS4,A22,A22*%
%TO.N,unconnected-(BUS4-PadA22)*%
X46990000Y-90170000D03*
%TO.P,BUS4,A23,A23*%
%TO.N,/B~{AS}*%
X44450000Y-90170000D03*
%TO.P,BUS4,A24,A24*%
%TO.N,/B~{UDS}*%
X41910000Y-90170000D03*
%TO.P,BUS4,A25,A25*%
%TO.N,/B~{LDS}*%
X39370000Y-90170000D03*
%TO.P,BUS4,A26,A26*%
%TO.N,/BR{slash}~{W}*%
X36830000Y-90170000D03*
%TO.P,BUS4,A27,A27*%
%TO.N,/~{DTACK}*%
X34290000Y-90170000D03*
%TO.P,BUS4,A28,A28*%
%TO.N,/~{BG}*%
X31750000Y-90170000D03*
%TO.P,BUS4,A29,A29*%
%TO.N,/~{BGACK}*%
X29210000Y-90170000D03*
%TO.P,BUS4,A30,A30*%
%TO.N,/~{BR}*%
X26670000Y-90170000D03*
%TO.P,BUS4,A31,A31*%
%TO.N,unconnected-(BUS4-PadA31)*%
X24130000Y-90170000D03*
%TO.P,BUS4,A32,A32*%
%TO.N,/B~{AVEC}*%
X21590000Y-90170000D03*
%TO.P,BUS4,B1,B1*%
%TO.N,-5V*%
X100330000Y-92710000D03*
%TO.P,BUS4,B2,B2*%
%TO.N,+12V*%
X97790000Y-92710000D03*
%TO.P,BUS4,B3,B3*%
%TO.N,-12V*%
X95250000Y-92710000D03*
%TO.P,BUS4,B4,B4*%
%TO.N,GND*%
X92710000Y-92710000D03*
%TO.P,BUS4,B5,B5*%
%TO.N,/~{DACK}*%
X90170000Y-92710000D03*
%TO.P,BUS4,B6,B6*%
%TO.N,/~{DONE}*%
X87630000Y-92710000D03*
%TO.P,BUS4,B7,B7*%
%TO.N,/~{WDOG}*%
X85090000Y-92710000D03*
%TO.P,BUS4,B8,B8*%
%TO.N,/~{TOUT2}*%
X82550000Y-92710000D03*
%TO.P,BUS4,B9,B9*%
%TO.N,/TIN2*%
X80010000Y-92710000D03*
%TO.P,BUS4,B10,B10*%
%TO.N,/~{TOUT1}*%
X77470000Y-92710000D03*
%TO.P,BUS4,B11,B11*%
%TO.N,/TIN1*%
X74930000Y-92710000D03*
%TO.P,BUS4,B12,B12*%
%TO.N,/~{BERR}*%
X72390000Y-92710000D03*
%TO.P,BUS4,B13,B13*%
%TO.N,/~{IPL2}*%
X69850000Y-92710000D03*
%TO.P,BUS4,B14,B14*%
%TO.N,/~{IPL1}*%
X67310000Y-92710000D03*
%TO.P,BUS4,B15,B15*%
%TO.N,/~{IPL0}*%
X64770000Y-92710000D03*
%TO.P,BUS4,B16,B16*%
%TO.N,VCC*%
X62230000Y-92710000D03*
%TO.P,BUS4,B17,B17*%
X59690000Y-92710000D03*
%TO.P,BUS4,B18,B18*%
X57150000Y-92710000D03*
%TO.P,BUS4,B19,B19*%
X54610000Y-92710000D03*
%TO.P,BUS4,B20,B20*%
X52070000Y-92710000D03*
%TO.P,BUS4,B21,B21*%
%TO.N,/~{HALT}*%
X49530000Y-92710000D03*
%TO.P,BUS4,B22,B22*%
%TO.N,/~{CS2}*%
X46990000Y-92710000D03*
%TO.P,BUS4,B23,B23*%
%TO.N,/~{CS3}*%
X44450000Y-92710000D03*
%TO.P,BUS4,B24,B24*%
%TO.N,GND*%
X41910000Y-92710000D03*
%TO.P,BUS4,B25,B25*%
X39370000Y-92710000D03*
%TO.P,BUS4,B26,B26*%
X36830000Y-92710000D03*
%TO.P,BUS4,B27,B27*%
X34290000Y-92710000D03*
%TO.P,BUS4,B28,B28*%
X31750000Y-92710000D03*
%TO.P,BUS4,B29,B29*%
X29210000Y-92710000D03*
%TO.P,BUS4,B30,B30*%
X26670000Y-92710000D03*
%TO.P,BUS4,B31,B31*%
X24130000Y-92710000D03*
%TO.P,BUS4,B32,B32*%
X21590000Y-92710000D03*
%TO.P,BUS4,C1,C1*%
%TO.N,+12V*%
X100330000Y-95250000D03*
%TO.P,BUS4,C2,C2*%
X97790000Y-95250000D03*
%TO.P,BUS4,C3,C3*%
%TO.N,GND*%
X95250000Y-95250000D03*
%TO.P,BUS4,C4,C4*%
%TO.N,/CLKO*%
X92710000Y-95250000D03*
%TO.P,BUS4,C5,C5*%
X90170000Y-95250000D03*
%TO.P,BUS4,C6,C6*%
%TO.N,unconnected-(BUS4-PadC6)*%
X87630000Y-95250000D03*
%TO.P,BUS4,C7,C7*%
%TO.N,/BA23*%
X85090000Y-95250000D03*
%TO.P,BUS4,C8,C8*%
%TO.N,/BA22*%
X82550000Y-95250000D03*
%TO.P,BUS4,C9,C9*%
%TO.N,/BA21*%
X80010000Y-95250000D03*
%TO.P,BUS4,C10,C10*%
%TO.N,/BA20*%
X77470000Y-95250000D03*
%TO.P,BUS4,C11,C11*%
%TO.N,/BA19*%
X74930000Y-95250000D03*
%TO.P,BUS4,C12,C12*%
%TO.N,/BA18*%
X72390000Y-95250000D03*
%TO.P,BUS4,C13,C13*%
%TO.N,/BA17*%
X69850000Y-95250000D03*
%TO.P,BUS4,C14,C14*%
%TO.N,/BA16*%
X67310000Y-95250000D03*
%TO.P,BUS4,C15,C15*%
%TO.N,/BA15*%
X64770000Y-95250000D03*
%TO.P,BUS4,C16,C16*%
%TO.N,/BA14*%
X62230000Y-95250000D03*
%TO.P,BUS4,C17,C17*%
%TO.N,/BA13*%
X59690000Y-95250000D03*
%TO.P,BUS4,C18,C18*%
%TO.N,/BA12*%
X57150000Y-95250000D03*
%TO.P,BUS4,C19,C19*%
%TO.N,/BA11*%
X54610000Y-95250000D03*
%TO.P,BUS4,C20,C20*%
%TO.N,/BA10*%
X52070000Y-95250000D03*
%TO.P,BUS4,C21,C21*%
%TO.N,/BA9*%
X49530000Y-95250000D03*
%TO.P,BUS4,C22,C22*%
%TO.N,/BA8*%
X46990000Y-95250000D03*
%TO.P,BUS4,C23,C23*%
%TO.N,/BA7*%
X44450000Y-95250000D03*
%TO.P,BUS4,C24,C24*%
%TO.N,/BA6*%
X41910000Y-95250000D03*
%TO.P,BUS4,C25,C25*%
%TO.N,/BA5*%
X39370000Y-95250000D03*
%TO.P,BUS4,C26,C26*%
%TO.N,/BA4*%
X36830000Y-95250000D03*
%TO.P,BUS4,C27,C27*%
%TO.N,/BA3*%
X34290000Y-95250000D03*
%TO.P,BUS4,C28,C28*%
%TO.N,/BA2*%
X31750000Y-95250000D03*
%TO.P,BUS4,C29,C29*%
%TO.N,/BA1*%
X29210000Y-95250000D03*
%TO.P,BUS4,C30,C30*%
%TO.N,/BFC0*%
X26670000Y-95250000D03*
%TO.P,BUS4,C31,C31*%
%TO.N,/BFC1*%
X24130000Y-95250000D03*
%TO.P,BUS4,C32,C32*%
%TO.N,/BFC2*%
X21590000Y-95250000D03*
D17*
%TO.P,BUS4,M,M*%
%TO.N,GND*%
X15913100Y-92710000D03*
X106006900Y-92710000D03*
%TD*%
D16*
%TO.P,BUS3,A1,A1*%
%TO.N,-12V*%
X100330000Y-69850000D03*
%TO.P,BUS3,A2,A2*%
%TO.N,/~{CS1}*%
X97790000Y-69850000D03*
%TO.P,BUS3,A3,A3*%
%TO.N,GND*%
X95250000Y-69850000D03*
%TO.P,BUS3,A4,A4*%
%TO.N,/DB15*%
X92710000Y-69850000D03*
%TO.P,BUS3,A5,A5*%
%TO.N,/DB14*%
X90170000Y-69850000D03*
%TO.P,BUS3,A6,A6*%
%TO.N,/DB13*%
X87630000Y-69850000D03*
%TO.P,BUS3,A7,A7*%
%TO.N,/DB12*%
X85090000Y-69850000D03*
%TO.P,BUS3,A8,A8*%
%TO.N,/DB11*%
X82550000Y-69850000D03*
%TO.P,BUS3,A9,A9*%
%TO.N,/DB10*%
X80010000Y-69850000D03*
%TO.P,BUS3,A10,A10*%
%TO.N,/DB9*%
X77470000Y-69850000D03*
%TO.P,BUS3,A11,A11*%
%TO.N,/DB8*%
X74930000Y-69850000D03*
%TO.P,BUS3,A12,A12*%
%TO.N,/DB7*%
X72390000Y-69850000D03*
%TO.P,BUS3,A13,A13*%
%TO.N,/DB6*%
X69850000Y-69850000D03*
%TO.P,BUS3,A14,A14*%
%TO.N,/DB5*%
X67310000Y-69850000D03*
%TO.P,BUS3,A15,A15*%
%TO.N,/DB4*%
X64770000Y-69850000D03*
%TO.P,BUS3,A16,A16*%
%TO.N,/DB3*%
X62230000Y-69850000D03*
%TO.P,BUS3,A17,A17*%
%TO.N,/DB2*%
X59690000Y-69850000D03*
%TO.P,BUS3,A18,A18*%
%TO.N,/DB1*%
X57150000Y-69850000D03*
%TO.P,BUS3,A19,A19*%
%TO.N,/DB0*%
X54610000Y-69850000D03*
%TO.P,BUS3,A20,A20*%
%TO.N,VCC*%
X52070000Y-69850000D03*
%TO.P,BUS3,A21,A21*%
%TO.N,/~{RESET}*%
X49530000Y-69850000D03*
%TO.P,BUS3,A22,A22*%
%TO.N,unconnected-(BUS3-PadA22)*%
X46990000Y-69850000D03*
%TO.P,BUS3,A23,A23*%
%TO.N,/B~{AS}*%
X44450000Y-69850000D03*
%TO.P,BUS3,A24,A24*%
%TO.N,/B~{UDS}*%
X41910000Y-69850000D03*
%TO.P,BUS3,A25,A25*%
%TO.N,/B~{LDS}*%
X39370000Y-69850000D03*
%TO.P,BUS3,A26,A26*%
%TO.N,/BR{slash}~{W}*%
X36830000Y-69850000D03*
%TO.P,BUS3,A27,A27*%
%TO.N,/~{DTACK}*%
X34290000Y-69850000D03*
%TO.P,BUS3,A28,A28*%
%TO.N,/~{BG}*%
X31750000Y-69850000D03*
%TO.P,BUS3,A29,A29*%
%TO.N,/~{BGACK}*%
X29210000Y-69850000D03*
%TO.P,BUS3,A30,A30*%
%TO.N,/~{BR}*%
X26670000Y-69850000D03*
%TO.P,BUS3,A31,A31*%
%TO.N,unconnected-(BUS3-PadA31)*%
X24130000Y-69850000D03*
%TO.P,BUS3,A32,A32*%
%TO.N,/B~{AVEC}*%
X21590000Y-69850000D03*
%TO.P,BUS3,B1,B1*%
%TO.N,-5V*%
X100330000Y-72390000D03*
%TO.P,BUS3,B2,B2*%
%TO.N,+12V*%
X97790000Y-72390000D03*
%TO.P,BUS3,B3,B3*%
%TO.N,-12V*%
X95250000Y-72390000D03*
%TO.P,BUS3,B4,B4*%
%TO.N,GND*%
X92710000Y-72390000D03*
%TO.P,BUS3,B5,B5*%
%TO.N,/~{DACK}*%
X90170000Y-72390000D03*
%TO.P,BUS3,B6,B6*%
%TO.N,/~{DONE}*%
X87630000Y-72390000D03*
%TO.P,BUS3,B7,B7*%
%TO.N,/~{WDOG}*%
X85090000Y-72390000D03*
%TO.P,BUS3,B8,B8*%
%TO.N,/~{TOUT2}*%
X82550000Y-72390000D03*
%TO.P,BUS3,B9,B9*%
%TO.N,/TIN2*%
X80010000Y-72390000D03*
%TO.P,BUS3,B10,B10*%
%TO.N,/~{TOUT1}*%
X77470000Y-72390000D03*
%TO.P,BUS3,B11,B11*%
%TO.N,/TIN1*%
X74930000Y-72390000D03*
%TO.P,BUS3,B12,B12*%
%TO.N,/~{BERR}*%
X72390000Y-72390000D03*
%TO.P,BUS3,B13,B13*%
%TO.N,/~{IPL2}*%
X69850000Y-72390000D03*
%TO.P,BUS3,B14,B14*%
%TO.N,/~{IPL1}*%
X67310000Y-72390000D03*
%TO.P,BUS3,B15,B15*%
%TO.N,/~{IPL0}*%
X64770000Y-72390000D03*
%TO.P,BUS3,B16,B16*%
%TO.N,VCC*%
X62230000Y-72390000D03*
%TO.P,BUS3,B17,B17*%
X59690000Y-72390000D03*
%TO.P,BUS3,B18,B18*%
X57150000Y-72390000D03*
%TO.P,BUS3,B19,B19*%
X54610000Y-72390000D03*
%TO.P,BUS3,B20,B20*%
X52070000Y-72390000D03*
%TO.P,BUS3,B21,B21*%
%TO.N,/~{HALT}*%
X49530000Y-72390000D03*
%TO.P,BUS3,B22,B22*%
%TO.N,/~{CS2}*%
X46990000Y-72390000D03*
%TO.P,BUS3,B23,B23*%
%TO.N,/~{CS3}*%
X44450000Y-72390000D03*
%TO.P,BUS3,B24,B24*%
%TO.N,GND*%
X41910000Y-72390000D03*
%TO.P,BUS3,B25,B25*%
X39370000Y-72390000D03*
%TO.P,BUS3,B26,B26*%
X36830000Y-72390000D03*
%TO.P,BUS3,B27,B27*%
X34290000Y-72390000D03*
%TO.P,BUS3,B28,B28*%
X31750000Y-72390000D03*
%TO.P,BUS3,B29,B29*%
X29210000Y-72390000D03*
%TO.P,BUS3,B30,B30*%
X26670000Y-72390000D03*
%TO.P,BUS3,B31,B31*%
X24130000Y-72390000D03*
%TO.P,BUS3,B32,B32*%
X21590000Y-72390000D03*
%TO.P,BUS3,C1,C1*%
%TO.N,+12V*%
X100330000Y-74930000D03*
%TO.P,BUS3,C2,C2*%
X97790000Y-74930000D03*
%TO.P,BUS3,C3,C3*%
%TO.N,GND*%
X95250000Y-74930000D03*
%TO.P,BUS3,C4,C4*%
%TO.N,/CLKO*%
X92710000Y-74930000D03*
%TO.P,BUS3,C5,C5*%
X90170000Y-74930000D03*
%TO.P,BUS3,C6,C6*%
%TO.N,unconnected-(BUS3-PadC6)*%
X87630000Y-74930000D03*
%TO.P,BUS3,C7,C7*%
%TO.N,/BA23*%
X85090000Y-74930000D03*
%TO.P,BUS3,C8,C8*%
%TO.N,/BA22*%
X82550000Y-74930000D03*
%TO.P,BUS3,C9,C9*%
%TO.N,/BA21*%
X80010000Y-74930000D03*
%TO.P,BUS3,C10,C10*%
%TO.N,/BA20*%
X77470000Y-74930000D03*
%TO.P,BUS3,C11,C11*%
%TO.N,/BA19*%
X74930000Y-74930000D03*
%TO.P,BUS3,C12,C12*%
%TO.N,/BA18*%
X72390000Y-74930000D03*
%TO.P,BUS3,C13,C13*%
%TO.N,/BA17*%
X69850000Y-74930000D03*
%TO.P,BUS3,C14,C14*%
%TO.N,/BA16*%
X67310000Y-74930000D03*
%TO.P,BUS3,C15,C15*%
%TO.N,/BA15*%
X64770000Y-74930000D03*
%TO.P,BUS3,C16,C16*%
%TO.N,/BA14*%
X62230000Y-74930000D03*
%TO.P,BUS3,C17,C17*%
%TO.N,/BA13*%
X59690000Y-74930000D03*
%TO.P,BUS3,C18,C18*%
%TO.N,/BA12*%
X57150000Y-74930000D03*
%TO.P,BUS3,C19,C19*%
%TO.N,/BA11*%
X54610000Y-74930000D03*
%TO.P,BUS3,C20,C20*%
%TO.N,/BA10*%
X52070000Y-74930000D03*
%TO.P,BUS3,C21,C21*%
%TO.N,/BA9*%
X49530000Y-74930000D03*
%TO.P,BUS3,C22,C22*%
%TO.N,/BA8*%
X46990000Y-74930000D03*
%TO.P,BUS3,C23,C23*%
%TO.N,/BA7*%
X44450000Y-74930000D03*
%TO.P,BUS3,C24,C24*%
%TO.N,/BA6*%
X41910000Y-74930000D03*
%TO.P,BUS3,C25,C25*%
%TO.N,/BA5*%
X39370000Y-74930000D03*
%TO.P,BUS3,C26,C26*%
%TO.N,/BA4*%
X36830000Y-74930000D03*
%TO.P,BUS3,C27,C27*%
%TO.N,/BA3*%
X34290000Y-74930000D03*
%TO.P,BUS3,C28,C28*%
%TO.N,/BA2*%
X31750000Y-74930000D03*
%TO.P,BUS3,C29,C29*%
%TO.N,/BA1*%
X29210000Y-74930000D03*
%TO.P,BUS3,C30,C30*%
%TO.N,/BFC0*%
X26670000Y-74930000D03*
%TO.P,BUS3,C31,C31*%
%TO.N,/BFC1*%
X24130000Y-74930000D03*
%TO.P,BUS3,C32,C32*%
%TO.N,/BFC2*%
X21590000Y-74930000D03*
D17*
%TO.P,BUS3,M,M*%
%TO.N,GND*%
X15913100Y-72390000D03*
X106006900Y-72390000D03*
%TD*%
D16*
%TO.P,BUS2,A1,A1*%
%TO.N,-12V*%
X100330000Y-49530000D03*
%TO.P,BUS2,A2,A2*%
%TO.N,/~{CS1}*%
X97790000Y-49530000D03*
%TO.P,BUS2,A3,A3*%
%TO.N,GND*%
X95250000Y-49530000D03*
%TO.P,BUS2,A4,A4*%
%TO.N,/DB15*%
X92710000Y-49530000D03*
%TO.P,BUS2,A5,A5*%
%TO.N,/DB14*%
X90170000Y-49530000D03*
%TO.P,BUS2,A6,A6*%
%TO.N,/DB13*%
X87630000Y-49530000D03*
%TO.P,BUS2,A7,A7*%
%TO.N,/DB12*%
X85090000Y-49530000D03*
%TO.P,BUS2,A8,A8*%
%TO.N,/DB11*%
X82550000Y-49530000D03*
%TO.P,BUS2,A9,A9*%
%TO.N,/DB10*%
X80010000Y-49530000D03*
%TO.P,BUS2,A10,A10*%
%TO.N,/DB9*%
X77470000Y-49530000D03*
%TO.P,BUS2,A11,A11*%
%TO.N,/DB8*%
X74930000Y-49530000D03*
%TO.P,BUS2,A12,A12*%
%TO.N,/DB7*%
X72390000Y-49530000D03*
%TO.P,BUS2,A13,A13*%
%TO.N,/DB6*%
X69850000Y-49530000D03*
%TO.P,BUS2,A14,A14*%
%TO.N,/DB5*%
X67310000Y-49530000D03*
%TO.P,BUS2,A15,A15*%
%TO.N,/DB4*%
X64770000Y-49530000D03*
%TO.P,BUS2,A16,A16*%
%TO.N,/DB3*%
X62230000Y-49530000D03*
%TO.P,BUS2,A17,A17*%
%TO.N,/DB2*%
X59690000Y-49530000D03*
%TO.P,BUS2,A18,A18*%
%TO.N,/DB1*%
X57150000Y-49530000D03*
%TO.P,BUS2,A19,A19*%
%TO.N,/DB0*%
X54610000Y-49530000D03*
%TO.P,BUS2,A20,A20*%
%TO.N,VCC*%
X52070000Y-49530000D03*
%TO.P,BUS2,A21,A21*%
%TO.N,/~{RESET}*%
X49530000Y-49530000D03*
%TO.P,BUS2,A22,A22*%
%TO.N,unconnected-(BUS2-PadA22)*%
X46990000Y-49530000D03*
%TO.P,BUS2,A23,A23*%
%TO.N,/B~{AS}*%
X44450000Y-49530000D03*
%TO.P,BUS2,A24,A24*%
%TO.N,/B~{UDS}*%
X41910000Y-49530000D03*
%TO.P,BUS2,A25,A25*%
%TO.N,/B~{LDS}*%
X39370000Y-49530000D03*
%TO.P,BUS2,A26,A26*%
%TO.N,/BR{slash}~{W}*%
X36830000Y-49530000D03*
%TO.P,BUS2,A27,A27*%
%TO.N,/~{DTACK}*%
X34290000Y-49530000D03*
%TO.P,BUS2,A28,A28*%
%TO.N,/~{BG}*%
X31750000Y-49530000D03*
%TO.P,BUS2,A29,A29*%
%TO.N,/~{BGACK}*%
X29210000Y-49530000D03*
%TO.P,BUS2,A30,A30*%
%TO.N,/~{BR}*%
X26670000Y-49530000D03*
%TO.P,BUS2,A31,A31*%
%TO.N,unconnected-(BUS2-PadA31)*%
X24130000Y-49530000D03*
%TO.P,BUS2,A32,A32*%
%TO.N,/B~{AVEC}*%
X21590000Y-49530000D03*
%TO.P,BUS2,B1,B1*%
%TO.N,-5V*%
X100330000Y-52070000D03*
%TO.P,BUS2,B2,B2*%
%TO.N,+12V*%
X97790000Y-52070000D03*
%TO.P,BUS2,B3,B3*%
%TO.N,-12V*%
X95250000Y-52070000D03*
%TO.P,BUS2,B4,B4*%
%TO.N,GND*%
X92710000Y-52070000D03*
%TO.P,BUS2,B5,B5*%
%TO.N,/~{DACK}*%
X90170000Y-52070000D03*
%TO.P,BUS2,B6,B6*%
%TO.N,/~{DONE}*%
X87630000Y-52070000D03*
%TO.P,BUS2,B7,B7*%
%TO.N,/~{WDOG}*%
X85090000Y-52070000D03*
%TO.P,BUS2,B8,B8*%
%TO.N,/~{TOUT2}*%
X82550000Y-52070000D03*
%TO.P,BUS2,B9,B9*%
%TO.N,/TIN2*%
X80010000Y-52070000D03*
%TO.P,BUS2,B10,B10*%
%TO.N,/~{TOUT1}*%
X77470000Y-52070000D03*
%TO.P,BUS2,B11,B11*%
%TO.N,/TIN1*%
X74930000Y-52070000D03*
%TO.P,BUS2,B12,B12*%
%TO.N,/~{BERR}*%
X72390000Y-52070000D03*
%TO.P,BUS2,B13,B13*%
%TO.N,/~{IPL2}*%
X69850000Y-52070000D03*
%TO.P,BUS2,B14,B14*%
%TO.N,/~{IPL1}*%
X67310000Y-52070000D03*
%TO.P,BUS2,B15,B15*%
%TO.N,/~{IPL0}*%
X64770000Y-52070000D03*
%TO.P,BUS2,B16,B16*%
%TO.N,VCC*%
X62230000Y-52070000D03*
%TO.P,BUS2,B17,B17*%
X59690000Y-52070000D03*
%TO.P,BUS2,B18,B18*%
X57150000Y-52070000D03*
%TO.P,BUS2,B19,B19*%
X54610000Y-52070000D03*
%TO.P,BUS2,B20,B20*%
X52070000Y-52070000D03*
%TO.P,BUS2,B21,B21*%
%TO.N,/~{HALT}*%
X49530000Y-52070000D03*
%TO.P,BUS2,B22,B22*%
%TO.N,/~{CS2}*%
X46990000Y-52070000D03*
%TO.P,BUS2,B23,B23*%
%TO.N,/~{CS3}*%
X44450000Y-52070000D03*
%TO.P,BUS2,B24,B24*%
%TO.N,GND*%
X41910000Y-52070000D03*
%TO.P,BUS2,B25,B25*%
X39370000Y-52070000D03*
%TO.P,BUS2,B26,B26*%
X36830000Y-52070000D03*
%TO.P,BUS2,B27,B27*%
X34290000Y-52070000D03*
%TO.P,BUS2,B28,B28*%
X31750000Y-52070000D03*
%TO.P,BUS2,B29,B29*%
X29210000Y-52070000D03*
%TO.P,BUS2,B30,B30*%
X26670000Y-52070000D03*
%TO.P,BUS2,B31,B31*%
X24130000Y-52070000D03*
%TO.P,BUS2,B32,B32*%
X21590000Y-52070000D03*
%TO.P,BUS2,C1,C1*%
%TO.N,+12V*%
X100330000Y-54610000D03*
%TO.P,BUS2,C2,C2*%
X97790000Y-54610000D03*
%TO.P,BUS2,C3,C3*%
%TO.N,GND*%
X95250000Y-54610000D03*
%TO.P,BUS2,C4,C4*%
%TO.N,/CLKO*%
X92710000Y-54610000D03*
%TO.P,BUS2,C5,C5*%
X90170000Y-54610000D03*
%TO.P,BUS2,C6,C6*%
%TO.N,unconnected-(BUS2-PadC6)*%
X87630000Y-54610000D03*
%TO.P,BUS2,C7,C7*%
%TO.N,/BA23*%
X85090000Y-54610000D03*
%TO.P,BUS2,C8,C8*%
%TO.N,/BA22*%
X82550000Y-54610000D03*
%TO.P,BUS2,C9,C9*%
%TO.N,/BA21*%
X80010000Y-54610000D03*
%TO.P,BUS2,C10,C10*%
%TO.N,/BA20*%
X77470000Y-54610000D03*
%TO.P,BUS2,C11,C11*%
%TO.N,/BA19*%
X74930000Y-54610000D03*
%TO.P,BUS2,C12,C12*%
%TO.N,/BA18*%
X72390000Y-54610000D03*
%TO.P,BUS2,C13,C13*%
%TO.N,/BA17*%
X69850000Y-54610000D03*
%TO.P,BUS2,C14,C14*%
%TO.N,/BA16*%
X67310000Y-54610000D03*
%TO.P,BUS2,C15,C15*%
%TO.N,/BA15*%
X64770000Y-54610000D03*
%TO.P,BUS2,C16,C16*%
%TO.N,/BA14*%
X62230000Y-54610000D03*
%TO.P,BUS2,C17,C17*%
%TO.N,/BA13*%
X59690000Y-54610000D03*
%TO.P,BUS2,C18,C18*%
%TO.N,/BA12*%
X57150000Y-54610000D03*
%TO.P,BUS2,C19,C19*%
%TO.N,/BA11*%
X54610000Y-54610000D03*
%TO.P,BUS2,C20,C20*%
%TO.N,/BA10*%
X52070000Y-54610000D03*
%TO.P,BUS2,C21,C21*%
%TO.N,/BA9*%
X49530000Y-54610000D03*
%TO.P,BUS2,C22,C22*%
%TO.N,/BA8*%
X46990000Y-54610000D03*
%TO.P,BUS2,C23,C23*%
%TO.N,/BA7*%
X44450000Y-54610000D03*
%TO.P,BUS2,C24,C24*%
%TO.N,/BA6*%
X41910000Y-54610000D03*
%TO.P,BUS2,C25,C25*%
%TO.N,/BA5*%
X39370000Y-54610000D03*
%TO.P,BUS2,C26,C26*%
%TO.N,/BA4*%
X36830000Y-54610000D03*
%TO.P,BUS2,C27,C27*%
%TO.N,/BA3*%
X34290000Y-54610000D03*
%TO.P,BUS2,C28,C28*%
%TO.N,/BA2*%
X31750000Y-54610000D03*
%TO.P,BUS2,C29,C29*%
%TO.N,/BA1*%
X29210000Y-54610000D03*
%TO.P,BUS2,C30,C30*%
%TO.N,/BFC0*%
X26670000Y-54610000D03*
%TO.P,BUS2,C31,C31*%
%TO.N,/BFC1*%
X24130000Y-54610000D03*
%TO.P,BUS2,C32,C32*%
%TO.N,/BFC2*%
X21590000Y-54610000D03*
D17*
%TO.P,BUS2,M,M*%
%TO.N,GND*%
X15913100Y-52070000D03*
X106006900Y-52070000D03*
%TD*%
D16*
%TO.P,BUS1,A1,A1*%
%TO.N,-12V*%
X100330000Y-29210000D03*
%TO.P,BUS1,A2,A2*%
%TO.N,/~{CS1}*%
X97790000Y-29210000D03*
%TO.P,BUS1,A3,A3*%
%TO.N,GND*%
X95250000Y-29210000D03*
%TO.P,BUS1,A4,A4*%
%TO.N,/DB15*%
X92710000Y-29210000D03*
%TO.P,BUS1,A5,A5*%
%TO.N,/DB14*%
X90170000Y-29210000D03*
%TO.P,BUS1,A6,A6*%
%TO.N,/DB13*%
X87630000Y-29210000D03*
%TO.P,BUS1,A7,A7*%
%TO.N,/DB12*%
X85090000Y-29210000D03*
%TO.P,BUS1,A8,A8*%
%TO.N,/DB11*%
X82550000Y-29210000D03*
%TO.P,BUS1,A9,A9*%
%TO.N,/DB10*%
X80010000Y-29210000D03*
%TO.P,BUS1,A10,A10*%
%TO.N,/DB9*%
X77470000Y-29210000D03*
%TO.P,BUS1,A11,A11*%
%TO.N,/DB8*%
X74930000Y-29210000D03*
%TO.P,BUS1,A12,A12*%
%TO.N,/DB7*%
X72390000Y-29210000D03*
%TO.P,BUS1,A13,A13*%
%TO.N,/DB6*%
X69850000Y-29210000D03*
%TO.P,BUS1,A14,A14*%
%TO.N,/DB5*%
X67310000Y-29210000D03*
%TO.P,BUS1,A15,A15*%
%TO.N,/DB4*%
X64770000Y-29210000D03*
%TO.P,BUS1,A16,A16*%
%TO.N,/DB3*%
X62230000Y-29210000D03*
%TO.P,BUS1,A17,A17*%
%TO.N,/DB2*%
X59690000Y-29210000D03*
%TO.P,BUS1,A18,A18*%
%TO.N,/DB1*%
X57150000Y-29210000D03*
%TO.P,BUS1,A19,A19*%
%TO.N,/DB0*%
X54610000Y-29210000D03*
%TO.P,BUS1,A20,A20*%
%TO.N,VCC*%
X52070000Y-29210000D03*
%TO.P,BUS1,A21,A21*%
%TO.N,/~{RESET}*%
X49530000Y-29210000D03*
%TO.P,BUS1,A22,A22*%
%TO.N,unconnected-(BUS1-PadA22)*%
X46990000Y-29210000D03*
%TO.P,BUS1,A23,A23*%
%TO.N,/B~{AS}*%
X44450000Y-29210000D03*
%TO.P,BUS1,A24,A24*%
%TO.N,/B~{UDS}*%
X41910000Y-29210000D03*
%TO.P,BUS1,A25,A25*%
%TO.N,/B~{LDS}*%
X39370000Y-29210000D03*
%TO.P,BUS1,A26,A26*%
%TO.N,/BR{slash}~{W}*%
X36830000Y-29210000D03*
%TO.P,BUS1,A27,A27*%
%TO.N,/~{DTACK}*%
X34290000Y-29210000D03*
%TO.P,BUS1,A28,A28*%
%TO.N,/~{BG}*%
X31750000Y-29210000D03*
%TO.P,BUS1,A29,A29*%
%TO.N,/~{BGACK}*%
X29210000Y-29210000D03*
%TO.P,BUS1,A30,A30*%
%TO.N,/~{BR}*%
X26670000Y-29210000D03*
%TO.P,BUS1,A31,A31*%
%TO.N,unconnected-(BUS1-PadA31)*%
X24130000Y-29210000D03*
%TO.P,BUS1,A32,A32*%
%TO.N,/B~{AVEC}*%
X21590000Y-29210000D03*
%TO.P,BUS1,B1,B1*%
%TO.N,-5V*%
X100330000Y-31750000D03*
%TO.P,BUS1,B2,B2*%
%TO.N,+12V*%
X97790000Y-31750000D03*
%TO.P,BUS1,B3,B3*%
%TO.N,-12V*%
X95250000Y-31750000D03*
%TO.P,BUS1,B4,B4*%
%TO.N,GND*%
X92710000Y-31750000D03*
%TO.P,BUS1,B5,B5*%
%TO.N,/~{DACK}*%
X90170000Y-31750000D03*
%TO.P,BUS1,B6,B6*%
%TO.N,/~{DONE}*%
X87630000Y-31750000D03*
%TO.P,BUS1,B7,B7*%
%TO.N,/~{WDOG}*%
X85090000Y-31750000D03*
%TO.P,BUS1,B8,B8*%
%TO.N,/~{TOUT2}*%
X82550000Y-31750000D03*
%TO.P,BUS1,B9,B9*%
%TO.N,/TIN2*%
X80010000Y-31750000D03*
%TO.P,BUS1,B10,B10*%
%TO.N,/~{TOUT1}*%
X77470000Y-31750000D03*
%TO.P,BUS1,B11,B11*%
%TO.N,/TIN1*%
X74930000Y-31750000D03*
%TO.P,BUS1,B12,B12*%
%TO.N,/~{BERR}*%
X72390000Y-31750000D03*
%TO.P,BUS1,B13,B13*%
%TO.N,/~{IPL2}*%
X69850000Y-31750000D03*
%TO.P,BUS1,B14,B14*%
%TO.N,/~{IPL1}*%
X67310000Y-31750000D03*
%TO.P,BUS1,B15,B15*%
%TO.N,/~{IPL0}*%
X64770000Y-31750000D03*
%TO.P,BUS1,B16,B16*%
%TO.N,VCC*%
X62230000Y-31750000D03*
%TO.P,BUS1,B17,B17*%
X59690000Y-31750000D03*
%TO.P,BUS1,B18,B18*%
X57150000Y-31750000D03*
%TO.P,BUS1,B19,B19*%
X54610000Y-31750000D03*
%TO.P,BUS1,B20,B20*%
X52070000Y-31750000D03*
%TO.P,BUS1,B21,B21*%
%TO.N,/~{HALT}*%
X49530000Y-31750000D03*
%TO.P,BUS1,B22,B22*%
%TO.N,/~{CS2}*%
X46990000Y-31750000D03*
%TO.P,BUS1,B23,B23*%
%TO.N,/~{CS3}*%
X44450000Y-31750000D03*
%TO.P,BUS1,B24,B24*%
%TO.N,GND*%
X41910000Y-31750000D03*
%TO.P,BUS1,B25,B25*%
X39370000Y-31750000D03*
%TO.P,BUS1,B26,B26*%
X36830000Y-31750000D03*
%TO.P,BUS1,B27,B27*%
X34290000Y-31750000D03*
%TO.P,BUS1,B28,B28*%
X31750000Y-31750000D03*
%TO.P,BUS1,B29,B29*%
X29210000Y-31750000D03*
%TO.P,BUS1,B30,B30*%
X26670000Y-31750000D03*
%TO.P,BUS1,B31,B31*%
X24130000Y-31750000D03*
%TO.P,BUS1,B32,B32*%
X21590000Y-31750000D03*
%TO.P,BUS1,C1,C1*%
%TO.N,+12V*%
X100330000Y-34290000D03*
%TO.P,BUS1,C2,C2*%
X97790000Y-34290000D03*
%TO.P,BUS1,C3,C3*%
%TO.N,GND*%
X95250000Y-34290000D03*
%TO.P,BUS1,C4,C4*%
%TO.N,/CLKO*%
X92710000Y-34290000D03*
%TO.P,BUS1,C5,C5*%
X90170000Y-34290000D03*
%TO.P,BUS1,C6,C6*%
%TO.N,unconnected-(BUS1-PadC6)*%
X87630000Y-34290000D03*
%TO.P,BUS1,C7,C7*%
%TO.N,/BA23*%
X85090000Y-34290000D03*
%TO.P,BUS1,C8,C8*%
%TO.N,/BA22*%
X82550000Y-34290000D03*
%TO.P,BUS1,C9,C9*%
%TO.N,/BA21*%
X80010000Y-34290000D03*
%TO.P,BUS1,C10,C10*%
%TO.N,/BA20*%
X77470000Y-34290000D03*
%TO.P,BUS1,C11,C11*%
%TO.N,/BA19*%
X74930000Y-34290000D03*
%TO.P,BUS1,C12,C12*%
%TO.N,/BA18*%
X72390000Y-34290000D03*
%TO.P,BUS1,C13,C13*%
%TO.N,/BA17*%
X69850000Y-34290000D03*
%TO.P,BUS1,C14,C14*%
%TO.N,/BA16*%
X67310000Y-34290000D03*
%TO.P,BUS1,C15,C15*%
%TO.N,/BA15*%
X64770000Y-34290000D03*
%TO.P,BUS1,C16,C16*%
%TO.N,/BA14*%
X62230000Y-34290000D03*
%TO.P,BUS1,C17,C17*%
%TO.N,/BA13*%
X59690000Y-34290000D03*
%TO.P,BUS1,C18,C18*%
%TO.N,/BA12*%
X57150000Y-34290000D03*
%TO.P,BUS1,C19,C19*%
%TO.N,/BA11*%
X54610000Y-34290000D03*
%TO.P,BUS1,C20,C20*%
%TO.N,/BA10*%
X52070000Y-34290000D03*
%TO.P,BUS1,C21,C21*%
%TO.N,/BA9*%
X49530000Y-34290000D03*
%TO.P,BUS1,C22,C22*%
%TO.N,/BA8*%
X46990000Y-34290000D03*
%TO.P,BUS1,C23,C23*%
%TO.N,/BA7*%
X44450000Y-34290000D03*
%TO.P,BUS1,C24,C24*%
%TO.N,/BA6*%
X41910000Y-34290000D03*
%TO.P,BUS1,C25,C25*%
%TO.N,/BA5*%
X39370000Y-34290000D03*
%TO.P,BUS1,C26,C26*%
%TO.N,/BA4*%
X36830000Y-34290000D03*
%TO.P,BUS1,C27,C27*%
%TO.N,/BA3*%
X34290000Y-34290000D03*
%TO.P,BUS1,C28,C28*%
%TO.N,/BA2*%
X31750000Y-34290000D03*
%TO.P,BUS1,C29,C29*%
%TO.N,/BA1*%
X29210000Y-34290000D03*
%TO.P,BUS1,C30,C30*%
%TO.N,/BFC0*%
X26670000Y-34290000D03*
%TO.P,BUS1,C31,C31*%
%TO.N,/BFC1*%
X24130000Y-34290000D03*
%TO.P,BUS1,C32,C32*%
%TO.N,/BFC2*%
X21590000Y-34290000D03*
D17*
%TO.P,BUS1,M,M*%
%TO.N,GND*%
X15913100Y-31750000D03*
X106006900Y-31750000D03*
%TD*%
D18*
%TO.N,-12V*%
X112128000Y-49416000D03*
X112128000Y-69710000D03*
X112128000Y-90030000D03*
X112128000Y-110604000D03*
X112128000Y-130924000D03*
X112014000Y-151130000D03*
%TO.N,GND*%
X88138000Y-144644269D03*
X96016722Y-144644269D03*
X108716722Y-144644269D03*
%TO.N,-12V*%
X92456000Y-144644269D03*
%TO.N,GND*%
X64266722Y-144644269D03*
%TO.N,VCC*%
X51566722Y-144644269D03*
X59694722Y-144644269D03*
%TO.N,+12V*%
X104144722Y-144644269D03*
%TO.N,GND*%
X56138722Y-144644269D03*
X56197389Y-124345390D03*
X96075389Y-124345390D03*
X64325389Y-124345390D03*
X108775389Y-124345390D03*
%TO.N,VCC*%
X59753389Y-124345390D03*
%TO.N,-12V*%
X92514667Y-124345390D03*
%TO.N,+12V*%
X104203389Y-124345390D03*
%TO.N,VCC*%
X51625389Y-124345390D03*
%TO.N,GND*%
X88196667Y-124345390D03*
X56256057Y-104046511D03*
X96134057Y-104046511D03*
%TO.N,VCC*%
X51684057Y-104046511D03*
%TO.N,GND*%
X64384057Y-104046511D03*
X108834057Y-104046511D03*
%TO.N,VCC*%
X59812057Y-104046511D03*
%TO.N,-12V*%
X92573335Y-104046511D03*
%TO.N,+12V*%
X104262057Y-104046511D03*
%TO.N,GND*%
X88255335Y-104046511D03*
%TO.N,-12V*%
X92632002Y-83747632D03*
%TO.N,VCC*%
X51742724Y-83747632D03*
%TO.N,+12V*%
X104320724Y-83747632D03*
%TO.N,GND*%
X56314724Y-83747632D03*
X64442724Y-83747632D03*
X88314002Y-83747632D03*
%TO.N,VCC*%
X59870724Y-83747632D03*
%TO.N,GND*%
X108892724Y-83747632D03*
X96192724Y-83747632D03*
X64467913Y-63479328D03*
X88339191Y-63479328D03*
%TO.N,VCC*%
X59895913Y-63479328D03*
%TO.N,GND*%
X108917913Y-63479328D03*
X56339913Y-63479328D03*
X96217913Y-63479328D03*
%TO.N,-12V*%
X92657191Y-63479328D03*
%TO.N,VCC*%
X51767913Y-63479328D03*
%TO.N,+12V*%
X104345913Y-63479328D03*
%TO.N,GND*%
X88365266Y-43167412D03*
%TO.N,VCC*%
X59921988Y-43167412D03*
%TO.N,GND*%
X108943988Y-43167412D03*
%TO.N,VCC*%
X51793988Y-43167412D03*
%TO.N,-12V*%
X92683266Y-43167412D03*
%TO.N,GND*%
X64493988Y-43167412D03*
X96243988Y-43167412D03*
%TO.N,+12V*%
X104371988Y-43167412D03*
%TO.N,GND*%
X56365988Y-43167412D03*
X103632000Y-12700000D03*
X99568000Y-13208000D03*
X86868000Y-13208000D03*
%TO.N,-5V*%
X100838000Y-22860000D03*
%TO.N,GND*%
X96266000Y-22860000D03*
X108966000Y-22860000D03*
%TO.N,+12V*%
X104394000Y-22860000D03*
%TO.N,GND*%
X88387278Y-22860000D03*
X64516000Y-22860000D03*
%TO.N,VCC*%
X59944000Y-22860000D03*
%TO.N,GND*%
X56388000Y-22860000D03*
%TO.N,VCC*%
X51816000Y-22860000D03*
%TD*%
D19*
%TO.N,/DB1*%
X55372000Y-149352000D02*
X57150000Y-151130000D01*
X55911000Y-132049000D02*
X55911000Y-140685000D01*
X57150000Y-130810000D02*
X55911000Y-132049000D01*
X55372000Y-141224000D02*
X55372000Y-149352000D01*
X55911000Y-140685000D02*
X55372000Y-141224000D01*
X57150000Y-110490000D02*
X55911000Y-111729000D01*
X55911000Y-120365000D02*
X55372000Y-120904000D01*
X55372000Y-120904000D02*
X55372000Y-129032000D01*
X55911000Y-111729000D02*
X55911000Y-120365000D01*
X55372000Y-129032000D02*
X57150000Y-130810000D01*
X57150000Y-90170000D02*
X55911000Y-91409000D01*
X55372000Y-100584000D02*
X55372000Y-108712000D01*
X55911000Y-100045000D02*
X55372000Y-100584000D01*
X55911000Y-91409000D02*
X55911000Y-100045000D01*
X55372000Y-108712000D02*
X57150000Y-110490000D01*
X57150000Y-69850000D02*
X55911000Y-71089000D01*
X55372000Y-80264000D02*
X55372000Y-88392000D01*
X55911000Y-79725000D02*
X55372000Y-80264000D01*
X55911000Y-71089000D02*
X55911000Y-79725000D01*
X55372000Y-88392000D02*
X57150000Y-90170000D01*
X55911000Y-50769000D02*
X55911000Y-59405000D01*
X57150000Y-49530000D02*
X55911000Y-50769000D01*
X55911000Y-59405000D02*
X55372000Y-59944000D01*
X55372000Y-59944000D02*
X55372000Y-68072000D01*
X55372000Y-68072000D02*
X57150000Y-69850000D01*
X55372000Y-47752000D02*
X57150000Y-49530000D01*
X55372000Y-39624000D02*
X55372000Y-47752000D01*
X55911000Y-39085000D02*
X55372000Y-39624000D01*
X55911000Y-30449000D02*
X55911000Y-39085000D01*
X57150000Y-29210000D02*
X55911000Y-30449000D01*
D20*
%TO.N,/DB11*%
X81361000Y-30399000D02*
X81361000Y-48341000D01*
X82550000Y-130810000D02*
X81361000Y-131999000D01*
X82550000Y-69850000D02*
X81361000Y-71039000D01*
X81361000Y-109301000D02*
X82550000Y-110490000D01*
X82550000Y-110490000D02*
X81361000Y-111679000D01*
X81361000Y-129621000D02*
X82550000Y-130810000D01*
X82550000Y-29210000D02*
X81361000Y-30399000D01*
X81361000Y-91359000D02*
X81361000Y-109301000D01*
X81361000Y-88981000D02*
X82550000Y-90170000D01*
X82550000Y-49530000D02*
X81361000Y-50719000D01*
X81361000Y-149941000D02*
X82550000Y-151130000D01*
X81361000Y-48341000D02*
X82550000Y-49530000D01*
X81361000Y-131999000D02*
X81361000Y-149941000D01*
X81361000Y-111679000D02*
X81361000Y-129621000D01*
X81361000Y-71039000D02*
X81361000Y-88981000D01*
X81361000Y-68661000D02*
X82550000Y-69850000D01*
X81361000Y-50719000D02*
X81361000Y-68661000D01*
X82550000Y-90170000D02*
X81361000Y-91359000D01*
%TO.N,/DB10*%
X78821000Y-131999000D02*
X78821000Y-149941000D01*
X78821000Y-129621000D02*
X80010000Y-130810000D01*
X78821000Y-48341000D02*
X80010000Y-49530000D01*
X78821000Y-91359000D02*
X78821000Y-109301000D01*
X78821000Y-71039000D02*
X78821000Y-88981000D01*
X78821000Y-88981000D02*
X80010000Y-90170000D01*
X78821000Y-109301000D02*
X80010000Y-110490000D01*
X78821000Y-111679000D02*
X78821000Y-129621000D01*
X80010000Y-49530000D02*
X78821000Y-50719000D01*
X80010000Y-29210000D02*
X78821000Y-30399000D01*
X80010000Y-130810000D02*
X78821000Y-131999000D01*
X80010000Y-110490000D02*
X78821000Y-111679000D01*
X78821000Y-149941000D02*
X80010000Y-151130000D01*
X80010000Y-69850000D02*
X78821000Y-71039000D01*
X78821000Y-30399000D02*
X78821000Y-48341000D01*
X78821000Y-68661000D02*
X80010000Y-69850000D01*
X78821000Y-50719000D02*
X78821000Y-68661000D01*
X80010000Y-90170000D02*
X78821000Y-91359000D01*
%TO.N,/DB9*%
X76281000Y-131999000D02*
X76281000Y-149941000D01*
X77470000Y-49530000D02*
X76281000Y-50719000D01*
X76281000Y-91359000D02*
X76281000Y-109301000D01*
X76281000Y-88981000D02*
X77470000Y-90170000D01*
X76281000Y-129621000D02*
X77470000Y-130810000D01*
X76281000Y-71039000D02*
X76281000Y-88981000D01*
X76281000Y-48341000D02*
X77470000Y-49530000D01*
X76281000Y-111679000D02*
X76281000Y-129621000D01*
X76281000Y-109301000D02*
X77470000Y-110490000D01*
X76281000Y-149941000D02*
X77470000Y-151130000D01*
X77470000Y-130810000D02*
X76281000Y-131999000D01*
X77470000Y-110490000D02*
X76281000Y-111679000D01*
X77470000Y-69850000D02*
X76281000Y-71039000D01*
X76281000Y-30399000D02*
X76281000Y-48341000D01*
X76281000Y-68661000D02*
X77470000Y-69850000D01*
X77470000Y-29210000D02*
X76281000Y-30399000D01*
X77470000Y-90170000D02*
X76281000Y-91359000D01*
X76281000Y-50719000D02*
X76281000Y-68661000D01*
%TO.N,/DB8*%
X74930000Y-49530000D02*
X73741000Y-50719000D01*
X73741000Y-149941000D02*
X74930000Y-151130000D01*
X73741000Y-91359000D02*
X73741000Y-109301000D01*
X74930000Y-130810000D02*
X73741000Y-131999000D01*
X73741000Y-30399000D02*
X73741000Y-48341000D01*
X74930000Y-69850000D02*
X73741000Y-71039000D01*
X73741000Y-131999000D02*
X73741000Y-149941000D01*
X74930000Y-110490000D02*
X73741000Y-111679000D01*
X73741000Y-88981000D02*
X74930000Y-90170000D01*
X73741000Y-111679000D02*
X73741000Y-129621000D01*
X73741000Y-48341000D02*
X74930000Y-49530000D01*
X73741000Y-71039000D02*
X73741000Y-88981000D01*
X73741000Y-109301000D02*
X74930000Y-110490000D01*
X73741000Y-129621000D02*
X74930000Y-130810000D01*
X73741000Y-68661000D02*
X74930000Y-69850000D01*
X74930000Y-90170000D02*
X73741000Y-91359000D01*
X74930000Y-29210000D02*
X73741000Y-30399000D01*
X73741000Y-50719000D02*
X73741000Y-68661000D01*
%TO.N,/DB7*%
X71201000Y-30399000D02*
X71201000Y-48341000D01*
X71201000Y-111679000D02*
X71201000Y-129621000D01*
X71201000Y-109301000D02*
X72390000Y-110490000D01*
X71201000Y-129621000D02*
X72390000Y-130810000D01*
X72390000Y-69850000D02*
X71201000Y-71039000D01*
X71201000Y-50719000D02*
X71201000Y-68661000D01*
X71201000Y-131999000D02*
X71201000Y-149941000D01*
X72390000Y-130810000D02*
X71201000Y-131999000D01*
X72390000Y-110490000D02*
X71201000Y-111679000D01*
X71201000Y-149941000D02*
X72390000Y-151130000D01*
X72390000Y-29210000D02*
X71201000Y-30399000D01*
X71201000Y-88981000D02*
X72390000Y-90170000D01*
X71201000Y-68661000D02*
X72390000Y-69850000D01*
X72390000Y-90170000D02*
X71201000Y-91359000D01*
X72390000Y-49530000D02*
X71201000Y-50719000D01*
X71201000Y-48341000D02*
X72390000Y-49530000D01*
X71201000Y-91359000D02*
X71201000Y-109301000D01*
X71201000Y-71039000D02*
X71201000Y-88981000D01*
%TO.N,/DB6*%
X69850000Y-130810000D02*
X68661000Y-131999000D01*
X68661000Y-129621000D02*
X69850000Y-130810000D01*
X68661000Y-48341000D02*
X69850000Y-49530000D01*
X69850000Y-110490000D02*
X68661000Y-111679000D01*
X68661000Y-91359000D02*
X68661000Y-109301000D01*
X68661000Y-50719000D02*
X68661000Y-68661000D01*
X69850000Y-49530000D02*
X68661000Y-50719000D01*
X69850000Y-90170000D02*
X68661000Y-91359000D01*
X68661000Y-30399000D02*
X68661000Y-48341000D01*
X69850000Y-29210000D02*
X68661000Y-30399000D01*
X68661000Y-111679000D02*
X68661000Y-129621000D01*
X68661000Y-149941000D02*
X69850000Y-151130000D01*
X68661000Y-88981000D02*
X69850000Y-90170000D01*
X68661000Y-71039000D02*
X68661000Y-88981000D01*
X68661000Y-131999000D02*
X68661000Y-149941000D01*
X68661000Y-68661000D02*
X69850000Y-69850000D01*
X69850000Y-69850000D02*
X68661000Y-71039000D01*
X68661000Y-109301000D02*
X69850000Y-110490000D01*
D19*
%TO.N,/DB12*%
X86329000Y-149891000D02*
X85090000Y-151130000D01*
X85090000Y-130810000D02*
X86329000Y-132049000D01*
X86329000Y-132049000D02*
X86329000Y-149891000D01*
X86329000Y-111729000D02*
X86329000Y-129571000D01*
X85090000Y-110490000D02*
X86329000Y-111729000D01*
X86329000Y-129571000D02*
X85090000Y-130810000D01*
X86329000Y-109251000D02*
X85090000Y-110490000D01*
X86329000Y-91409000D02*
X86329000Y-109251000D01*
X85090000Y-90170000D02*
X86329000Y-91409000D01*
X86329000Y-88931000D02*
X85090000Y-90170000D01*
X85090000Y-69850000D02*
X86329000Y-71089000D01*
X86329000Y-71089000D02*
X86329000Y-88931000D01*
X86329000Y-68611000D02*
X85090000Y-69850000D01*
X86329000Y-50769000D02*
X86329000Y-68611000D01*
X85090000Y-49530000D02*
X86329000Y-50769000D01*
X86329000Y-48291000D02*
X85090000Y-49530000D01*
X86329000Y-30449000D02*
X86329000Y-48291000D01*
X85090000Y-29210000D02*
X86329000Y-30449000D01*
%TO.N,/DB13*%
X89662000Y-138176000D02*
X89662000Y-145542000D01*
X87630000Y-130810000D02*
X88900000Y-132080000D01*
X89662000Y-145542000D02*
X87630000Y-147574000D01*
X87630000Y-147574000D02*
X87630000Y-151130000D01*
X88900000Y-132080000D02*
X88900000Y-137414000D01*
X88900000Y-137414000D02*
X89662000Y-138176000D01*
X87630000Y-127254000D02*
X87630000Y-130810000D01*
X87630000Y-110490000D02*
X88900000Y-111760000D01*
X88900000Y-111760000D02*
X88900000Y-117094000D01*
X89662000Y-117856000D02*
X89662000Y-125222000D01*
X89662000Y-125222000D02*
X87630000Y-127254000D01*
X88900000Y-117094000D02*
X89662000Y-117856000D01*
X88900000Y-96774000D02*
X89662000Y-97536000D01*
X87630000Y-106934000D02*
X87630000Y-110490000D01*
X89662000Y-97536000D02*
X89662000Y-104902000D01*
X87630000Y-90170000D02*
X88900000Y-91440000D01*
X88900000Y-91440000D02*
X88900000Y-96774000D01*
X89662000Y-104902000D02*
X87630000Y-106934000D01*
X88900000Y-71120000D02*
X88900000Y-76454000D01*
X87630000Y-69850000D02*
X88900000Y-71120000D01*
X89662000Y-84582000D02*
X87630000Y-86614000D01*
X88900000Y-76454000D02*
X89662000Y-77216000D01*
X87630000Y-86614000D02*
X87630000Y-90170000D01*
X89662000Y-77216000D02*
X89662000Y-84582000D01*
X89662000Y-56896000D02*
X89662000Y-64262000D01*
X87630000Y-66294000D02*
X87630000Y-69850000D01*
X88900000Y-56134000D02*
X89662000Y-56896000D01*
X89662000Y-64262000D02*
X87630000Y-66294000D01*
X88900000Y-50800000D02*
X88900000Y-56134000D01*
X87630000Y-49530000D02*
X88900000Y-50800000D01*
X87630000Y-45974000D02*
X87630000Y-49530000D01*
X89662000Y-43942000D02*
X87630000Y-45974000D01*
X88900000Y-35814000D02*
X89662000Y-36576000D01*
X88900000Y-30480000D02*
X88900000Y-35814000D01*
X89662000Y-36576000D02*
X89662000Y-43942000D01*
X87630000Y-29210000D02*
X88900000Y-30480000D01*
D20*
%TO.N,/~{RESET}*%
X49530000Y-29209909D02*
X48341000Y-30398909D01*
X49530000Y-130809909D02*
X48341000Y-131998909D01*
X49530000Y-110489909D02*
X48341000Y-111678909D01*
X48341000Y-111678909D02*
X48341000Y-129620909D01*
X49530000Y-90169909D02*
X48341000Y-91358909D01*
X48341000Y-30398909D02*
X48341000Y-48340909D01*
X49530000Y-49529909D02*
X48341000Y-50718909D01*
X48341000Y-88980909D02*
X49530000Y-90169909D01*
X48341000Y-68660909D02*
X49530000Y-69849909D01*
X48341000Y-71038909D02*
X48341000Y-88980909D01*
X48341000Y-109300909D02*
X49530000Y-110489909D01*
X48341000Y-91358909D02*
X48341000Y-109300909D01*
X48341000Y-149940909D02*
X49530000Y-151129909D01*
X48341000Y-131998909D02*
X48341000Y-149940909D01*
X48341000Y-48340909D02*
X49530000Y-49529909D01*
X48341000Y-129620909D02*
X49530000Y-130809909D01*
X49530000Y-69849909D02*
X48341000Y-71038909D01*
X48341000Y-50718909D02*
X48341000Y-68660909D01*
%TO.N,/B~{AS}*%
X44449909Y-90169909D02*
X43260909Y-91358909D01*
X44449909Y-130809909D02*
X43260909Y-131998909D01*
X43260909Y-131998909D02*
X43260909Y-149940909D01*
X44449909Y-49529909D02*
X43260909Y-50718909D01*
X43260909Y-149940909D02*
X44449909Y-151129909D01*
X43260909Y-88980909D02*
X44449909Y-90169909D01*
X44449909Y-69849909D02*
X43260909Y-71038909D01*
X43260909Y-91358909D02*
X43260909Y-109300909D01*
X44449909Y-29209909D02*
X43260909Y-30398909D01*
X43260909Y-68660909D02*
X44449909Y-69849909D01*
X43260909Y-109300909D02*
X44449909Y-110489909D01*
X43260909Y-30398909D02*
X43260909Y-48340909D01*
X43260909Y-50718909D02*
X43260909Y-68660909D01*
X44449909Y-110489909D02*
X43260909Y-111678909D01*
X43260909Y-129620909D02*
X44449909Y-130809909D01*
X43260909Y-111678909D02*
X43260909Y-129620909D01*
X43260909Y-71038909D02*
X43260909Y-88980909D01*
X43260909Y-48340909D02*
X44449909Y-49529909D01*
D19*
%TO.N,/DB14*%
X91440000Y-149860000D02*
X90170000Y-151130000D01*
X91440000Y-132080000D02*
X91440000Y-149860000D01*
X90170000Y-130810000D02*
X91440000Y-132080000D01*
X91440000Y-129540000D02*
X90170000Y-130810000D01*
X91440000Y-111760000D02*
X91440000Y-129540000D01*
X90170000Y-110490000D02*
X91440000Y-111760000D01*
X91440000Y-109220000D02*
X90170000Y-110490000D01*
X91440000Y-91440000D02*
X91440000Y-109220000D01*
X90170000Y-90170000D02*
X91440000Y-91440000D01*
X91409000Y-88931000D02*
X90170000Y-90170000D01*
X91409000Y-71089000D02*
X91409000Y-88931000D01*
X90170000Y-69850000D02*
X91409000Y-71089000D01*
X91440000Y-68580000D02*
X90170000Y-69850000D01*
X91440000Y-50800000D02*
X91440000Y-68580000D01*
X90170000Y-49530000D02*
X91440000Y-50800000D01*
X91440000Y-48260000D02*
X90170000Y-49530000D01*
X90170000Y-29210000D02*
X91440000Y-30480000D01*
X91440000Y-30480000D02*
X91440000Y-48260000D01*
%TO.N,/DB15*%
X93980000Y-149860000D02*
X92710000Y-151130000D01*
X93980000Y-132080000D02*
X93980000Y-149860000D01*
X92710000Y-130810000D02*
X93980000Y-132080000D01*
X93949000Y-111729000D02*
X93949000Y-129571000D01*
X93949000Y-129571000D02*
X92710000Y-130810000D01*
X92710000Y-110490000D02*
X93949000Y-111729000D01*
X93949000Y-109251000D02*
X92710000Y-110490000D01*
X93949000Y-91409000D02*
X93949000Y-109251000D01*
X92710000Y-90170000D02*
X93949000Y-91409000D01*
X93980000Y-71120000D02*
X93980000Y-88900000D01*
X93980000Y-88900000D02*
X92710000Y-90170000D01*
X92710000Y-69850000D02*
X93980000Y-71120000D01*
X93980000Y-68580000D02*
X92710000Y-69850000D01*
X93980000Y-50800000D02*
X93980000Y-68580000D01*
X92710000Y-49530000D02*
X93980000Y-50800000D01*
X93980000Y-48260000D02*
X92710000Y-49530000D01*
X92710000Y-29210000D02*
X93980000Y-30480000D01*
X93980000Y-30480000D02*
X93980000Y-48260000D01*
D21*
%TO.N,+12V*%
X101854000Y-156210000D02*
X100330000Y-156210000D01*
X103632000Y-154432000D02*
X101854000Y-156210000D01*
X104144722Y-144644269D02*
X103632000Y-145156991D01*
X103632000Y-145156991D02*
X103632000Y-154432000D01*
X100330000Y-135890000D02*
X103632000Y-135890000D01*
X103632000Y-135890000D02*
X103632000Y-144131547D01*
X103632000Y-124916779D02*
X103632000Y-135890000D01*
X103378000Y-115570000D02*
X103632000Y-115316000D01*
X100330000Y-115570000D02*
X103378000Y-115570000D01*
X103632000Y-115316000D02*
X103632000Y-123774001D01*
X103632000Y-104676568D02*
X103632000Y-115316000D01*
X100330000Y-95250000D02*
X103378000Y-95250000D01*
X103378000Y-95250000D02*
X103632000Y-94996000D01*
X103632000Y-94996000D02*
X103632000Y-103416454D01*
X103632000Y-84436356D02*
X103632000Y-94996000D01*
X103378000Y-74930000D02*
X103632000Y-75184000D01*
X100330000Y-74930000D02*
X103378000Y-74930000D01*
X103632000Y-75184000D02*
X103632000Y-83058908D01*
X103632000Y-64193241D02*
X103632000Y-75184000D01*
X103378000Y-54610000D02*
X103632000Y-54356000D01*
X100330000Y-54610000D02*
X103378000Y-54610000D01*
X103632000Y-54356000D02*
X103632000Y-62765415D01*
X103632000Y-43907400D02*
X103632000Y-54356000D01*
X103632000Y-144131547D02*
X104144722Y-144644269D01*
X104203389Y-124345390D02*
X103632000Y-124916779D01*
X103632000Y-123774001D02*
X104203389Y-124345390D01*
X104262057Y-104046511D02*
X103632000Y-104676568D01*
X103632000Y-103416454D02*
X104262057Y-104046511D01*
X104320724Y-83747632D02*
X103632000Y-84436356D01*
X103632000Y-83058908D02*
X104320724Y-83747632D01*
X104345913Y-63479328D02*
X103632000Y-64193241D01*
X103632000Y-62765415D02*
X104345913Y-63479328D01*
X104371988Y-43167412D02*
X103632000Y-43907400D01*
X104371988Y-43167412D02*
X104371988Y-34312012D01*
X104394000Y-34290000D02*
X100330000Y-34290000D01*
X104371988Y-34312012D02*
X104394000Y-34290000D01*
X110490000Y-34290000D02*
X104394000Y-34290000D01*
D22*
%TO.N,-5V*%
X101854000Y-23876000D02*
X100838000Y-22860000D01*
X101854000Y-30226000D02*
X101854000Y-23876000D01*
X100330000Y-31750000D02*
X101854000Y-30226000D01*
D20*
%TO.N,/DB5*%
X66121000Y-109301000D02*
X67310000Y-110490000D01*
X66121000Y-48341000D02*
X67310000Y-49530000D01*
X67310000Y-90170000D02*
X66121000Y-91359000D01*
X67310000Y-130810000D02*
X66121000Y-131999000D01*
X67310000Y-49530000D02*
X66121000Y-50719000D01*
X66121000Y-91359000D02*
X66121000Y-109301000D01*
X67310000Y-29210000D02*
X66121000Y-30399000D01*
X66121000Y-111679000D02*
X66121000Y-129621000D01*
X66121000Y-88981000D02*
X67310000Y-90170000D01*
X66121000Y-50719000D02*
X66121000Y-68661000D01*
X66121000Y-149941000D02*
X67310000Y-151130000D01*
X66121000Y-71039000D02*
X66121000Y-88981000D01*
X66121000Y-131999000D02*
X66121000Y-149941000D01*
X66121000Y-30399000D02*
X66121000Y-48341000D01*
X66121000Y-68661000D02*
X67310000Y-69850000D01*
X66121000Y-129621000D02*
X67310000Y-130810000D01*
X67310000Y-110490000D02*
X66121000Y-111679000D01*
X67310000Y-69850000D02*
X66121000Y-71039000D01*
%TO.N,/DB4*%
X64770000Y-110490000D02*
X63581000Y-111679000D01*
X63581000Y-50719000D02*
X63581000Y-68661000D01*
X64770000Y-49530000D02*
X63581000Y-50719000D01*
X63581000Y-109301000D02*
X64770000Y-110490000D01*
X63581000Y-48341000D02*
X64770000Y-49530000D01*
X64770000Y-130810000D02*
X63581000Y-131999000D01*
X63581000Y-68661000D02*
X64770000Y-69850000D01*
X63581000Y-71039000D02*
X63581000Y-88981000D01*
X63581000Y-129621000D02*
X64770000Y-130810000D01*
X64770000Y-69850000D02*
X63581000Y-71039000D01*
X63581000Y-111679000D02*
X63581000Y-129621000D01*
X63581000Y-131999000D02*
X63581000Y-149941000D01*
X63581000Y-88981000D02*
X64770000Y-90170000D01*
X63581000Y-91359000D02*
X63581000Y-109301000D01*
X63581000Y-149941000D02*
X64770000Y-151130000D01*
X64770000Y-90170000D02*
X63581000Y-91359000D01*
X64770000Y-29210000D02*
X63581000Y-30399000D01*
X63581000Y-30399000D02*
X63581000Y-48341000D01*
%TO.N,/DB3*%
X62230000Y-29210000D02*
X61041000Y-30399000D01*
X62230000Y-49530000D02*
X61041000Y-50719000D01*
X61041000Y-48341000D02*
X62230000Y-49530000D01*
X61041000Y-91359000D02*
X61041000Y-109301000D01*
X61041000Y-88981000D02*
X62230000Y-90170000D01*
X61041000Y-30399000D02*
X61041000Y-48341000D01*
X62230000Y-90170000D02*
X61041000Y-91359000D01*
X61041000Y-71039000D02*
X61041000Y-88981000D01*
X62230000Y-130810000D02*
X61041000Y-131999000D01*
X62230000Y-110490000D02*
X61041000Y-111679000D01*
X61041000Y-50719000D02*
X61041000Y-68661000D01*
X61041000Y-109301000D02*
X62230000Y-110490000D01*
X61041000Y-129621000D02*
X62230000Y-130810000D01*
X62230000Y-69850000D02*
X61041000Y-71039000D01*
X61041000Y-111679000D02*
X61041000Y-129621000D01*
X61041000Y-149941000D02*
X62230000Y-151130000D01*
X61041000Y-68661000D02*
X62230000Y-69850000D01*
X61041000Y-131999000D02*
X61041000Y-149941000D01*
%TO.N,/DB2*%
X58501000Y-91359000D02*
X58501000Y-109301000D01*
X58501000Y-30399000D02*
X58501000Y-48341000D01*
X58501000Y-129621000D02*
X59690000Y-130810000D01*
X59690000Y-90170000D02*
X58501000Y-91359000D01*
X58501000Y-71039000D02*
X58501000Y-88981000D01*
X59690000Y-69850000D02*
X58501000Y-71039000D01*
X59690000Y-130810000D02*
X58501000Y-131999000D01*
X58501000Y-88981000D02*
X59690000Y-90170000D01*
X59690000Y-29210000D02*
X58501000Y-30399000D01*
X59690000Y-49530000D02*
X58501000Y-50719000D01*
X58501000Y-111679000D02*
X58501000Y-129621000D01*
X59690000Y-110490000D02*
X58501000Y-111679000D01*
X58501000Y-149941000D02*
X59690000Y-151130000D01*
X58501000Y-109301000D02*
X59690000Y-110490000D01*
X58501000Y-50719000D02*
X58501000Y-68661000D01*
X58501000Y-48341000D02*
X59690000Y-49530000D01*
X58501000Y-68661000D02*
X59690000Y-69850000D01*
X58501000Y-131999000D02*
X58501000Y-149941000D01*
%TO.N,/DB0*%
X54610000Y-90170000D02*
X53421000Y-91359000D01*
X54610000Y-130810000D02*
X53421000Y-131999000D01*
X53421000Y-131999000D02*
X53421000Y-149941000D01*
X54610000Y-49530000D02*
X53421000Y-50719000D01*
X53421000Y-149941000D02*
X54610000Y-151130000D01*
X53421000Y-88981000D02*
X54610000Y-90170000D01*
X54610000Y-69850000D02*
X53421000Y-71039000D01*
X53421000Y-91359000D02*
X53421000Y-109301000D01*
X54610000Y-29210000D02*
X53421000Y-30399000D01*
X53421000Y-68661000D02*
X54610000Y-69850000D01*
X53421000Y-109301000D02*
X54610000Y-110490000D01*
X53421000Y-30399000D02*
X53421000Y-48341000D01*
X53421000Y-50719000D02*
X53421000Y-68661000D01*
X54610000Y-110490000D02*
X53421000Y-111679000D01*
X53421000Y-129621000D02*
X54610000Y-130810000D01*
X53421000Y-111679000D02*
X53421000Y-129621000D01*
X53421000Y-71039000D02*
X53421000Y-88981000D01*
X53421000Y-48341000D02*
X54610000Y-49530000D01*
%TO.N,/~{CS2}*%
X46990000Y-92710000D02*
X45801000Y-93899000D01*
X46990000Y-133350000D02*
X45801000Y-134539000D01*
X45801000Y-134539000D02*
X45801000Y-152481000D01*
X46990000Y-52070000D02*
X45801000Y-53259000D01*
X45801000Y-152481000D02*
X46990000Y-153670000D01*
X45801000Y-91521000D02*
X46990000Y-92710000D01*
X46990000Y-72390000D02*
X45801000Y-73579000D01*
X45801000Y-93899000D02*
X45801000Y-111841000D01*
X46990000Y-31750000D02*
X45801000Y-32939000D01*
X45801000Y-71201000D02*
X46990000Y-72390000D01*
X45801000Y-111841000D02*
X46990000Y-113030000D01*
X45801000Y-32939000D02*
X45801000Y-50881000D01*
X45801000Y-53259000D02*
X45801000Y-71201000D01*
X46990000Y-113030000D02*
X45801000Y-114219000D01*
X45801000Y-132161000D02*
X46990000Y-133350000D01*
X45801000Y-114219000D02*
X45801000Y-132161000D01*
X45801000Y-73579000D02*
X45801000Y-91521000D01*
X45801000Y-50881000D02*
X46990000Y-52070000D01*
%TO.N,/B~{UDS}*%
X41910000Y-90170000D02*
X40721000Y-91359000D01*
X40721000Y-50719000D02*
X40721000Y-68661000D01*
X40721000Y-149941000D02*
X41910000Y-151130000D01*
X40721000Y-109301000D02*
X41910000Y-110490000D01*
X40721000Y-88981000D02*
X41910000Y-90170000D01*
X41910000Y-49530000D02*
X40721000Y-50719000D01*
X41910000Y-69850000D02*
X40721000Y-71039000D01*
X41910000Y-29210000D02*
X40721000Y-30399000D01*
X40721000Y-30399000D02*
X40721000Y-48341000D01*
X40721000Y-131999000D02*
X40721000Y-149941000D01*
X40721000Y-68661000D02*
X41910000Y-69850000D01*
X40721000Y-91359000D02*
X40721000Y-109301000D01*
X41910000Y-110490000D02*
X40721000Y-111679000D01*
X41910000Y-130810000D02*
X40721000Y-131999000D01*
X40721000Y-129621000D02*
X41910000Y-130810000D01*
X40721000Y-111679000D02*
X40721000Y-129621000D01*
X40721000Y-71039000D02*
X40721000Y-88981000D01*
X40721000Y-48341000D02*
X41910000Y-49530000D01*
%TO.N,/B~{LDS}*%
X38181000Y-88981000D02*
X39370000Y-90170000D01*
X38181000Y-71039000D02*
X38181000Y-88981000D01*
X38181000Y-149941000D02*
X39370000Y-151130000D01*
X39370000Y-29210000D02*
X38181000Y-30399000D01*
X38181000Y-109301000D02*
X39370000Y-110490000D01*
X38181000Y-30399000D02*
X38181000Y-48341000D01*
X38181000Y-68661000D02*
X39370000Y-69850000D01*
X38181000Y-50719000D02*
X38181000Y-68661000D01*
X38181000Y-48341000D02*
X39370000Y-49530000D01*
X39370000Y-69850000D02*
X38181000Y-71039000D01*
X39370000Y-130810000D02*
X38181000Y-131999000D01*
X38181000Y-129621000D02*
X39370000Y-130810000D01*
X38181000Y-111679000D02*
X38181000Y-129621000D01*
X38181000Y-91359000D02*
X38181000Y-109301000D01*
X38181000Y-131999000D02*
X38181000Y-149941000D01*
X39370000Y-90170000D02*
X38181000Y-91359000D01*
X39370000Y-49530000D02*
X38181000Y-50719000D01*
X39370000Y-110490000D02*
X38181000Y-111679000D01*
%TO.N,/BR{slash}~{W}*%
X35641000Y-88981000D02*
X36830000Y-90170000D01*
X36830000Y-49530000D02*
X35641000Y-50719000D01*
X35641000Y-111679000D02*
X35641000Y-129621000D01*
X35641000Y-131999000D02*
X35641000Y-149941000D01*
X36830000Y-90170000D02*
X35641000Y-91359000D01*
X35641000Y-48341000D02*
X36830000Y-49530000D01*
X35641000Y-149941000D02*
X36830000Y-151130000D01*
X36830000Y-130810000D02*
X35641000Y-131999000D01*
X35641000Y-91359000D02*
X35641000Y-109301000D01*
X35641000Y-50719000D02*
X35641000Y-68661000D01*
X36830000Y-29210000D02*
X35641000Y-30399000D01*
X35641000Y-71039000D02*
X35641000Y-88981000D01*
X36830000Y-69850000D02*
X35641000Y-71039000D01*
X36830000Y-110490000D02*
X35641000Y-111679000D01*
X35641000Y-68661000D02*
X36830000Y-69850000D01*
X35641000Y-109301000D02*
X36830000Y-110490000D01*
X35641000Y-30399000D02*
X35641000Y-48341000D01*
X35641000Y-129621000D02*
X36830000Y-130810000D01*
%TO.N,/~{DTACK}*%
X34290000Y-49530000D02*
X33101000Y-50719000D01*
X33101000Y-131999000D02*
X33101000Y-149941000D01*
X34290000Y-90170000D02*
X33101000Y-91359000D01*
X34290000Y-29210000D02*
X33101000Y-30399000D01*
X33101000Y-88981000D02*
X34290000Y-90170000D01*
X33101000Y-111679000D02*
X33101000Y-129621000D01*
X34290000Y-130810000D02*
X33101000Y-131999000D01*
X34290000Y-69850000D02*
X33101000Y-71039000D01*
X33101000Y-48341000D02*
X34290000Y-49530000D01*
X33101000Y-91359000D02*
X33101000Y-109301000D01*
X34290000Y-110490000D02*
X33101000Y-111679000D01*
X33101000Y-68661000D02*
X34290000Y-69850000D01*
X33101000Y-71039000D02*
X33101000Y-88981000D01*
X33101000Y-50719000D02*
X33101000Y-68661000D01*
X33101000Y-149941000D02*
X34290000Y-151130000D01*
X33101000Y-30399000D02*
X33101000Y-48341000D01*
X33101000Y-109301000D02*
X34290000Y-110490000D01*
X33101000Y-129621000D02*
X34290000Y-130810000D01*
%TO.N,/~{BG}*%
X30561000Y-71039000D02*
X30561000Y-88981000D01*
X30561000Y-91359000D02*
X30561000Y-109301000D01*
X31750000Y-110490000D02*
X30561000Y-111679000D01*
X31750000Y-49530000D02*
X30561000Y-50719000D01*
X30561000Y-131999000D02*
X30561000Y-149941000D01*
X31750000Y-130810000D02*
X30561000Y-131999000D01*
X31750000Y-90170000D02*
X30561000Y-91359000D01*
X30561000Y-88981000D02*
X31750000Y-90170000D01*
X30561000Y-30399000D02*
X30561000Y-48341000D01*
X30561000Y-48341000D02*
X31750000Y-49530000D01*
X30561000Y-111679000D02*
X30561000Y-129621000D01*
X31750000Y-69850000D02*
X30561000Y-71039000D01*
X30561000Y-68661000D02*
X31750000Y-69850000D01*
X30561000Y-129621000D02*
X31750000Y-130810000D01*
X31750000Y-29210000D02*
X30561000Y-30399000D01*
X30561000Y-109301000D02*
X31750000Y-110490000D01*
X30561000Y-149941000D02*
X31750000Y-151130000D01*
X30561000Y-50719000D02*
X30561000Y-68661000D01*
%TO.N,/~{BGACK}*%
X28021000Y-30399000D02*
X28021000Y-48341000D01*
X28021000Y-129621000D02*
X29210000Y-130810000D01*
X29210000Y-29210000D02*
X28021000Y-30399000D01*
X28021000Y-88981000D02*
X29210000Y-90170000D01*
X28021000Y-48341000D02*
X29210000Y-49530000D01*
X28021000Y-91359000D02*
X28021000Y-109301000D01*
X29210000Y-49530000D02*
X28021000Y-50719000D01*
X29210000Y-69850000D02*
X28021000Y-71039000D01*
X28021000Y-50719000D02*
X28021000Y-68661000D01*
X29210000Y-90170000D02*
X28021000Y-91359000D01*
X28021000Y-111679000D02*
X28021000Y-129621000D01*
X28021000Y-109301000D02*
X29210000Y-110490000D01*
X28021000Y-68661000D02*
X29210000Y-69850000D01*
X29210000Y-110490000D02*
X28021000Y-111679000D01*
X28021000Y-71039000D02*
X28021000Y-88981000D01*
X28021000Y-131999000D02*
X28021000Y-149941000D01*
X28021000Y-149941000D02*
X29210000Y-151130000D01*
X29210000Y-130810000D02*
X28021000Y-131999000D01*
%TO.N,/~{BR}*%
X25481000Y-149941000D02*
X26670000Y-151130000D01*
X25481000Y-131999000D02*
X25481000Y-149941000D01*
X26670000Y-130810000D02*
X25481000Y-131999000D01*
X25481000Y-88981000D02*
X26670000Y-90170000D01*
X25481000Y-71039000D02*
X25481000Y-88981000D01*
X26670000Y-69850000D02*
X25481000Y-71039000D01*
X25481000Y-48341000D02*
X26670000Y-49530000D01*
X26670000Y-29210000D02*
X25481000Y-30399000D01*
X25481000Y-30399000D02*
X25481000Y-48341000D01*
X25481000Y-68661000D02*
X26670000Y-69850000D01*
X25481000Y-50719000D02*
X25481000Y-68661000D01*
X26670000Y-49530000D02*
X25481000Y-50719000D01*
X26670000Y-110490000D02*
X25481000Y-111679000D01*
X25481000Y-129621000D02*
X26670000Y-130810000D01*
X25481000Y-111679000D02*
X25481000Y-129621000D01*
X26670000Y-90170000D02*
X25481000Y-91359000D01*
X25481000Y-91359000D02*
X25481000Y-109301000D01*
X25481000Y-109301000D02*
X26670000Y-110490000D01*
%TO.N,/B~{AVEC}*%
X18288000Y-145288000D02*
X21590000Y-148590000D01*
X18288000Y-134112000D02*
X18288000Y-145288000D01*
X21590000Y-148590000D02*
X21590000Y-151130000D01*
X21590000Y-130810000D02*
X18288000Y-134112000D01*
X20401000Y-129621000D02*
X21590000Y-130810000D01*
X20401000Y-111679000D02*
X20401000Y-129621000D01*
X21590000Y-110490000D02*
X20401000Y-111679000D01*
X20401000Y-91359000D02*
X20401000Y-109301000D01*
X20401000Y-109301000D02*
X21590000Y-110490000D01*
X21590000Y-90170000D02*
X20401000Y-91359000D01*
X20401000Y-71039000D02*
X20401000Y-88981000D01*
X21590000Y-69850000D02*
X20401000Y-71039000D01*
X20401000Y-88981000D02*
X21590000Y-90170000D01*
X20401000Y-50719000D02*
X20401000Y-68661000D01*
X21590000Y-49530000D02*
X20401000Y-50719000D01*
X20401000Y-68661000D02*
X21590000Y-69850000D01*
X20401000Y-48341000D02*
X21590000Y-49530000D01*
X20401000Y-30399000D02*
X20401000Y-48341000D01*
X21590000Y-29210000D02*
X20401000Y-30399000D01*
D21*
%TO.N,+12V*%
X104394000Y-22860000D02*
X102108000Y-20574000D01*
X102108000Y-16002000D02*
X101346000Y-16764000D01*
X102108000Y-20574000D02*
X102108000Y-16002000D01*
X102616000Y-15494000D02*
X102108000Y-16002000D01*
X123952000Y-20828000D02*
X110490000Y-34290000D01*
X123952000Y-18386862D02*
X123952000Y-20828000D01*
X125966862Y-16372000D02*
X123952000Y-18386862D01*
X126122000Y-16372000D02*
X125966862Y-16372000D01*
X126122000Y-16372000D02*
X108574000Y-16372000D01*
X153066000Y-16372000D02*
X126122000Y-16372000D01*
X93218000Y-16510000D02*
X93218000Y-14224000D01*
X93472000Y-16764000D02*
X93218000Y-16510000D01*
X101346000Y-16764000D02*
X93472000Y-16764000D01*
X107696000Y-15494000D02*
X102616000Y-15494000D01*
X108574000Y-16372000D02*
X107696000Y-15494000D01*
X155416000Y-14022000D02*
X153066000Y-16372000D01*
%TD*%
M02*
