%TF.GenerationSoftware,KiCad,Pcbnew,(6.0.7)*%
%TF.CreationDate,2023-04-17T16:20:31-06:00*%
%TF.ProjectId,Malebolge,4d616c65-626f-46c6-9765-2e6b69636164,rev?*%
%TF.SameCoordinates,Original*%
%TF.FileFunction,Paste,Top*%
%TF.FilePolarity,Positive*%
%FSLAX46Y46*%
G04 Gerber Fmt 4.6, Leading zero omitted, Abs format (unit mm)*
G04 Created by KiCad (PCBNEW (6.0.7)) date 2023-04-17 16:20:31*
%MOMM*%
%LPD*%
G01*
G04 APERTURE LIST*
G04 Aperture macros list*
%AMRoundRect*
0 Rectangle with rounded corners*
0 $1 Rounding radius*
0 $2 $3 $4 $5 $6 $7 $8 $9 X,Y pos of 4 corners*
0 Add a 4 corners polygon primitive as box body*
4,1,4,$2,$3,$4,$5,$6,$7,$8,$9,$2,$3,0*
0 Add four circle primitives for the rounded corners*
1,1,$1+$1,$2,$3*
1,1,$1+$1,$4,$5*
1,1,$1+$1,$6,$7*
1,1,$1+$1,$8,$9*
0 Add four rect primitives between the rounded corners*
20,1,$1+$1,$2,$3,$4,$5,0*
20,1,$1+$1,$4,$5,$6,$7,0*
20,1,$1+$1,$6,$7,$8,$9,0*
20,1,$1+$1,$8,$9,$2,$3,0*%
G04 Aperture macros list end*
%ADD10RoundRect,0.250000X-0.450000X0.262500X-0.450000X-0.262500X0.450000X-0.262500X0.450000X0.262500X0*%
%ADD11RoundRect,0.243750X-0.243750X-0.456250X0.243750X-0.456250X0.243750X0.456250X-0.243750X0.456250X0*%
%ADD12RoundRect,0.250000X-1.250000X-0.550000X1.250000X-0.550000X1.250000X0.550000X-1.250000X0.550000X0*%
%ADD13RoundRect,0.250000X0.475000X-0.250000X0.475000X0.250000X-0.475000X0.250000X-0.475000X-0.250000X0*%
G04 APERTURE END LIST*
D10*
%TO.C,R1*%
X107442000Y-12549500D03*
X107442000Y-14374500D03*
%TD*%
D11*
%TO.C,D1*%
X103710500Y-12700000D03*
X105585500Y-12700000D03*
%TD*%
D12*
%TO.C,C38*%
X104480000Y-144780000D03*
X108880000Y-144780000D03*
%TD*%
%TO.C,C33*%
X104480000Y-124460000D03*
X108880000Y-124460000D03*
%TD*%
%TO.C,C28*%
X104480000Y-104140000D03*
X108880000Y-104140000D03*
%TD*%
%TO.C,C23*%
X104480000Y-83820000D03*
X108880000Y-83820000D03*
%TD*%
%TO.C,C18*%
X104480000Y-63500000D03*
X108880000Y-63500000D03*
%TD*%
%TO.C,C13*%
X104480000Y-43180000D03*
X108880000Y-43180000D03*
%TD*%
%TO.C,C8*%
X104480000Y-22860000D03*
X108880000Y-22860000D03*
%TD*%
%TO.C,C37*%
X96352000Y-144780000D03*
X100752000Y-144780000D03*
%TD*%
%TO.C,C32*%
X96352000Y-124460000D03*
X100752000Y-124460000D03*
%TD*%
%TO.C,C27*%
X96352000Y-104140000D03*
X100752000Y-104140000D03*
%TD*%
%TO.C,C22*%
X96352000Y-83820000D03*
X100752000Y-83820000D03*
%TD*%
%TO.C,C17*%
X100752000Y-63500000D03*
X96352000Y-63500000D03*
%TD*%
%TO.C,C12*%
X96352000Y-43180000D03*
X100752000Y-43180000D03*
%TD*%
%TO.C,C7*%
X96352000Y-22860000D03*
X100752000Y-22860000D03*
%TD*%
%TO.C,C36*%
X88219278Y-144780000D03*
X92619278Y-144780000D03*
%TD*%
%TO.C,C31*%
X88219278Y-124460000D03*
X92619278Y-124460000D03*
%TD*%
%TO.C,C26*%
X88219278Y-104140000D03*
X92619278Y-104140000D03*
%TD*%
%TO.C,C21*%
X88219278Y-83820000D03*
X92619278Y-83820000D03*
%TD*%
%TO.C,C16*%
X88219278Y-63500000D03*
X92619278Y-63500000D03*
%TD*%
%TO.C,C11*%
X88219278Y-43180000D03*
X92619278Y-43180000D03*
%TD*%
%TO.C,C5*%
X88219278Y-22860000D03*
X92619278Y-22860000D03*
%TD*%
%TO.C,C35*%
X60030000Y-144780000D03*
X64430000Y-144780000D03*
%TD*%
%TO.C,C30*%
X60030000Y-124460000D03*
X64430000Y-124460000D03*
%TD*%
%TO.C,C25*%
X60030000Y-104140000D03*
X64430000Y-104140000D03*
%TD*%
%TO.C,C20*%
X60030000Y-83820000D03*
X64430000Y-83820000D03*
%TD*%
%TO.C,C15*%
X60030000Y-63500000D03*
X64430000Y-63500000D03*
%TD*%
%TO.C,C10*%
X60030000Y-43180000D03*
X64430000Y-43180000D03*
%TD*%
%TO.C,C4*%
X60030000Y-22860000D03*
X64430000Y-22860000D03*
%TD*%
%TO.C,C34*%
X56302000Y-144780000D03*
X51902000Y-144780000D03*
%TD*%
%TO.C,C29*%
X51902000Y-124460000D03*
X56302000Y-124460000D03*
%TD*%
%TO.C,C24*%
X51902000Y-104140000D03*
X56302000Y-104140000D03*
%TD*%
%TO.C,C19*%
X51902000Y-83820000D03*
X56302000Y-83820000D03*
%TD*%
%TO.C,C14*%
X51902000Y-63500000D03*
X56302000Y-63500000D03*
%TD*%
%TO.C,C9*%
X51902000Y-43180000D03*
X56302000Y-43180000D03*
%TD*%
%TO.C,C3*%
X51902000Y-22860000D03*
X56302000Y-22860000D03*
%TD*%
D13*
%TO.C,C2*%
X99568000Y-15179000D03*
X99568000Y-13279000D03*
%TD*%
%TO.C,C1*%
X86868000Y-15179000D03*
X86868000Y-13279000D03*
%TD*%
M02*
