M48
; DRILL file {KiCad (6.0.7)} date Mon Apr 17 16:20:36 2023
; FORMAT={-:-/ absolute / inch / decimal}
; #@! TF.CreationDate,2023-04-17T16:20:36-06:00
; #@! TF.GenerationSoftware,Kicad,Pcbnew,(6.0.7)
; #@! TF.FileFunction,Plated,1,4,PTH
FMAT,2
INCH
; #@! TA.AperFunction,Plated,PTH,ViaDrill
T1C0.0157
; #@! TA.AperFunction,Plated,PTH,ComponentDrill
T2C0.0394
; #@! TA.AperFunction,Plated,PTH,ComponentDrill
T3C0.0433
; #@! TA.AperFunction,Plated,PTH,ComponentDrill
T4C0.0500
; #@! TA.AperFunction,Plated,PTH,ComponentDrill
T5C0.0551
; #@! TA.AperFunction,Plated,PTH,ComponentDrill
T6C0.1150
%
G90
G05
T1
X2.0302Y-5.6947
X2.0325Y-4.8955
X2.0348Y-4.0963
X2.0371Y-3.2972
X2.0381Y-2.4992
X2.0391Y-1.6995
X2.04Y-0.9
X2.2102Y-5.6947
X2.2125Y-4.8955
X2.2148Y-4.0963
X2.2171Y-3.2972
X2.2181Y-2.4992
X2.2191Y-1.6995
X2.22Y-0.9
X2.3502Y-5.6947
X2.3525Y-4.8955
X2.3548Y-4.0963
X2.3571Y-3.2972
X2.3581Y-2.4992
X2.3591Y-1.6995
X2.36Y-0.9
X2.5302Y-5.6947
X2.5325Y-4.8955
X2.5348Y-4.0963
X2.5371Y-3.2972
X2.5381Y-2.4992
X2.5391Y-1.6995
X2.54Y-0.9
X3.42Y-0.52
X3.47Y-5.6947
X3.4723Y-4.8955
X3.4746Y-4.0963
X3.4769Y-3.2972
X3.4779Y-2.4992
X3.4789Y-1.6995
X3.4798Y-0.9
X3.64Y-5.6947
X3.6423Y-4.8955
X3.6446Y-4.0963
X3.6469Y-3.2972
X3.6479Y-2.4992
X3.6489Y-1.6995
X3.7802Y-5.6947
X3.7825Y-4.8955
X3.7848Y-4.0963
X3.7871Y-3.2972
X3.7881Y-2.4992
X3.7891Y-1.6995
X3.79Y-0.9
X3.92Y-0.52
X3.97Y-0.9
X4.08Y-0.5
X4.1002Y-5.6947
X4.1025Y-4.8955
X4.1048Y-4.0963
X4.1071Y-3.2972
X4.1081Y-2.4992
X4.1091Y-1.6995
X4.11Y-0.9
X4.2802Y-5.6947
X4.2825Y-4.8955
X4.2848Y-4.0963
X4.2871Y-3.2972
X4.2881Y-2.4992
X4.2891Y-1.6995
X4.29Y-0.9
X4.41Y-5.95
X4.4145Y-1.9455
X4.4145Y-2.7445
X4.4145Y-3.5445
X4.4145Y-4.3545
X4.4145Y-5.1545
T2
X4.1008Y-0.679
X4.2008Y-0.679
T3
X3.57Y-0.56
X3.67Y-0.56
X3.77Y-0.56
T4
X0.85Y-1.15
X0.85Y-1.25
X0.85Y-1.35
X0.85Y-1.95
X0.85Y-2.05
X0.85Y-2.15
X0.85Y-2.75
X0.85Y-2.85
X0.85Y-2.95
X0.85Y-3.55
X0.85Y-3.65
X0.85Y-3.75
X0.85Y-4.35
X0.85Y-4.45
X0.85Y-4.55
X0.85Y-5.15
X0.85Y-5.25
X0.85Y-5.35
X0.85Y-5.95
X0.85Y-6.05
X0.85Y-6.15
X0.95Y-1.15
X0.95Y-1.25
X0.95Y-1.35
X0.95Y-1.95
X0.95Y-2.05
X0.95Y-2.15
X0.95Y-2.75
X0.95Y-2.85
X0.95Y-2.95
X0.95Y-3.55
X0.95Y-3.65
X0.95Y-3.75
X0.95Y-4.35
X0.95Y-4.45
X0.95Y-4.55
X0.95Y-5.15
X0.95Y-5.25
X0.95Y-5.35
X0.95Y-5.95
X0.95Y-6.05
X0.95Y-6.15
X1.05Y-1.15
X1.05Y-1.25
X1.05Y-1.35
X1.05Y-1.95
X1.05Y-2.05
X1.05Y-2.15
X1.05Y-2.75
X1.05Y-2.85
X1.05Y-2.95
X1.05Y-3.55
X1.05Y-3.65
X1.05Y-3.75
X1.05Y-4.35
X1.05Y-4.45
X1.05Y-4.55
X1.05Y-5.15
X1.05Y-5.25
X1.05Y-5.35
X1.05Y-5.95
X1.05Y-6.05
X1.05Y-6.15
X1.15Y-1.15
X1.15Y-1.25
X1.15Y-1.35
X1.15Y-1.95
X1.15Y-2.05
X1.15Y-2.15
X1.15Y-2.75
X1.15Y-2.85
X1.15Y-2.95
X1.15Y-3.55
X1.15Y-3.65
X1.15Y-3.75
X1.15Y-4.35
X1.15Y-4.45
X1.15Y-4.55
X1.15Y-5.15
X1.15Y-5.25
X1.15Y-5.35
X1.15Y-5.95
X1.15Y-6.05
X1.15Y-6.15
X1.25Y-1.15
X1.25Y-1.25
X1.25Y-1.35
X1.25Y-1.95
X1.25Y-2.05
X1.25Y-2.15
X1.25Y-2.75
X1.25Y-2.85
X1.25Y-2.95
X1.25Y-3.55
X1.25Y-3.65
X1.25Y-3.75
X1.25Y-4.35
X1.25Y-4.45
X1.25Y-4.55
X1.25Y-5.15
X1.25Y-5.25
X1.25Y-5.35
X1.25Y-5.95
X1.25Y-6.05
X1.25Y-6.15
X1.35Y-1.15
X1.35Y-1.25
X1.35Y-1.35
X1.35Y-1.95
X1.35Y-2.05
X1.35Y-2.15
X1.35Y-2.75
X1.35Y-2.85
X1.35Y-2.95
X1.35Y-3.55
X1.35Y-3.65
X1.35Y-3.75
X1.35Y-4.35
X1.35Y-4.45
X1.35Y-4.55
X1.35Y-5.15
X1.35Y-5.25
X1.35Y-5.35
X1.35Y-5.95
X1.35Y-6.05
X1.35Y-6.15
X1.45Y-1.15
X1.45Y-1.25
X1.45Y-1.35
X1.45Y-1.95
X1.45Y-2.05
X1.45Y-2.15
X1.45Y-2.75
X1.45Y-2.85
X1.45Y-2.95
X1.45Y-3.55
X1.45Y-3.65
X1.45Y-3.75
X1.45Y-4.35
X1.45Y-4.45
X1.45Y-4.55
X1.45Y-5.15
X1.45Y-5.25
X1.45Y-5.35
X1.45Y-5.95
X1.45Y-6.05
X1.45Y-6.15
X1.55Y-1.15
X1.55Y-1.25
X1.55Y-1.35
X1.55Y-1.95
X1.55Y-2.05
X1.55Y-2.15
X1.55Y-2.75
X1.55Y-2.85
X1.55Y-2.95
X1.55Y-3.55
X1.55Y-3.65
X1.55Y-3.75
X1.55Y-4.35
X1.55Y-4.45
X1.55Y-4.55
X1.55Y-5.15
X1.55Y-5.25
X1.55Y-5.35
X1.55Y-5.95
X1.55Y-6.05
X1.55Y-6.15
X1.65Y-1.15
X1.65Y-1.25
X1.65Y-1.35
X1.65Y-1.95
X1.65Y-2.05
X1.65Y-2.15
X1.65Y-2.75
X1.65Y-2.85
X1.65Y-2.95
X1.65Y-3.55
X1.65Y-3.65
X1.65Y-3.75
X1.65Y-4.35
X1.65Y-4.45
X1.65Y-4.55
X1.65Y-5.15
X1.65Y-5.25
X1.65Y-5.35
X1.65Y-5.95
X1.65Y-6.05
X1.65Y-6.15
X1.75Y-1.15
X1.75Y-1.25
X1.75Y-1.35
X1.75Y-1.95
X1.75Y-2.05
X1.75Y-2.15
X1.75Y-2.75
X1.75Y-2.85
X1.75Y-2.95
X1.75Y-3.55
X1.75Y-3.65
X1.75Y-3.75
X1.75Y-4.35
X1.75Y-4.45
X1.75Y-4.55
X1.75Y-5.15
X1.75Y-5.25
X1.75Y-5.35
X1.75Y-5.95
X1.75Y-6.05
X1.75Y-6.15
X1.85Y-1.15
X1.85Y-1.25
X1.85Y-1.35
X1.85Y-1.95
X1.85Y-2.05
X1.85Y-2.15
X1.85Y-2.75
X1.85Y-2.85
X1.85Y-2.95
X1.85Y-3.55
X1.85Y-3.65
X1.85Y-3.75
X1.85Y-4.35
X1.85Y-4.45
X1.85Y-4.55
X1.85Y-5.15
X1.85Y-5.25
X1.85Y-5.35
X1.85Y-5.95
X1.85Y-6.05
X1.85Y-6.15
X1.95Y-1.15
X1.95Y-1.25
X1.95Y-1.35
X1.95Y-1.95
X1.95Y-2.05
X1.95Y-2.15
X1.95Y-2.75
X1.95Y-2.85
X1.95Y-2.95
X1.95Y-3.55
X1.95Y-3.65
X1.95Y-3.75
X1.95Y-4.35
X1.95Y-4.45
X1.95Y-4.55
X1.95Y-5.15
X1.95Y-5.25
X1.95Y-5.35
X1.95Y-5.95
X1.95Y-6.05
X1.95Y-6.15
X2.05Y-1.15
X2.05Y-1.25
X2.05Y-1.35
X2.05Y-1.95
X2.05Y-2.05
X2.05Y-2.15
X2.05Y-2.75
X2.05Y-2.85
X2.05Y-2.95
X2.05Y-3.55
X2.05Y-3.65
X2.05Y-3.75
X2.05Y-4.35
X2.05Y-4.45
X2.05Y-4.55
X2.05Y-5.15
X2.05Y-5.25
X2.05Y-5.35
X2.05Y-5.95
X2.05Y-6.05
X2.05Y-6.15
X2.15Y-1.15
X2.15Y-1.25
X2.15Y-1.35
X2.15Y-1.95
X2.15Y-2.05
X2.15Y-2.15
X2.15Y-2.75
X2.15Y-2.85
X2.15Y-2.95
X2.15Y-3.55
X2.15Y-3.65
X2.15Y-3.75
X2.15Y-4.35
X2.15Y-4.45
X2.15Y-4.55
X2.15Y-5.15
X2.15Y-5.25
X2.15Y-5.35
X2.15Y-5.95
X2.15Y-6.05
X2.15Y-6.15
X2.25Y-1.15
X2.25Y-1.25
X2.25Y-1.35
X2.25Y-1.95
X2.25Y-2.05
X2.25Y-2.15
X2.25Y-2.75
X2.25Y-2.85
X2.25Y-2.95
X2.25Y-3.55
X2.25Y-3.65
X2.25Y-3.75
X2.25Y-4.35
X2.25Y-4.45
X2.25Y-4.55
X2.25Y-5.15
X2.25Y-5.25
X2.25Y-5.35
X2.25Y-5.95
X2.25Y-6.05
X2.25Y-6.15
X2.35Y-1.15
X2.35Y-1.25
X2.35Y-1.35
X2.35Y-1.95
X2.35Y-2.05
X2.35Y-2.15
X2.35Y-2.75
X2.35Y-2.85
X2.35Y-2.95
X2.35Y-3.55
X2.35Y-3.65
X2.35Y-3.75
X2.35Y-4.35
X2.35Y-4.45
X2.35Y-4.55
X2.35Y-5.15
X2.35Y-5.25
X2.35Y-5.35
X2.35Y-5.95
X2.35Y-6.05
X2.35Y-6.15
X2.45Y-1.15
X2.45Y-1.25
X2.45Y-1.35
X2.45Y-1.95
X2.45Y-2.05
X2.45Y-2.15
X2.45Y-2.75
X2.45Y-2.85
X2.45Y-2.95
X2.45Y-3.55
X2.45Y-3.65
X2.45Y-3.75
X2.45Y-4.35
X2.45Y-4.45
X2.45Y-4.55
X2.45Y-5.15
X2.45Y-5.25
X2.45Y-5.35
X2.45Y-5.95
X2.45Y-6.05
X2.45Y-6.15
X2.55Y-1.15
X2.55Y-1.25
X2.55Y-1.35
X2.55Y-1.95
X2.55Y-2.05
X2.55Y-2.15
X2.55Y-2.75
X2.55Y-2.85
X2.55Y-2.95
X2.55Y-3.55
X2.55Y-3.65
X2.55Y-3.75
X2.55Y-4.35
X2.55Y-4.45
X2.55Y-4.55
X2.55Y-5.15
X2.55Y-5.25
X2.55Y-5.35
X2.55Y-5.95
X2.55Y-6.05
X2.55Y-6.15
X2.65Y-1.15
X2.65Y-1.25
X2.65Y-1.35
X2.65Y-1.95
X2.65Y-2.05
X2.65Y-2.15
X2.65Y-2.75
X2.65Y-2.85
X2.65Y-2.95
X2.65Y-3.55
X2.65Y-3.65
X2.65Y-3.75
X2.65Y-4.35
X2.65Y-4.45
X2.65Y-4.55
X2.65Y-5.15
X2.65Y-5.25
X2.65Y-5.35
X2.65Y-5.95
X2.65Y-6.05
X2.65Y-6.15
X2.75Y-1.15
X2.75Y-1.25
X2.75Y-1.35
X2.75Y-1.95
X2.75Y-2.05
X2.75Y-2.15
X2.75Y-2.75
X2.75Y-2.85
X2.75Y-2.95
X2.75Y-3.55
X2.75Y-3.65
X2.75Y-3.75
X2.75Y-4.35
X2.75Y-4.45
X2.75Y-4.55
X2.75Y-5.15
X2.75Y-5.25
X2.75Y-5.35
X2.75Y-5.95
X2.75Y-6.05
X2.75Y-6.15
X2.85Y-1.15
X2.85Y-1.25
X2.85Y-1.35
X2.85Y-1.95
X2.85Y-2.05
X2.85Y-2.15
X2.85Y-2.75
X2.85Y-2.85
X2.85Y-2.95
X2.85Y-3.55
X2.85Y-3.65
X2.85Y-3.75
X2.85Y-4.35
X2.85Y-4.45
X2.85Y-4.55
X2.85Y-5.15
X2.85Y-5.25
X2.85Y-5.35
X2.85Y-5.95
X2.85Y-6.05
X2.85Y-6.15
X2.95Y-1.15
X2.95Y-1.25
X2.95Y-1.35
X2.95Y-1.95
X2.95Y-2.05
X2.95Y-2.15
X2.95Y-2.75
X2.95Y-2.85
X2.95Y-2.95
X2.95Y-3.55
X2.95Y-3.65
X2.95Y-3.75
X2.95Y-4.35
X2.95Y-4.45
X2.95Y-4.55
X2.95Y-5.15
X2.95Y-5.25
X2.95Y-5.35
X2.95Y-5.95
X2.95Y-6.05
X2.95Y-6.15
X3.05Y-1.15
X3.05Y-1.25
X3.05Y-1.35
X3.05Y-1.95
X3.05Y-2.05
X3.05Y-2.15
X3.05Y-2.75
X3.05Y-2.85
X3.05Y-2.95
X3.05Y-3.55
X3.05Y-3.65
X3.05Y-3.75
X3.05Y-4.35
X3.05Y-4.45
X3.05Y-4.55
X3.05Y-5.15
X3.05Y-5.25
X3.05Y-5.35
X3.05Y-5.95
X3.05Y-6.05
X3.05Y-6.15
X3.15Y-1.15
X3.15Y-1.25
X3.15Y-1.35
X3.15Y-1.95
X3.15Y-2.05
X3.15Y-2.15
X3.15Y-2.75
X3.15Y-2.85
X3.15Y-2.95
X3.15Y-3.55
X3.15Y-3.65
X3.15Y-3.75
X3.15Y-4.35
X3.15Y-4.45
X3.15Y-4.55
X3.15Y-5.15
X3.15Y-5.25
X3.15Y-5.35
X3.15Y-5.95
X3.15Y-6.05
X3.15Y-6.15
X3.25Y-1.15
X3.25Y-1.25
X3.25Y-1.35
X3.25Y-1.95
X3.25Y-2.05
X3.25Y-2.15
X3.25Y-2.75
X3.25Y-2.85
X3.25Y-2.95
X3.25Y-3.55
X3.25Y-3.65
X3.25Y-3.75
X3.25Y-4.35
X3.25Y-4.45
X3.25Y-4.55
X3.25Y-5.15
X3.25Y-5.25
X3.25Y-5.35
X3.25Y-5.95
X3.25Y-6.05
X3.25Y-6.15
X3.35Y-1.15
X3.35Y-1.25
X3.35Y-1.35
X3.35Y-1.95
X3.35Y-2.05
X3.35Y-2.15
X3.35Y-2.75
X3.35Y-2.85
X3.35Y-2.95
X3.35Y-3.55
X3.35Y-3.65
X3.35Y-3.75
X3.35Y-4.35
X3.35Y-4.45
X3.35Y-4.55
X3.35Y-5.15
X3.35Y-5.25
X3.35Y-5.35
X3.35Y-5.95
X3.35Y-6.05
X3.35Y-6.15
X3.45Y-1.15
X3.45Y-1.25
X3.45Y-1.35
X3.45Y-1.95
X3.45Y-2.05
X3.45Y-2.15
X3.45Y-2.75
X3.45Y-2.85
X3.45Y-2.95
X3.45Y-3.55
X3.45Y-3.65
X3.45Y-3.75
X3.45Y-4.35
X3.45Y-4.45
X3.45Y-4.55
X3.45Y-5.15
X3.45Y-5.25
X3.45Y-5.35
X3.45Y-5.95
X3.45Y-6.05
X3.45Y-6.15
X3.55Y-1.15
X3.55Y-1.25
X3.55Y-1.35
X3.55Y-1.95
X3.55Y-2.05
X3.55Y-2.15
X3.55Y-2.75
X3.55Y-2.85
X3.55Y-2.95
X3.55Y-3.55
X3.55Y-3.65
X3.55Y-3.75
X3.55Y-4.35
X3.55Y-4.45
X3.55Y-4.55
X3.55Y-5.15
X3.55Y-5.25
X3.55Y-5.35
X3.55Y-5.95
X3.55Y-6.05
X3.55Y-6.15
X3.65Y-1.15
X3.65Y-1.25
X3.65Y-1.35
X3.65Y-1.95
X3.65Y-2.05
X3.65Y-2.15
X3.65Y-2.75
X3.65Y-2.85
X3.65Y-2.95
X3.65Y-3.55
X3.65Y-3.65
X3.65Y-3.75
X3.65Y-4.35
X3.65Y-4.45
X3.65Y-4.55
X3.65Y-5.15
X3.65Y-5.25
X3.65Y-5.35
X3.65Y-5.95
X3.65Y-6.05
X3.65Y-6.15
X3.75Y-1.15
X3.75Y-1.25
X3.75Y-1.35
X3.75Y-1.95
X3.75Y-2.05
X3.75Y-2.15
X3.75Y-2.75
X3.75Y-2.85
X3.75Y-2.95
X3.75Y-3.55
X3.75Y-3.65
X3.75Y-3.75
X3.75Y-4.35
X3.75Y-4.45
X3.75Y-4.55
X3.75Y-5.15
X3.75Y-5.25
X3.75Y-5.35
X3.75Y-5.95
X3.75Y-6.05
X3.75Y-6.15
X3.85Y-1.15
X3.85Y-1.25
X3.85Y-1.35
X3.85Y-1.95
X3.85Y-2.05
X3.85Y-2.15
X3.85Y-2.75
X3.85Y-2.85
X3.85Y-2.95
X3.85Y-3.55
X3.85Y-3.65
X3.85Y-3.75
X3.85Y-4.35
X3.85Y-4.45
X3.85Y-4.55
X3.85Y-5.15
X3.85Y-5.25
X3.85Y-5.35
X3.85Y-5.95
X3.85Y-6.05
X3.85Y-6.15
X3.95Y-1.15
X3.95Y-1.25
X3.95Y-1.35
X3.95Y-1.95
X3.95Y-2.05
X3.95Y-2.15
X3.95Y-2.75
X3.95Y-2.85
X3.95Y-2.95
X3.95Y-3.55
X3.95Y-3.65
X3.95Y-3.75
X3.95Y-4.35
X3.95Y-4.45
X3.95Y-4.55
X3.95Y-5.15
X3.95Y-5.25
X3.95Y-5.35
X3.95Y-5.95
X3.95Y-6.05
X3.95Y-6.15
T5
X4.6306Y-0.552
X4.6306Y-0.7686
X4.7959Y-0.552
X4.7959Y-0.7686
X4.9613Y-0.552
X4.9613Y-0.7686
X5.1266Y-0.552
X5.1266Y-0.7686
X5.292Y-0.552
X5.292Y-0.7686
X5.4573Y-0.552
X5.4573Y-0.7686
X5.6227Y-0.552
X5.6227Y-0.7686
X5.788Y-0.552
X5.788Y-0.7686
X5.9534Y-0.552
X5.9534Y-0.7686
X6.1187Y-0.552
X6.1187Y-0.7686
X6.2841Y-0.552
X6.2841Y-0.7686
X6.4494Y-0.552
X6.4494Y-0.7686
T6
X0.6265Y-1.25
X0.6265Y-2.05
X0.6265Y-2.85
X0.6265Y-3.65
X0.6265Y-4.45
X0.6265Y-5.25
X0.6265Y-6.05
X4.1735Y-1.25
X4.1735Y-2.05
X4.1735Y-2.85
X4.1735Y-3.65
X4.1735Y-4.45
X4.1735Y-5.25
X4.1735Y-6.05
T0
M30
